<svg id="Component_2_1" data-name="Component 2 – 1" xmlns="http://www.w3.org/2000/svg" width="1502.087" height="390.147" viewBox="0 0 1502.087 390.147">
  <g id="Group_11" transform="translate(-80.516 -473.947)">
    <g id="Component_6_4" transform="translate(430.326 453.327)">
      <path id="Path_135" d="M545.5,236H504.4c-4.7,0-5.9,1.2-5.2,6,1.4,11.1,10.6,23,22,26.1,10.9,3.1,19.6,1,28.1-5.8a15.128,15.128,0,0,0,3.5-4.4c1.2-2.4,2.8-3.4,5.7-3.4,9,.2,17.7,0,26.7.2,3.8,0,4.7,1.5,3.1,5.1-4,9-9.2,17.2-17,23.2a55.933,55.933,0,0,1-27.9,11.4c-13,1.7-26,.2-38.7-2.7-10.6-2.4-18.9-8.5-25.5-17.4-7.3-10.4-12.7-21.8-14.2-34.4-1.7-15-.5-29.8,5.2-44s14.9-25.7,29.5-31.2c11.1-4.1,22.4-6.5,34.5-4.8,11.8,1.7,23.1,4.8,32.8,11.9,9.2,6.8,16.3,15.7,19.8,27.3a112.063,112.063,0,0,1,5,31.5c0,5.3,0,5.3-5.2,5.3-14,.3-27.7.3-41.1.1Zm-17.3-20.8h0c7.6.2,14.9.2,22.4.2,4.7,0,5.4-.7,5.2-5.8-.9-11.1-10.4-21.1-20.5-23.5-14.4-3.4-32.1,6-34.7,24-.7,4.1-.2,4.8,4,5.1Z" fill="#fff"/>
      <path id="Path_136" d="M732.2,248.6v39.9c0,3.9,0,4.1-4,4.1l-26.2.7c-4.2,0-4.5,0-4.5-4.6V212.2a32.078,32.078,0,0,0-2.8-13.3c-2.4-5.1-5.9-8.2-10.9-9.4-11.8-2.9-22.7-1.2-31.9,7.5-5.2,5.1-5.9,11.6-6.1,18.4v74.1c0,4.1,0,4.1-4,4.1-9-.2-18.2-.7-27.1-.7-2.8,0-3.5-1-3.5-3.6,0-17.2-.5-34.6-.5-51.8,0-23,.2-45.7.2-68.7,0-4.1,0-4.4,4-4.4,8.5-.2,17.2-.2,25.7-.5,2.1,0,3.1,1,3.1,3.1,0,3.4-.2,7-.2,10.4a8.125,8.125,0,0,0,1.2,2.9,6.539,6.539,0,0,0,2.6-1.7c8-11.4,19.4-16.5,32.6-17.4,4.6-.2,9.3-.2,13.9,0,8.7.5,16.3,4.8,23.6,9,5.2,2.9,8,8,9.9,13.6a86.828,86.828,0,0,1,4.7,29c.2,11.9.2,24,.2,35.8Z" fill="#fff"/>
      <path id="Path_132" d="M101.4,203.6c1-7.6,1.6-18.9,4.2-29.6,4.4-18.9,13-35.7,28.2-48.8,10.4-9.2,22.7-14.7,36-17.8a126.545,126.545,0,0,1,47.5-1.6c21.7,3.4,41.2,11.8,55.1,30.2,8.1,10.8,13.3,22.6,17,35.1,6,20.7,6,41.7,2.6,62.4-2.9,17.8-9.9,34.6-22.7,47.7-13.6,14.2-30.5,23.6-50.4,26.5-17.2,2.6-33.9.3-50.6-3.4-23.5-5.2-41-18.9-53.8-38.5a75.288,75.288,0,0,1-11.2-34.1c-.9-7.9-1.1-16.3-1.9-28.1Zm151.9,1.1c0-12.6-1.8-24.6-7-36.2-3.4-7.6-7.6-14.7-14.6-19.7-14.6-10.2-30.5-12.8-47.8-8.7C162.5,145.6,150.2,160,145,181c-3.1,13.1-2.9,26.5-2.1,39.9.8,11.3,3.1,22.6,9.9,32,3.1,4.5,7,9.2,11.5,12.1,15.4,10,32.1,13.4,50.1,7.1,14.9-5.2,25.8-14.4,32.1-29.4,5.5-12.3,6.5-24.9,6.8-38Z" fill="#fff"/>
      <path id="Path_137" d="M969.9,293.5c-4.7,0-9.4.2-13.9,0-5.4-.2-5.9-1-5.9-6.5V175c0-4.6.5-9,.5-13.6,0-2.4.9-3.4,3.3-3.4,10.6,0,21.2-.2,31.9-.2,3.1,0,5,2.2,5,5.6,0,7.5-.2,15-.5,22.5,0,1.9-.2,4.1-.2,6-.2,27.3-.2,54.5-.5,81.8,0,4.8-.2,9.9-.5,14.8,0,4.1-.5,4.6-4.7,4.8-5.1.5-9.8.2-14.5.2Z" fill="#fff"/>
      <path id="Path_147" d="M969.4,107.7h15.3c3.8,0,3.8,0,4,3.9.2,8.7.5,17.4.5,26.1,0,5.1-.7,5.8-5.7,5.8H954.7c-4.7,0-5.2-.5-5.2-5.3V112c0-3.9.2-4.1,4-4.4,5.5-.2,10.7.1,15.9.1Z" fill="#fff"/>
      <path id="Path_133" d="M315.7,259.2V169.7c0-7.5-.7-6.5,6.4-6.5,7.8,0,15.6.2,23.4.2,2.6,0,3.8,1,3.5,3.9a25.685,25.685,0,0,0,.5,7.3c.5,2.4,1.7,2.7,3.3.7,10.6-12.6,24.8-15.7,40.1-14.8,8.7.5,17,2.7,24.3,7.5a52.612,52.612,0,0,1,17.2,18.2c9.9,16.5,12.5,34.6,9.9,53.5a110.357,110.357,0,0,1-5.7,24c-6.6,16.5-18.4,28.6-35.6,32.2-18.4,3.9-35.6,0-49.1-15a24.76,24.76,0,0,0-2.6-1.9c-.2,1.2-.9,2.4-.9,3.4-.2,22.5-.2,45-.2,67.3v3.1a2.446,2.446,0,0,1-2.1,2.7H318.3c-1.9,0-2.8-1-2.8-2.9v-4.8c-.1-29.6-.1-59.1.2-88.6Zm94.9-30.8c-.9-6-1.7-12.3-3.1-18.2-1.7-6.3-4.5-12.1-9.7-16.5-16.5-13.3-39.4-2.7-44.6,11.1a82.565,82.565,0,0,0-4.2,15.5c-1.9,9.4.2,18.6,3.1,27.6,2.8,8.5,7.8,15,16.3,17.9a71.559,71.559,0,0,0,7.3,1.9c11.8,1.7,25.5-3.9,30.7-16.9,2.5-7.1,3.2-14.6,4.2-22.4Z" fill="#fff"/>
      <path id="Path_134" d="M1085.3,151.7c14.2,0,26.7,5.1,38,13.1a95.3,95.3,0,0,1,11.6,9.4,63.851,63.851,0,0,1,7.8,11.4,89.964,89.964,0,0,1,8.3,21.8c1.9,7.7,1.2,15.5.9,23.2,0,3.1-.9,6.3-1.2,9.4-.7,9-5,16.5-8.7,24.2-3.1,6.3-7.8,11.4-12.5,16.2-3.3,3.1-7.6,5.6-11.3,8-1.4,1-3.3,1.5-5,2.4-11.6,5.8-23.6,6.5-36.4,5.6a90.158,90.158,0,0,1-24.1-4.6c-11.8-4.1-21.7-10.6-29.3-21.1a72.385,72.385,0,0,1-13.9-43.6c0-7.7-.2-15.2,1.9-22.7a64.406,64.406,0,0,1,23.8-35.3,82.084,82.084,0,0,1,28.8-14c6.9-1.7,14-2.2,21.3-3.4Zm25.8,73.4c-.7-5.1-1.4-9.9-2.1-15-1.7-9.9-7.3-16.5-16.5-19.4a48.089,48.089,0,0,0-9.9-1.9c-12.3-.7-21.7,3.4-26.9,14.5a53.212,53.212,0,0,0-3.1,35.6c3.1,12.8,11.1,21.5,24.6,23,10.4,1.2,19.6-1,26.2-10.4,5.1-8.1,7.2-16.8,7.7-26.4Z" fill="#fff"/>
      <path id="Path_230" d="M775.1,203.8V119.5c0-5.6,1.2-7,6.5-7h85c8.3,0,16.4,2.4,24.5,4.4,17.4,3.9,26.9,15.7,32.2,32.6,2.3,7.5,2.3,15,1.6,22.7-.5,5.1-3,9.4-6.3,13.5-2.5,2.9-4.9,5.8-7.4,8.7-1.2,1.2-1.4,2.2.2,3.4,11.6,7.5,16.2,19.3,18.5,32.4,1.4,8.5,1.9,16.9-.7,25.4-3.5,11.6-9.5,21.3-19.5,28.3a62.012,62.012,0,0,1-34.3,11.4c-30.6.7-61.1.7-91.9,1-1,0-2-.1-3-.2-3.9-.5-5.6-2.2-5.6-6.5C775.1,260.8,775.1,232.3,775.1,203.8Zm67.6,14.7H816.1c-2.5,0-4.2.5-4.2,3.4-.2,11.8-.9,23.7-1.2,35.5-.2,4.1.5,4.6,4.9,4.6,9.5,0,18.8.2,28.3,0,9-.2,18.1-.7,27.1-.7,11.1,0,20.6-9.4,22.5-20.1,1.2-6.3-.7-11.8-6-16.4-5.6-4.8-12.3-5.8-19.5-6-8.6-.5-16.9-.3-25.3-.3Zm-2.5-74.7c-6.9,0-14.1.2-21.1,0-3.2,0-4.4,1.2-4.4,4.6.2,9.7.2,19.3,0,29,0,3.6,1.4,4.4,4.4,4.4,9.3-.2,18.8-.2,28,0,6.9,0,18.5-1,25.5-1.7,13.2-1.2,14.4-4.8,13.9-17.4v-4.4a11.309,11.309,0,0,0-5.3-9.7,21.58,21.58,0,0,0-6.9-2.7c-11.4-2.6-22.8-2.6-34.1-2.1Z" fill="#fff"/>
      <g id="Harvard_College" transform="translate(613.04 45)">
        <path id="path1776" d="M-264.2,79.6h-4.9v-18h-18.4v18h-4.9V42.7h4.9V57.1h18.4V42.7h4.9Z" fill="#fff"/>
        <path id="path1778" d="M-233.7,79.6h-4.6V76.7c-.4.3-1,.7-1.7,1.2a15.071,15.071,0,0,1-2,1.2,10.709,10.709,0,0,1-2.7.9,12.478,12.478,0,0,1-3.5.4,8.517,8.517,0,0,1-6.3-2.5,8.442,8.442,0,0,1-2.6-6.3,8.781,8.781,0,0,1,1.3-5.1,9.451,9.451,0,0,1,3.9-3.1,23.665,23.665,0,0,1,6.1-1.5c2.4-.3,4.9-.5,7.6-.6v-.7a5,5,0,0,0-.6-2.6,4.1,4.1,0,0,0-1.6-1.6,8.468,8.468,0,0,0-2.4-.8,26.417,26.417,0,0,0-2.9-.2,21.718,21.718,0,0,0-4.1.5,30.98,30.98,0,0,0-4.7,1.4h-.2V52.6c.9-.2,2.2-.5,3.9-.8a29.223,29.223,0,0,1,5.1-.4,25.917,25.917,0,0,1,5.1.5,10.9,10.9,0,0,1,3.8,1.6,8.491,8.491,0,0,1,2.4,2.9,10.077,10.077,0,0,1,.8,4.5Zm-4.7-6.8V65.1c-1.4.1-3.1.2-5,.4a34.965,34.965,0,0,0-4.6.7,7.661,7.661,0,0,0-3.2,1.8,4.459,4.459,0,0,0-1.2,3.3,4.591,4.591,0,0,0,1.4,3.6,6.8,6.8,0,0,0,4.4,1.2,11.3,11.3,0,0,0,4.5-.9,33.664,33.664,0,0,0,3.7-2.4Z" fill="#fff"/>
        <path id="path1780" d="M-208,57h-.2a7.469,7.469,0,0,0-2-.3,15.52,15.52,0,0,0-2.3-.1,9.245,9.245,0,0,0-4.2,1,20.558,20.558,0,0,0-3.9,2.4V79.6h-4.7V51.9h4.7V56a20.373,20.373,0,0,1,4.9-3.1,11.06,11.06,0,0,1,4.3-.9,8.663,8.663,0,0,1,1.8.1,13.7,13.7,0,0,1,1.6.2Z" fill="#fff"/>
        <path id="path1782" d="M-180.2,51.9l-11.2,27.6h-4.7l-11.1-27.6h5l8.6,22,8.5-22Z" fill="#fff"/>
        <path id="path1784" d="M-154.1,79.6h-4.6V76.7c-.4.3-1,.7-1.7,1.2a15.071,15.071,0,0,1-2,1.2,10.709,10.709,0,0,1-2.7.9,12.478,12.478,0,0,1-3.5.4,8.517,8.517,0,0,1-6.3-2.5,8.442,8.442,0,0,1-2.6-6.3,8.781,8.781,0,0,1,1.3-5.1,9.451,9.451,0,0,1,3.9-3.1,23.665,23.665,0,0,1,6.1-1.5c2.4-.3,4.9-.5,7.6-.6v-.7a5,5,0,0,0-.6-2.6,4.1,4.1,0,0,0-1.6-1.6,8.468,8.468,0,0,0-2.4-.8,26.417,26.417,0,0,0-2.9-.2,21.718,21.718,0,0,0-4.1.5,30.98,30.98,0,0,0-4.7,1.4h-.2V52.6c.9-.2,2.2-.5,3.9-.8a29.223,29.223,0,0,1,5.1-.4,25.917,25.917,0,0,1,5.1.5,10.9,10.9,0,0,1,3.8,1.6,8.491,8.491,0,0,1,2.4,2.9,11.692,11.692,0,0,1,.8,4.5Zm-4.6-6.8V65.1c-1.4.1-3.1.2-5,.4a34.965,34.965,0,0,0-4.6.7,7.661,7.661,0,0,0-3.2,1.8,4.459,4.459,0,0,0-1.2,3.3,4.591,4.591,0,0,0,1.4,3.6,6.8,6.8,0,0,0,4.4,1.2,11.3,11.3,0,0,0,4.5-.9c1.3-.8,2.5-1.5,3.7-2.4Z" fill="#fff"/>
        <path id="path1786" d="M-128.4,57h-.2a7.469,7.469,0,0,0-2-.3,15.52,15.52,0,0,0-2.3-.1,9.245,9.245,0,0,0-4.2,1A20.558,20.558,0,0,0-141,60V79.6h-4.7V51.9h4.7V56a20.373,20.373,0,0,1,4.9-3.1,11.06,11.06,0,0,1,4.3-.9,8.663,8.663,0,0,1,1.8.1,13.7,13.7,0,0,1,1.6.2Z" fill="#fff"/>
        <path id="path1788" d="M-102,79.6h-4.7V76.7a13.667,13.667,0,0,1-4.2,2.7,12.363,12.363,0,0,1-4.7,1,9.623,9.623,0,0,1-7.9-3.8c-1.9-2.5-2.9-6.1-2.9-10.6a18.109,18.109,0,0,1,1-6.3,16.529,16.529,0,0,1,2.7-4.7,11.067,11.067,0,0,1,3.9-2.9,11.041,11.041,0,0,1,4.7-1,15.376,15.376,0,0,1,3.9.5,19.634,19.634,0,0,1,3.5,1.4V41h4.7Zm-4.7-6.8V56.9a23.558,23.558,0,0,0-3.4-1.2,16.551,16.551,0,0,0-3.2-.3,7.479,7.479,0,0,0-6.1,2.7c-1.5,1.8-2.2,4.4-2.2,7.7s.6,5.8,1.7,7.5,2.9,2.5,5.4,2.5a9.677,9.677,0,0,0,4-.9A12.78,12.78,0,0,0-106.7,72.8Z" fill="#fff"/>
        <path id="path1790" d="M-47.2,76.9c-.9.4-1.7.8-2.5,1.1-.7.3-1.7.7-2.9,1.1a26.623,26.623,0,0,1-3.3.8,23.76,23.76,0,0,1-3.9.3,23.8,23.8,0,0,1-7.3-1.1,15.163,15.163,0,0,1-5.7-3.5,16.479,16.479,0,0,1-3.7-6,23.915,23.915,0,0,1-1.3-8.4,22.951,22.951,0,0,1,1.3-8.1A17.815,17.815,0,0,1-72.8,47a17.013,17.013,0,0,1,5.7-3.7A21.656,21.656,0,0,1-59.7,42a23.244,23.244,0,0,1,5.9.7,32.326,32.326,0,0,1,6.6,2.5V51h-.4a21.711,21.711,0,0,0-6-3.7A16.947,16.947,0,0,0-60,46.1a13.109,13.109,0,0,0-5,.9,10.793,10.793,0,0,0-4,2.8,14.167,14.167,0,0,0-2.7,4.7,21.729,21.729,0,0,0-.9,6.5,19.294,19.294,0,0,0,1,6.7,13.65,13.65,0,0,0,2.7,4.6,11.794,11.794,0,0,0,4,2.7,13.717,13.717,0,0,0,4.9.9,17.617,17.617,0,0,0,6.6-1.2,18.689,18.689,0,0,0,5.8-3.6h.3v5.8Z" fill="#fff"/>
        <path id="path1792" d="M-17.6,65.8c0,4.5-1.2,8.1-3.5,10.7a11.791,11.791,0,0,1-9.3,3.9,11.791,11.791,0,0,1-9.3-3.9c-2.3-2.6-3.4-6.2-3.4-10.7s1.1-8.1,3.4-10.7a11.791,11.791,0,0,1,9.3-3.9,11.791,11.791,0,0,1,9.3,3.9C-18.7,57.7-17.6,61.3-17.6,65.8Zm-4.8,0c0-3.6-.7-6.2-2.1-8a7.1,7.1,0,0,0-5.8-2.6,7.3,7.3,0,0,0-5.9,2.6c-1.4,1.7-2.1,4.4-2.1,8,0,3.5.7,6.1,2.1,7.9a7.088,7.088,0,0,0,5.9,2.7,7.1,7.1,0,0,0,5.8-2.6C-23.1,71.9-22.4,69.3-22.4,65.8Z" fill="#fff"/>
        <path id="path1794" d="M-6.2,79.6h-4.7V41.1h4.7Z" fill="#fff"/>
        <path id="path1796" d="M7.3,79.6H2.6V41.1H7.3V79.6Z" fill="#fff"/>
        <path id="path1798" d="M39.1,66.2H18.8a12.458,12.458,0,0,0,.8,4.5,7.745,7.745,0,0,0,2.1,3.1,9.233,9.233,0,0,0,3,1.8,12.262,12.262,0,0,0,3.9.6,16.468,16.468,0,0,0,5.7-1.1,16.343,16.343,0,0,0,4.1-2.2h.2V78a45.879,45.879,0,0,1-4.8,1.7,17,17,0,0,1-5.1.7c-4.6,0-8.2-1.2-10.7-3.7-2.6-2.5-3.9-6-3.9-10.6,0-4.5,1.2-8.1,3.7-10.8a12.529,12.529,0,0,1,9.7-4c3.7,0,6.6,1.1,8.6,3.3s3,5.3,3,9.3Zm-4.5-3.5A8.024,8.024,0,0,0,32.7,57a7.1,7.1,0,0,0-5.5-2,8.079,8.079,0,0,0-6,2.2,8.534,8.534,0,0,0-2.5,5.5Z" fill="#fff"/>
        <path id="path1800" d="M68.1,76.4c0,4.7-1.1,8.1-3.2,10.3S59.5,90,55.1,90a30.027,30.027,0,0,1-4.3-.3,27.13,27.13,0,0,1-4.1-.9V84h.2a33.363,33.363,0,0,0,3.6,1.1,20.7,20.7,0,0,0,4.9.7,10.65,10.65,0,0,0,3.9-.6,5.96,5.96,0,0,0,2.4-1.6,4.637,4.637,0,0,0,1.2-2.3,13.607,13.607,0,0,0,.4-3V75.8a16.291,16.291,0,0,1-4,2.5,13.553,13.553,0,0,1-4.9.8,9.735,9.735,0,0,1-7.9-3.6c-1.9-2.4-2.9-5.8-2.9-10.1a15.916,15.916,0,0,1,1-6.1,16.824,16.824,0,0,1,2.7-4.5,10.537,10.537,0,0,1,3.9-2.7,10.921,10.921,0,0,1,4.6-1,15.017,15.017,0,0,1,4,.5,14.162,14.162,0,0,1,3.4,1.5l.3-1.2h4.4V76.4ZM63.5,72V56.9A13.229,13.229,0,0,0,60,55.7a17.5,17.5,0,0,0-3.2-.4,7.364,7.364,0,0,0-6,2.6c-1.4,1.7-2.2,4.2-2.2,7.5,0,3.1.5,5.5,1.6,7.1s2.9,2.4,5.4,2.4a11.941,11.941,0,0,0,4.1-.8A23.165,23.165,0,0,0,63.5,72Z" fill="#fff"/>
        <path id="path1802" d="M99.9,66.2H79.5a12.458,12.458,0,0,0,.8,4.5,7.745,7.745,0,0,0,2.1,3.1,9.233,9.233,0,0,0,3,1.8,12.262,12.262,0,0,0,3.9.6,17.392,17.392,0,0,0,9.8-3.3h.2V78a45.878,45.878,0,0,1-4.8,1.7,17,17,0,0,1-5.1.7c-4.6,0-8.2-1.2-10.7-3.7-2.6-2.5-3.9-6-3.9-10.6,0-4.5,1.2-8.1,3.7-10.8a12.529,12.529,0,0,1,9.7-4c3.7,0,6.6,1.1,8.6,3.3s3,5.3,3,9.3v2.3Zm-4.5-3.5A8.024,8.024,0,0,0,93.5,57,7.1,7.1,0,0,0,88,55a8.079,8.079,0,0,0-6,2.2,8.534,8.534,0,0,0-2.5,5.5Z" fill="#fff"/>
      </g>
      <g id="Laboratory">
        <path id="path1805" d="M910.8,371.1H887.5V334.3h4.9v32.5h18.4v4.3Z" fill="#fff"/>
        <path id="path1807" d="M936.3,371.1h-4.6v-2.9c-.4.3-1,.7-1.7,1.2a15.077,15.077,0,0,1-2,1.2,10.708,10.708,0,0,1-2.7.9,12.479,12.479,0,0,1-3.5.4,8.71,8.71,0,0,1-8.9-8.8,8.781,8.781,0,0,1,1.3-5.1,9.451,9.451,0,0,1,3.9-3.1,23.664,23.664,0,0,1,6.1-1.5c2.4-.3,4.9-.5,7.6-.6v-.7a5,5,0,0,0-.6-2.6,4.1,4.1,0,0,0-1.6-1.6,8.468,8.468,0,0,0-2.4-.8,26.416,26.416,0,0,0-2.9-.2,21.718,21.718,0,0,0-4.1.5,30.98,30.98,0,0,0-4.7,1.4h-.2V344c.9-.2,2.2-.5,3.9-.8a29.224,29.224,0,0,1,5.1-.4,25.917,25.917,0,0,1,5.1.5,10.9,10.9,0,0,1,3.8,1.6,8.492,8.492,0,0,1,2.4,2.9,11.692,11.692,0,0,1,.8,4.5v18.8Zm-4.6-6.9v-7.7c-1.4.1-3.1.2-5,.4a34.961,34.961,0,0,0-4.6.7,7.661,7.661,0,0,0-3.2,1.8,4.459,4.459,0,0,0-1.2,3.3,4.591,4.591,0,0,0,1.4,3.6,6.8,6.8,0,0,0,4.4,1.2,11.3,11.3,0,0,0,4.5-.9,23.492,23.492,0,0,0,3.7-2.4Z" fill="#fff"/>
        <path id="path1809" d="M969.2,357a17.168,17.168,0,0,1-1,6.2,14.269,14.269,0,0,1-2.6,4.7,11.67,11.67,0,0,1-3.9,2.9,11.478,11.478,0,0,1-4.6,1,12.653,12.653,0,0,1-4.1-.6,26.319,26.319,0,0,1-3.5-1.5l-.3,1.3h-4.4V332.5h4.7v13.8a18.345,18.345,0,0,1,4.2-2.6,11.311,11.311,0,0,1,4.9-1,9.124,9.124,0,0,1,7.7,3.8c1.9,2.4,2.9,6,2.9,10.5Zm-4.8.1c0-3.3-.5-5.8-1.6-7.5a5.8,5.8,0,0,0-5.3-2.6,10.126,10.126,0,0,0-4.1.9,15.4,15.4,0,0,0-3.9,2.3V366a15.56,15.56,0,0,0,3.4,1.2,15.822,15.822,0,0,0,3.2.3,7.3,7.3,0,0,0,6-2.5c1.5-1.6,2.3-4.2,2.3-7.9Z" fill="#fff"/>
        <path id="path1811" d="M999.5,357.2c0,4.5-1.2,8.1-3.5,10.7a13.038,13.038,0,0,1-18.6,0c-2.3-2.6-3.4-6.2-3.4-10.7s1.1-8.1,3.4-10.7a13.038,13.038,0,0,1,18.6,0C998.3,349.2,999.5,352.7,999.5,357.2Zm-4.8,0c0-3.6-.7-6.2-2.1-8a7.1,7.1,0,0,0-5.8-2.6,7.3,7.3,0,0,0-5.9,2.6c-1.4,1.7-2.1,4.4-2.1,8,0,3.5.7,6.1,2.1,7.9a7.783,7.783,0,0,0,11.7.1,13.635,13.635,0,0,0,2.1-8Z" fill="#fff"/>
        <path id="path1813" d="M1023.4,348.5h-.2a7.469,7.469,0,0,0-2-.3,15.519,15.519,0,0,0-2.3-.1,9.245,9.245,0,0,0-4.2,1,20.561,20.561,0,0,0-3.9,2.4v19.6h-4.7V343.5h4.7v4.1a20.372,20.372,0,0,1,4.9-3.1,11.06,11.06,0,0,1,4.3-.9,8.662,8.662,0,0,1,1.8.1,13.693,13.693,0,0,1,1.6.2Z" fill="#fff"/>
        <path id="path1815" d="M1047.9,371.1h-4.6v-2.9c-.4.3-1,.7-1.7,1.2a15.073,15.073,0,0,1-2,1.2,10.708,10.708,0,0,1-2.7.9,12.479,12.479,0,0,1-3.5.4,8.71,8.71,0,0,1-8.9-8.8,8.781,8.781,0,0,1,1.3-5.1,9.451,9.451,0,0,1,3.9-3.1,23.663,23.663,0,0,1,6.1-1.5c2.4-.3,4.9-.5,7.6-.6v-.7a5,5,0,0,0-.6-2.6,4.1,4.1,0,0,0-1.6-1.6,8.467,8.467,0,0,0-2.4-.8,26.416,26.416,0,0,0-2.9-.2,21.719,21.719,0,0,0-4.1.5,30.977,30.977,0,0,0-4.7,1.4h-.2V344c.9-.2,2.2-.5,3.9-.8a29.225,29.225,0,0,1,5.1-.4,25.917,25.917,0,0,1,5.1.5,10.9,10.9,0,0,1,3.8,1.6,8.491,8.491,0,0,1,2.4,2.9,11.692,11.692,0,0,1,.8,4.5v18.8Zm-4.6-6.9v-7.7c-1.4.1-3.1.2-5,.4a34.961,34.961,0,0,0-4.6.7,7.66,7.66,0,0,0-3.2,1.8,4.459,4.459,0,0,0-1.2,3.3,4.591,4.591,0,0,0,1.4,3.6,6.8,6.8,0,0,0,4.4,1.2,11.3,11.3,0,0,0,4.5-.9,29.237,29.237,0,0,0,3.7-2.4Z" fill="#fff"/>
        <path id="path1817" d="M1070.8,370.8c-.9.2-1.8.4-2.9.6-1,.1-1.9.2-2.7.2-2.8,0-5-.8-6.4-2.3-1.5-1.5-2.2-4-2.2-7.3V347.3h-3.1v-3.9h3.1v-7.9h4.7v7.9h9.6v3.9h-9.6v12.6a31.272,31.272,0,0,0,.1,3.4,6.155,6.155,0,0,0,.7,2.3,4.307,4.307,0,0,0,1.5,1.5,7.147,7.147,0,0,0,2.9.4,9.864,9.864,0,0,0,2.4-.3,9.3,9.3,0,0,0,1.8-.6h.2Z" fill="#fff"/>
        <path id="path1819" d="M1099.5,357.2c0,4.5-1.2,8.1-3.5,10.7a13.039,13.039,0,0,1-18.6,0c-2.3-2.6-3.4-6.2-3.4-10.7s1.1-8.1,3.4-10.7a13.039,13.039,0,0,1,18.6,0C1098.3,349.2,1099.5,352.7,1099.5,357.2Zm-4.8,0c0-3.6-.7-6.2-2.1-8a7.1,7.1,0,0,0-5.8-2.6,7.3,7.3,0,0,0-5.9,2.6c-1.4,1.7-2.1,4.4-2.1,8,0,3.5.7,6.1,2.1,7.9a7.783,7.783,0,0,0,11.7.1,13.634,13.634,0,0,0,2.1-8Z" fill="#fff"/>
        <path id="path1821" d="M1123.4,348.5h-.2a7.469,7.469,0,0,0-2-.3,15.519,15.519,0,0,0-2.3-.1,9.244,9.244,0,0,0-4.2,1,20.559,20.559,0,0,0-3.9,2.4v19.6h-4.7V343.5h4.7v4.1a20.374,20.374,0,0,1,4.9-3.1,11.06,11.06,0,0,1,4.3-.9,8.663,8.663,0,0,1,1.8.1,13.693,13.693,0,0,1,1.6.2Z" fill="#fff"/>
        <path id="path1823" d="M1151.2,343.4l-16.1,37.8h-5l5.1-11.5-11-26.3h5l8.5,20.5,8.6-20.5Z" fill="#fff"/>
      </g>
    </g>
  </g>
  <g id="Group_20" data-name="Group 20" transform="translate(-47.5 -66.9)">
    <g id="Group_19" data-name="Group 19">
      <path id="Path_207" data-name="Path 207" d="M47.5,285.9c.3-.1.4-.4.5-.7a6.59,6.59,0,0,1,1.1-2.4,4.263,4.263,0,0,1,4.8-1.6,5.5,5.5,0,0,1,3.1,2.7,10.092,10.092,0,0,1,.7,1.5A44.765,44.765,0,0,0,64,296.7a46.847,46.847,0,0,0,5.5,6.3c1.2,1.1,2.4,2.1,3.6,3.1a90.162,90.162,0,0,0,7.5,5.1,36.033,36.033,0,0,0,13,4.9c.7.1,1.4.1,2,.2,0,.1-.1.2-.1.4-1.2,2.1-2.3,4.3-3.5,6.4-1,1.8-1.9,3.6-2.9,5.5-.2.4-.3.8-.7,1-1-.3-1.9-.7-2.9-1-2.1-.8-4.3-1.5-6.4-2.3a45.156,45.156,0,0,1-4.9-2.5,49.429,49.429,0,0,1-4.9-3,46.926,46.926,0,0,1-8.8-7.2,41.434,41.434,0,0,1-5.1-6.6,55.826,55.826,0,0,1-6.6-16.2c-.3-1-.5-2-.8-3-.1-.3-.2-.6-.5-.7Z" fill="#fff"/>
      <path id="Path_208" data-name="Path 208" d="M262.2,67.1a1.421,1.421,0,0,0,.6.2,18.736,18.736,0,0,1,4.1.9A4.383,4.383,0,0,1,270,71a4,4,0,0,1-.8,4.4,3.766,3.766,0,0,1-1.5.9,6.753,6.753,0,0,1-1.4.2A25.913,25.913,0,0,0,258,78c-1.9.6-3.7,1.3-5.6,2a23.719,23.719,0,0,0-6.4,4c-1.7,1.4-3.5,2.8-5.2,4.2a35.939,35.939,0,0,0-3.8,4,58.769,58.769,0,0,0-5.2,7.8c-.5.8-.9,1.6-1.4,2.3a6.653,6.653,0,0,1-2.6-2.4c-.6-.7-1.2-1.4-1.8-2-1.2-1.1-2.4-2.2-3.7-3.2a17.8,17.8,0,0,0-3.1-2.3,1.205,1.205,0,0,1-.5-.5,26.734,26.734,0,0,1,5.7-6.4A30.7,30.7,0,0,0,227,83a85.889,85.889,0,0,1,9.1-7.9c1.2-.8,2.4-1.6,3.7-2.4a50.294,50.294,0,0,1,14-5.2,26.955,26.955,0,0,1,2.8-.4,1.8,1.8,0,0,0,1-.2A34.644,34.644,0,0,0,262.2,67.1Z" fill="#fff"/>
      <path id="Path_209" data-name="Path 209" d="M392.9,304.1a3.69,3.69,0,0,0-2.3.7c-2,.9-4,1.9-6.1,2.8l-10.8,4.8c-2.8,1.3-5.6,2.5-8.5,3.8-2.8,1.2-5.7,2.5-8.5,3.7a11.031,11.031,0,0,0-6,6,26.622,26.622,0,0,0-1.6,5.5,30.9,30.9,0,0,0-.5,8.6,55.8,55.8,0,0,0,.8,5.7c.7,4,1.5,7.9,2.2,11.9.6,3.3,1.3,6.6,1.9,10l.9,4.8a5.462,5.462,0,0,1-1.8-.1c-1.6-.4-3.2-.7-4.7-1.2-3.1-1.1-6.4-1.8-9.6-2.6,0-.4-.1-.8-.1-1.1-1-4.7-2-9.4-2.9-14.1-.5-2.4-.8-4.7-1.2-7.1l-.6-4.8c-.2-1.4-.3-2.8-.4-4.2a32.521,32.521,0,0,1,.2-5.4,44.813,44.813,0,0,1,1.4-7.3,45.346,45.346,0,0,1,4.6-10,23.3,23.3,0,0,1,5.6-6.1,26.14,26.14,0,0,1,6.8-3.6c3.9-1.4,7.7-3,11.4-4.6l7.5-3.3c2.3-1,4.6-2.1,6.9-3.1,1-.5,2-.9,3-1.4,1.5-.6,3-1.3,4.4-1.9a71.813,71.813,0,0,0,7.9-3.8l2.1-1.2c2.2-1.2,4.5-2.3,6.7-3.6a53.931,53.931,0,0,0,8.4-5.7,45.108,45.108,0,0,0,5.5-5.2c1.1-1.2,2.2-2.3,3.2-3.5a43.037,43.037,0,0,0,5.9-9.3,78.076,78.076,0,0,0,3.5-8.4,4.962,4.962,0,0,1,1.3-2.2,4.507,4.507,0,0,1,5.6,0,3.166,3.166,0,0,1,1.1,2.3,31.479,31.479,0,0,1-2,16.1c-.6,1.3-1.2,2.6-1.9,3.8a102.134,102.134,0,0,1-5.8,9.3,63.947,63.947,0,0,1-4.1,5,53.169,53.169,0,0,1-7,6.4c-.9.7-1.9,1.3-2.8,2-2.1,1.5-4.1,2.9-6.2,4.4a11.407,11.407,0,0,0-1.1,1.1c-.3.1-.7.3-1,.4-1.2.7-2.4,1.4-3.7,2a18.944,18.944,0,0,1-2.1.9c-1.4.6-2.8,1.2-4.2,1.9A1.743,1.743,0,0,0,392.9,304.1Z" fill="#fff"/>
      <path id="Path_210" data-name="Path 210" d="M271.7,416.4c2,1.8,4,3.6,6.1,5.3a24.281,24.281,0,0,0,3.2,2.4,77.92,77.92,0,0,0,11.1,6.7,65.8,65.8,0,0,0,8.3,3.4,23.935,23.935,0,0,0,4.6,1.2,17.532,17.532,0,0,0,5.6,0c1-.1,2-.3,3.1-.4H315a3.844,3.844,0,0,1,3.7,2.9,4.924,4.924,0,0,1-.5,4.4,2.337,2.337,0,0,1-.7.7,9.81,9.81,0,0,1-3.6,2,43.1,43.1,0,0,1-6.2,1.5,44.819,44.819,0,0,1-6.4.5,37.4,37.4,0,0,1-8.2-.8A58.309,58.309,0,0,1,286,444a59.38,59.38,0,0,1-12-6.9c-2.1-1.5-4.1-3.1-6.1-4.7-1.3-1-2.6-2.1-3.9-3.1-.3-.2-.5-.4-.9-.3-.1-.7-.6-1-1.1-1.4a9.19,9.19,0,0,1-2.2-2.2,9.265,9.265,0,0,0-1.4-1.4,26.158,26.158,0,0,1-4.6-4.8c-.2-.2-.3-.5-.6-.6a5.715,5.715,0,0,0-1.1-1.6,57.515,57.515,0,0,1-5.5-6.7c-2.2-3.2-4.4-6.5-6.6-9.7-1.3-1.9-2.7-3.9-4.2-5.7a30.661,30.661,0,0,0-4.9-4.6,31.412,31.412,0,0,0-4.6-2.8,16.233,16.233,0,0,0-4.2-1.5,37.174,37.174,0,0,0-6.6-.8c-1.7-.1-3.4-.2-5.1-.2a18.667,18.667,0,0,0-10,2.8c-1.4.8-2.8,1.5-4.2,2.2-4.2,2.2-8.3,4.4-12.5,6.6-1.6.8-3.1,1.7-4.6,2.5l-1.2.6v-3.3c-.4-1.4-.1-2.9-.4-4.3-.1-.6-.2-1.2-.3-1.7a18.654,18.654,0,0,1-.7-4,26.15,26.15,0,0,1,0-2.8,1.433,1.433,0,0,1,.5-1.1c.2-.2.4-.3.6-.5,1.6-1,3.3-2,5-3,1.4-.8,2.8-1.6,4.1-2.4a71.585,71.585,0,0,1,8.8-4.3,28.907,28.907,0,0,1,8-2.2,29.536,29.536,0,0,1,4.2-.2c1,0,2,.1,3,.1,2.2,0,4.5.1,6.7.1a34.87,34.87,0,0,1,8.5,1.2,46.868,46.868,0,0,1,10.1,4.2,32.647,32.647,0,0,1,6,4.3,58.262,58.262,0,0,1,8.5,9.4c2.4,3.2,4.7,6.6,7,9.8,1.6,2.2,3.1,4.4,4.7,6.6a9.147,9.147,0,0,0,.9,1.7c.6.8,1.4,1.6,2.1,2.4,2,2,4,4,5.9,6C271.1,416.2,271.3,416.4,271.7,416.4Z" fill="#fff"/>
      <path id="Path_211" data-name="Path 211" d="M176.7,382.7a1.433,1.433,0,0,0-.5,1.1v2.8a17.633,17.633,0,0,0,.7,4,12.234,12.234,0,0,1,.3,1.7c.3,1.4.1,2.9.4,4.3a3.352,3.352,0,0,1,0,1v2.3c.2,1.8.5,3.6.7,5.3a53.162,53.162,0,0,0,1.8,7.9,61.608,61.608,0,0,0,8.9,18.2c1,1.4,2.2,2.8,3.3,4.1a19.136,19.136,0,0,0,4.7,3.8c.9.6,1.7,1.2,2.5,1.8a8.748,8.748,0,0,1,2.1,2.2,3.863,3.863,0,0,1,.5,4,3.585,3.585,0,0,1-3.5,2.2,10.075,10.075,0,0,1-2.5-.3,52.032,52.032,0,0,1-7.7-3.2c-1.1-.6-2.2-1.3-3.3-1.9a30.684,30.684,0,0,1-7.5-6.4,38.639,38.639,0,0,1-4.4-6.2,61.817,61.817,0,0,1-4.7-10.1,114.608,114.608,0,0,1-3.4-11.4,4.778,4.778,0,0,0-1-2.3,9.863,9.863,0,0,0-.3-2.4,13.655,13.655,0,0,0-.7-2.9,24.654,24.654,0,0,1-1.1-5.4c-.2-1.4-.2-2.9-.3-4.3,0-2.1.1-4.1-.1-6.2-.1-1,0-2.1-.1-3.1,0-1.2-.2-2.3-.2-3.5a25.411,25.411,0,0,1,.1-3.9c.2-1.1.2-2.2.3-3.3a61.626,61.626,0,0,0,.3-9.6,23.537,23.537,0,0,0-3.9-12.3,33.7,33.7,0,0,0-4.6-5.4,29.884,29.884,0,0,0-6-4.6,46.552,46.552,0,0,0-6.3-3.2,46.406,46.406,0,0,0-7.3-2c-2.1-.3-4.2-.6-6.2-.9-2.1-.3-4.1-.6-6.2-.9s-4.1-.6-6.2-.9c-1.6-.2-3.2-.5-4.8-.7s-3.1-.4-4.7-.6a1.421,1.421,0,0,1-.6-.2,2.01,2.01,0,0,1,.4-1.3c1.2-2.4,2.5-4.8,3.7-7.1l1.5-2.7a10.267,10.267,0,0,1,1.9-2.6c1.3.1,2.6.2,4,.4,1.9.2,3.7.5,5.6.7,2.6.3,5.1.6,7.7.8q3.3.3,6.6.9a59,59,0,0,1,9,2.2,31.262,31.262,0,0,1,7.1,3.5c1.2.8,2.3,1.7,3.4,2.6l6.6,5.1a30.673,30.673,0,0,1,7.5,8.9,48.751,48.751,0,0,1,3.8,8,40.306,40.306,0,0,1,2.6,13.3v5.8c0,1.9-.1,3.8-.2,5.7v6.8C176.3,382.6,176.5,382.6,176.7,382.7Z" fill="#fff"/>
      <path id="Path_212" data-name="Path 212" d="M271.7,416.4c-.4,0-.6-.2-.9-.5-2-2-4-4-5.9-6a24.049,24.049,0,0,1-2.1-2.4,9.147,9.147,0,0,1-.9-1.7,5.973,5.973,0,0,0,.6-1.1,24.424,24.424,0,0,1,1-2.4c1.5-3.5,3.1-7,4.7-10.4a119.266,119.266,0,0,1,6.9-13.3,48.318,48.318,0,0,1,5.4-7.2,34.415,34.415,0,0,1,7.5-6.2,23.4,23.4,0,0,1,5.6-2.5,60.946,60.946,0,0,1,7.2-1.4,26.565,26.565,0,0,1,6.3-.1,43.433,43.433,0,0,1,6.1,1.1c3.5.8,7.1,1.7,10.6,2.6,3.2.8,6.4,1.6,9.6,2.5a45.424,45.424,0,0,0,5.1.9,80.06,80.06,0,0,1,9.6,2.6,24.927,24.927,0,0,0,4.7,1.2c.6.1,1.2,0,1.8.1,1.1.3,2.1.6,3.2.8,2.6.4,5.3.7,7.9,1.1,2,.3,4.1.7,6.1.9s4.1.6,6.1.6a23.219,23.219,0,0,0,9-1.7q4.05-1.65,8.1-3.6a5.674,5.674,0,0,0,1.8-1.2c2.4-2.2,5.1-4.2,7.6-6.3a5.7,5.7,0,0,1,2.2-1.1,2.817,2.817,0,0,1,2.2.3,2.775,2.775,0,0,1,1.4,1.6,6.639,6.639,0,0,1,0,4.4,10.232,10.232,0,0,1-2,3.7,53.66,53.66,0,0,1-8.4,8.1,67.012,67.012,0,0,1-8.3,5.6,40.909,40.909,0,0,1-5.1,2.6,30.1,30.1,0,0,1-6.7,1.8,15.6,15.6,0,0,1-4.3.3,16.351,16.351,0,0,0-2.2-.2c-1,0-2,.1-3.1.2a45.56,45.56,0,0,1-7.4-.1,36.319,36.319,0,0,1-4.5-1,14.158,14.158,0,0,0-2-.4,7.335,7.335,0,0,0-2-.5,19.091,19.091,0,0,1-3.3-.6c-2.3-.5-4.7-1-7-1.5a6.962,6.962,0,0,0-2.5-.5l-3.9-1.2c-4.1-1.1-8.3-2.1-12.5-3.1-3.6-.9-7.2-1.7-10.8-2.7-2-.5-4-1.1-5.9-1.7a21.273,21.273,0,0,0-7.5-.7,13.192,13.192,0,0,0-8.5,3.9,51.2,51.2,0,0,0-6,7.1,57.29,57.29,0,0,0-3.5,5.9c-3,6.1-6.1,12.2-9.1,18.3-.5,1-1,2-1.4,3A19.145,19.145,0,0,1,271.7,416.4Z" fill="#fff"/>
      <path id="Path_213" data-name="Path 213" d="M112.6,317.7a11.526,11.526,0,0,0-1.9,2.6l-1.5,2.7c-1.2,2.4-2.5,4.8-3.7,7.1a2.01,2.01,0,0,0-.4,1.3,11.928,11.928,0,0,0-2.1,2.9,45.308,45.308,0,0,0-4.3,9.5,40.176,40.176,0,0,0-1.6,7.5c-.2,1.8-.5,3.6-.6,5.4a41.8,41.8,0,0,0,.2,5c.1,1,.3,1.9.4,2.9a15.483,15.483,0,0,1,.1,2.2,17.547,17.547,0,0,0,.5,4.6l.9,3.9a39.561,39.561,0,0,0,1.5,4.5,7.2,7.2,0,0,1,.6,4.8,3.6,3.6,0,0,1-1.6,2.4,8.486,8.486,0,0,1-2.6,1.1,2.879,2.879,0,0,1-1.3-.1,4.773,4.773,0,0,1-2.6-1.6,17.392,17.392,0,0,1-2.7-3.8c-1.6-2.9-3.3-5.8-4.9-8.8a23.207,23.207,0,0,1-3-9.2c-.1-1-.2-2-.2-2.9-.1-1.2-.2-2.5-.2-3.7a66.2,66.2,0,0,1,.4-7.7,49.524,49.524,0,0,1,1.3-7.7,39.12,39.12,0,0,1,2.4-6.5c.8-1.7,1.5-3.4,2.3-5.2a5.274,5.274,0,0,0,.3-1.2c.4-.2.5-.6.7-1,1-1.8,1.9-3.6,2.9-5.5,1.1-2.2,2.3-4.3,3.5-6.4.1-.1.1-.2.1-.4.8-1.2,1.6-2.3,2.3-3.5,2.9-4.9,5.8-9.7,8.7-14.6,1.5-2.5,3-5,4.4-7.6a34.884,34.884,0,0,0,3.4-8.8,11.5,11.5,0,0,0-.2-6.1,28.54,28.54,0,0,0-3.4-7.3,39.829,39.829,0,0,0-4.6-6.2c-1.7-1.8-3.3-3.7-5-5.5-1.7-1.9-3.5-3.7-5.2-5.5-1.8-1.9-3.7-3.8-5.5-5.8-1.3-1.4-2.7-2.8-4-4.2-.3-.3-.7-.5-1-.8a1.143,1.143,0,0,1,.7-.8c1.7-.7,3.4-1.4,5-2.2,1.5-.7,3.1-1.4,4.6-2.1a4.557,4.557,0,0,1,2.6-.6,4.825,4.825,0,0,0,1.5,2.2c1.7,1.5,3.5,3.1,5.2,4.6,1.8,1.6,3.7,3.2,5.5,4.8,1.9,1.7,3.8,3.5,5.7,5.2a58.978,58.978,0,0,1,5,5,32.206,32.206,0,0,1,6.6,12.7,35.728,35.728,0,0,1,1.1,6.4,39.468,39.468,0,0,1-.2,9.1,19.579,19.579,0,0,1-2,6.2c-.7,1.5-1.4,2.9-2.1,4.4a130.477,130.477,0,0,1-7.6,14.3c-1.4,2.4-2.9,4.8-4.3,7.2A.8.8,0,0,1,112.6,317.7Z" fill="#fff"/>
      <path id="Path_214" data-name="Path 214" d="M395.3,285.3l-2.1,1.2a57.369,57.369,0,0,1-7.9,3.8c-1.5.6-3,1.3-4.4,1.9a1.268,1.268,0,0,0-.1-.6,7.008,7.008,0,0,0-.8-1c-3.7-3.8-7.4-7.5-11-11.3-1.6-1.7-3.2-3.4-4.7-5.2a31.105,31.105,0,0,1-5.2-9,52.672,52.672,0,0,1-1.9-6.8,55.566,55.566,0,0,1-.8-7v-.8a19.418,19.418,0,0,0,.2-2.4,29.565,29.565,0,0,1,.6-5.2,38.9,38.9,0,0,1,3.6-10.4c1.2-2.5,2.6-4.9,3.9-7.4,2.3-4.4,4.7-8.9,7-13.3.8-1.4,1.4-2.9,2.1-4.4a4.053,4.053,0,0,0,.5-.9c.5-.9.9-1.8,1.4-2.8.9-2,1.8-4,2.7-5.9.6-1.3,1.2-2.6,1.8-3.8a1.431,1.431,0,0,0,.3-1.1c1.9-5.1,3.5-10.3,4.9-15.5a86.323,86.323,0,0,0,2-8.8q.75-4.05,1.2-8.1a64.809,64.809,0,0,0,.4-8.8,3.4,3.4,0,0,0-.1-1,8.784,8.784,0,0,1,.6-4.8,26.041,26.041,0,0,1,1-2.5c.2-.5.3-.6.7-.4a37.27,37.27,0,0,1,3.5,1.6,6.393,6.393,0,0,1,2.7,2.7,15.506,15.506,0,0,1,1.3,3.6c.5,2.6.9,5.2,1.4,7.8.2,1.2.4,2.4.6,3.5a38.6,38.6,0,0,1,.3,9.6,66.789,66.789,0,0,1-1.7,8.7c-1.2,4.8-2.4,9.6-3.6,14.3-.1.4.2.5.4.7a.849.849,0,0,0-.8.7c-.6,1.8-1.2,3.6-1.8,5.3a38.093,38.093,0,0,1-2.7,6.6,5.637,5.637,0,0,0-.4,1.2,12.7,12.7,0,0,0-1,1.2c-1.6,2.6-3.3,5.1-4.9,7.7-2.7,4.3-5.3,8.6-7.9,12.9-1.8,3-3.6,5.9-5.3,9-.8,1.5-1.5,3.1-2.2,4.6a13.231,13.231,0,0,0-.5,9.2,20.2,20.2,0,0,0,3.4,6.7,71.879,71.879,0,0,0,6.6,8c1.8,1.9,3.5,3.7,5.3,5.6,1,1,1.9,2.1,2.9,3,1.4,1.4,2.9,2.8,4.4,4.2A50.8,50.8,0,0,0,395.3,285.3Z" fill="#fff"/>
      <path id="Path_215" data-name="Path 215" d="M161.7,392.6c.1,1.4.1,2.9.3,4.3a25.9,25.9,0,0,0,1.1,5.4,24.6,24.6,0,0,1,.7,2.9,9.863,9.863,0,0,1,.3,2.4c-1.9,1-3.8,2.1-5.8,3.1a49.3,49.3,0,0,1-7.5,3.1,34.965,34.965,0,0,1-7.1,1.7c-.9.1-1.9.2-2.8.3a69.134,69.134,0,0,1-9.1.2,50.208,50.208,0,0,1-10.9-1.5,42.586,42.586,0,0,1-9.2-3.5,31.851,31.851,0,0,1-8-6.2,49.284,49.284,0,0,1-4.2-4.9,5.116,5.116,0,0,1-1-4.6,3.187,3.187,0,0,1,1.8-2.4,6.03,6.03,0,0,1,7.2.8,36.789,36.789,0,0,0,4.4,3.4,11.783,11.783,0,0,0,1.9,1.1,24.305,24.305,0,0,0,6.5,1.9c2,.2,4,.4,6,.5,2.1.1,4.2.4,6.3.4a65.924,65.924,0,0,0,7.7,0,26.963,26.963,0,0,0,8.8-2.1,57.862,57.862,0,0,0,6.7-3.1c1.5-.8,3-1.7,4.4-2.6A4.713,4.713,0,0,0,161.7,392.6Z" fill="#fff"/>
      <path id="Path_216" data-name="Path 216" d="M253.1,418.9a.9.9,0,0,1,.6.6,26.156,26.156,0,0,0,4.6,4.8,6.2,6.2,0,0,1,1.4,1.4,9.19,9.19,0,0,0,2.2,2.2,1.985,1.985,0,0,1,1.1,1.4c-.6.8-1.1,1.5-1.7,2.3l-6,7.5a77.665,77.665,0,0,1-6.5,7.5c-1,1-2.2,2-3.3,2.9a37.3,37.3,0,0,1-8.5,5.2,26.925,26.925,0,0,1-6.1,1.9c-.2,0-.3.1-.5.1-4.3,0-8.6.5-12.9.3a37.391,37.391,0,0,1-6.6-.9,11.725,11.725,0,0,1-2.4-.9,3.179,3.179,0,0,1-1.6-3.9,5.887,5.887,0,0,1,2.8-3.4,11.76,11.76,0,0,1,3-1c3-.7,6.1-1.4,9.1-2.1,1.4-.3,2.8-.7,4.2-1.1a30.588,30.588,0,0,0,10.4-5.1,49.192,49.192,0,0,0,7.9-7.9c2.3-2.8,4.3-5.7,6.5-8.7A35.531,35.531,0,0,1,253.1,418.9Z" fill="#fff"/>
      <path id="Path_217" data-name="Path 217" d="M341.5,385.7a6.962,6.962,0,0,1,2.5.5c2.3.5,4.7,1,7,1.5,1.1.2,2.2.5,3.3.6a7.335,7.335,0,0,1,2,.5c0,.9.1,1.7.1,2.6,0,3.9.1,7.7,0,11.6a60.491,60.491,0,0,1-1.4,10.4,44.483,44.483,0,0,1-8.3,17.9,45.085,45.085,0,0,1-4.7,5.1c-1.8,1.6-3.8,2.9-5.7,4.3a3.153,3.153,0,0,1-2.8.5,6.959,6.959,0,0,1-4.2-3.3,3.6,3.6,0,0,1,.3-4.3c1.5-2,2.8-4.1,4.1-6.2l3-4.5a28.665,28.665,0,0,0,5.7-15.3c.2-2.6.3-5.1.3-7.7a49.042,49.042,0,0,0-.4-5.4c-.1-1-.2-2-.3-3.1A54.818,54.818,0,0,1,341.5,385.7Z" fill="#fff"/>
      <path id="Path_218" data-name="Path 218" d="M390.1,209.3a5.639,5.639,0,0,1,.4-1.2,38.093,38.093,0,0,0,2.7-6.6c.6-1.8,1.2-3.6,1.8-5.3a.969.969,0,0,1,.8-.7,2.768,2.768,0,0,1,.9.1c2.9.7,5.9,1.3,8.8,2a38.736,38.736,0,0,1,10.6,4.3,49.3,49.3,0,0,1,5.3,3.6c1,.8,2.1,1.5,3.1,2.2a30.82,30.82,0,0,1,5.9,5.5,45.429,45.429,0,0,1,4.5,6.9,16.272,16.272,0,0,1,1.3,3.7c.3,1.3.6,2.7.9,4,.1.5.1.9.2,1.4v4.6a11.562,11.562,0,0,1-.8,3.2,3.252,3.252,0,0,1-5.3,1.2,5.368,5.368,0,0,1-1.9-3.7,20.014,20.014,0,0,0-5.1-11,34.982,34.982,0,0,0-9.5-7.6c-2-1.1-4.1-1.9-6.2-2.8a63.593,63.593,0,0,0-8.5-2.5,41.664,41.664,0,0,0-4.9-.8A40.31,40.31,0,0,1,390.1,209.3Z" fill="#fff"/>
      <path id="Path_219" data-name="Path 219" d="M392.9,304.1c.3-.7,1-.9,1.6-1.2,1.4-.6,2.8-1.2,4.2-1.9l2.1-.9c1.2-.7,2.4-1.4,3.7-2a4.179,4.179,0,0,1,1-.4,12.619,12.619,0,0,1,2.5,3.2c2,3,4.1,5.9,6,8.9a49.939,49.939,0,0,1,2.9,5,29.717,29.717,0,0,1,2.6,7.6c.4,1.8.7,3.5,1,5.3a19.267,19.267,0,0,1,.1,2.4,40.281,40.281,0,0,1-1,9.8,107.839,107.839,0,0,1-2.8,11.2c-.3,1-.7,1.9-1.1,2.9a4.726,4.726,0,0,1-3.8,2.7,2.161,2.161,0,0,1-2.2-1,6.284,6.284,0,0,1-1.2-3.7,31.872,31.872,0,0,1,.2-6.9c.4-2.4.7-4.8,1-7.2a21.757,21.757,0,0,0,.1-7.2c-.1-.6-.1-1.2-.2-1.8a16.754,16.754,0,0,0-2.2-6c-.7-1.3-1.4-2.7-2-4a19.906,19.906,0,0,0-3.6-5c-2.6-2.7-5.2-5.4-7.8-8.2C393.7,305.3,393.4,304.7,392.9,304.1Z" fill="#fff"/>
      <path id="Path_220" data-name="Path 220" d="M106.5,385.2a4.053,4.053,0,0,1,1.6-3.7c.9-.8,1.9-1.6,2.8-2.4l3.6-3c1.9-1.6,3.8-3.1,5.8-4.7,1.9-1.6,3.8-3.2,5.8-4.7,2-1.6,4-3,6-4.6,1.9-1.5,3.8-3.1,5.7-4.6l5.7-4.8c.9-.7,1.7-1.5,2.5-2.2s1.7-1.4,2.5-2a4.28,4.28,0,0,1,2.9-.8,2.658,2.658,0,0,1,2.1,1,3.373,3.373,0,0,1,.9,3.2,7.8,7.8,0,0,1-2.9,4.6l-6,4.8c-1.8,1.4-3.5,2.9-5.2,4.4-1.8,1.5-3.6,2.9-5.3,4.4-1.3,1-2.5,2.1-3.7,3.1-1,.8-2,1.6-3,2.5-1.5,1.2-2.9,2.4-4.3,3.6-2.1,1.8-4.2,3.6-6.4,5.3-1.6,1.3-3.4,2.5-5,3.8a4.961,4.961,0,0,1-3.9.7,2.216,2.216,0,0,1-1.7-1.4A3.9,3.9,0,0,1,106.5,385.2Z" fill="#fff"/>
      <path id="Path_221" data-name="Path 221" d="M354.6,329a2.383,2.383,0,0,1,.5-1.8,2.7,2.7,0,0,1,3.1-1,16.518,16.518,0,0,1,4.1,1.8l5.4,3c3,1.7,5.9,3.4,8.9,5.1,3.8,2.1,7.6,4.3,11.4,6.4,2.5,1.4,5,2.9,7.6,4.4,1.2.7,2.5,1.4,3.7,2a3.951,3.951,0,0,1,2,2.7,2.879,2.879,0,0,1-.1,1.3,3.971,3.971,0,0,1-2.7,3.3,1.387,1.387,0,0,1-.9,0c-.5-.2-1.1-.4-1.5-.6-2.1-1.1-4.1-2.2-6.2-3.3-1.3-.7-2.6-1.4-3.8-2.1-3.1-1.7-6.3-3.4-9.4-5.1-3.3-1.8-6.5-3.6-9.7-5.5-2.4-1.4-4.8-2.9-7.2-4.3-.8-.5-1.6-.9-2.5-1.4A5.242,5.242,0,0,1,354.6,329Z" fill="#fff"/>
      <path id="Path_222" data-name="Path 222" d="M221.3,393.3a15.433,15.433,0,0,1-.6,4.8c-.5,2.9-1.2,5.8-1.7,8.7-.8,4.3-1.7,8.6-2.5,12.8-.5,2.7-1.1,5.5-1.6,8.2-.5,2.8-1.1,5.5-1.7,8.3a15.526,15.526,0,0,1-.4,2.1,3.485,3.485,0,0,1-4.2,2.8,9.829,9.829,0,0,1-1.6-.5,2.212,2.212,0,0,1-1.4-2.3,13.329,13.329,0,0,1,.3-2.8c.8-4.3,1.6-8.6,2.4-12.8,1-5,1.9-10.1,2.9-15.1.9-4.4,1.8-8.9,2.7-13.3.2-1,.4-1.9.6-2.9a3.944,3.944,0,0,1,3.1-3.2c.6-.1,1.2-.3,1.7-.4a.807.807,0,0,1,.9.4,3.552,3.552,0,0,1,.4.9A10.515,10.515,0,0,1,221.3,393.3Z" fill="#fff"/>
      <path id="Path_223" data-name="Path 223" d="M420.2,240.8h1.4a2.893,2.893,0,0,1,3.2,2.5,4.528,4.528,0,0,1-.4,3,2.471,2.471,0,0,1-2,1.4c-1.6.2-3.2.3-4.8.5a9.852,9.852,0,0,1-1.7.2c-1.9.2-3.9.5-5.9.7l-3.6.3c-1.2.1-2.5.3-3.7.4h-.4l-4.5.3c-.7.1-1.4.2-2,.3-1.1.1-2.3.3-3.4.4s-2.1.2-3.2.3c-1.4.1-2.7.3-4.1.5-1,.1-2,.2-3.1.3a12.251,12.251,0,0,1-1.9.2c-1.2,0-2.5.1-3.7,0A2.755,2.755,0,0,1,374,250a3.844,3.844,0,0,1,1.1-4.4,2.384,2.384,0,0,1,1.1-.6c1.1-.2,2.3-.4,3.4-.5,2-.3,4.1-.5,6.1-.7,1.1-.1,2.3-.2,3.4-.3,1-.1,2-.2,2.9-.3,1.9-.2,3.7-.5,5.6-.7,1.3-.1,2.6-.2,4-.3,1.3-.1,2.6-.3,4-.4a.9.9,0,0,0,.5-.1c1.6-.1,3.2-.2,4.9-.3,2.3-.2,4.6-.5,6.9-.7a9.063,9.063,0,0,0,2.3.1Z" fill="#fff"/>
      <path id="Path_224" data-name="Path 224" d="M314.4,429.2c-1.8,0-1.9,0-2.6-1.7a14.26,14.26,0,0,1-.9-2.7c-1.3-4.6-2.5-9.2-3.8-13.7-1.3-5-2.7-9.9-4-14.9-.8-3.1-1.6-6.2-2.5-9.3-.3-1-.5-2.1-.8-3.1a.854.854,0,0,1,0-.7,4.444,4.444,0,0,1,3.8-2.9,3.332,3.332,0,0,1,3.5,2.1c.4,1.1.7,2.1,1,3.2.9,3.2,1.7,6.4,2.6,9.7,1.3,4.8,2.5,9.7,3.8,14.5,1.1,4.2,2.2,8.4,3.3,12.5l.6,1.8a4.27,4.27,0,0,1,.1,2.5c-.3,1.8-1.6,2.4-3.1,2.6A1.729,1.729,0,0,1,314.4,429.2Z" fill="#fff"/>
      <path id="Path_225" data-name="Path 225" d="M124.5,341.7a5.331,5.331,0,0,1,3.4,1.1,3.279,3.279,0,0,1,1,3.7,5.175,5.175,0,0,1-1.9,2.7c-3.4,2.6-6.8,5.3-10.1,7.9-1.9,1.5-3.7,3-5.5,4.4a15.209,15.209,0,0,1-5.2,2.7c-.4.1-.8.1-1.1.2a2.09,2.09,0,0,1-2.1-1.1c-1.4-2.3-1.2-4.5,1-6.3,2-1.6,4-3.3,5.9-4.9,1.4-1.1,2.7-2.2,4.1-3.3,1.7-1.4,3.4-2.8,5.1-4.1l3.3-2.4A2.975,2.975,0,0,1,124.5,341.7Z" fill="#fff"/>
      <path id="Path_226" data-name="Path 226" d="M401.4,329.9a3.73,3.73,0,0,1-.4,1.6,3.23,3.23,0,0,1-3.6,1.6,11.742,11.742,0,0,1-3.2-1.5,3.508,3.508,0,0,1-.8-.5c-3.1-1.6-6.1-3.2-9.2-4.9-2.2-1.2-4.4-2.4-6.5-3.6a24.159,24.159,0,0,1-3.6-2.7,1.651,1.651,0,0,1-.5-1.5,15.524,15.524,0,0,0,.4-2.1,2.377,2.377,0,0,1,1.7-1.9,5.051,5.051,0,0,1,4,.2c1.3.6,2.6,1.4,3.9,2.1,1.5.8,3.1,1.7,4.6,2.5s3.1,1.7,4.6,2.5c1.6.9,3.3,1.7,4.9,2.5a18.747,18.747,0,0,1,1.8,1.2A5.264,5.264,0,0,1,401.4,329.9Z" fill="#fff"/>
      <path id="Path_227" data-name="Path 227" d="M155.6,378.2a2.174,2.174,0,0,1-.8,2l-3.6,3.3c-1.1.9-2.1,1.8-3.2,2.8-1,.9-2.1,1.8-3.1,2.7-.9.8-1.7,1.6-2.6,2.3-1.5,1.3-3.1,2.5-4.6,3.7-.5.4-.9.7-1.4,1.1a1.66,1.66,0,0,1-1.9.2,4.774,4.774,0,0,1-2.2-1.8,5.238,5.238,0,0,1-1-2.6,3,3,0,0,1,1-2.7c.8-.8,1.7-1.5,2.5-2.2a34.673,34.673,0,0,0,2.9-2.5c1.8-1.6,3.5-3.2,5.3-4.7,2.1-1.8,4.3-3.5,6.5-5.2a4.052,4.052,0,0,1,3.2-.7,1.91,1.91,0,0,1,.8.3A4.611,4.611,0,0,1,155.6,378.2Z" fill="#fff"/>
      <path id="Path_228" data-name="Path 228" d="M382,229.1c.1-.6.1-1.1.2-1.6a3.21,3.21,0,0,1,3.1-2.3c1.6-.1,3.2-.2,4.7-.3,1.7-.1,3.5-.3,5.2-.4h.6a44.014,44.014,0,0,0,5.1-.5,38.288,38.288,0,0,1,4.7-.3,7.434,7.434,0,0,1,4.7,1.8,2.184,2.184,0,0,1,1,2.1v.8a3.242,3.242,0,0,1-3,3.1H408l-6,.3c-1.4.1-2.8.3-4.2.4h-.1c-1.5.1-3.1.2-4.6.3a42.331,42.331,0,0,0-5,.5h-.4a29.839,29.839,0,0,1-4.2-.4,1.594,1.594,0,0,1-1.4-1.3A7.543,7.543,0,0,0,382,229.1Z" fill="#fff"/>
      <path id="Path_229" data-name="Path 229" d="M200.7,403.1a3.749,3.749,0,0,1-.1,1.1l-2.1,9.9c-.5,2.2-.9,4.3-1.4,6.5a20.317,20.317,0,0,1-1.4,3.9,3.935,3.935,0,0,1-3.7,2.4,2.9,2.9,0,0,1-2.5-1.2,4.032,4.032,0,0,1-.9-3.5c.5-2.4,1-4.9,1.5-7.3l1.8-8.7c.3-1.3.5-2.7.8-4a5.05,5.05,0,0,1,1.4-2.7,3.182,3.182,0,0,1,3.1-.6,5.735,5.735,0,0,1,1.9,1A3.336,3.336,0,0,1,200.7,403.1Z" fill="#fff"/>
      <path id="Path_230-2" data-name="Path 230" d="M383.9,362.9a3.374,3.374,0,0,1-.4,1.2,7.509,7.509,0,0,1-2.2,2.5,2.029,2.029,0,0,1-2,.1c-1-.5-1.9-.9-2.9-1.4-2.3-1.1-4.6-2.2-6.9-3.4-1.6-.8-3.1-1.6-4.7-2.4-.6-.3-1.3-.6-1.9-.9-1.4-.7-2.7-1.4-4.1-2.1a4.484,4.484,0,0,1-2-4.8,2.738,2.738,0,0,1,1.9-2c.6-.2,1.3-.3,2-.5a.9.9,0,0,1,.5.1,6.983,6.983,0,0,1,2,.8c1.4.7,2.8,1.5,4.2,2.2s2.8,1.4,4.1,2.1c1.9,1,3.8,1.9,5.7,2.9,1.3.7,2.6,1.3,3.9,2a6.1,6.1,0,0,1,1.6,1.2A2.623,2.623,0,0,1,383.9,362.9Z" fill="#fff"/>
      <path id="Path_231" data-name="Path 231" d="M297.4,422.9c0,1.8-1.4,3.2-2.9,2.9a3.152,3.152,0,0,1-1.7-.9,11.777,11.777,0,0,1-2.3-2.7,25.323,25.323,0,0,1-2.9-6.5c-1.1-3.9-2.3-7.7-3.4-11.6a10.548,10.548,0,0,1-.5-1.9,2.916,2.916,0,0,1,.8-2.9,5.594,5.594,0,0,1,5.1-1.4,2.428,2.428,0,0,1,1.7,1.4,7.837,7.837,0,0,1,.5,1.4c.8,3.2,1.7,6.4,2.5,9.5l3,11.7A5.844,5.844,0,0,0,297.4,422.9Z" fill="#fff"/>
      <path id="Path_232" data-name="Path 232" d="M391.7,270.2a4.283,4.283,0,0,1-3.9-2.6,2.324,2.324,0,0,1-.1-2,4.968,4.968,0,0,1,1.3-1.9,3.255,3.255,0,0,1,2.3-1c2.1-.2,4.2-.5,6.4-.7,1.7-.2,3.5-.4,5.2-.6,1.8-.2,3.7-.3,5.5-.5,1-.1,1.9-.3,2.9-.4a4.3,4.3,0,0,1,4.6,2.6,1.962,1.962,0,0,1,.1,1.5l-.3.9a2.8,2.8,0,0,1-2.2,2c-1.5.3-2.9.5-4.4.8-1.9.3-3.8.5-5.7.7l-3.3.3a9.971,9.971,0,0,1-1.6.2c-1.9.2-3.8.5-5.7.7Z" fill="#fff"/>
      <path id="Path_233" data-name="Path 233" d="M322.6,390.1a9.007,9.007,0,0,1,.3-1.6,3.845,3.845,0,0,1,3-2.2,5.013,5.013,0,0,1,1.7.1,3.3,3.3,0,0,1,2.6,2.8c.9,3.8,2.2,7.5,3.4,11.2.8,2.7,1.7,5.4,2.6,8.1a3.507,3.507,0,0,1-.2,3.3.764.764,0,0,0-.2.5c0,.9-.6,1.1-1.4,1.2a7.719,7.719,0,0,0-1.5.2,1.682,1.682,0,0,1-1.7-.9c-.5-.9-1-1.8-1.4-2.7-.8-1.9-1.7-3.9-2.4-5.8-1.2-3.2-2.4-6.5-3.6-9.8-.3-.8-.5-1.6-.7-2.3A6.322,6.322,0,0,1,322.6,390.1Z" fill="#fff"/>
      <path id="Path_234" data-name="Path 234" d="M236.4,411.1a2.252,2.252,0,0,1-.1.7c-.4,2.4-.9,4.9-1.3,7.3-.5,2.6-.9,5.1-1.4,7.7a19.2,19.2,0,0,1-.3,2.2,5.368,5.368,0,0,1-2.1,3.4,5.244,5.244,0,0,1-1.8,1,2.258,2.258,0,0,1-2.1-.2,3.022,3.022,0,0,1-1.4-1.9,8.879,8.879,0,0,1-.1-2.3c.2-1.5.5-3,.7-4.4.4-2.2.7-4.4,1.1-6.6.3-1.8.6-3.6,1-5.4.2-1,.4-1.9.7-2.9a3.79,3.79,0,0,1,.6-1.3,3.033,3.033,0,0,1,3.1-1c.4.1.7.2,1.1.3C235.8,408.4,236.5,409.4,236.4,411.1Z" fill="#fff"/>
      <path id="Path_235" data-name="Path 235" d="M98.5,234.7a4.958,4.958,0,0,0-2.6.6c-1.6.7-3.1,1.4-4.6,2.1-1.7.7-3.3,1.5-5,2.2a1.12,1.12,0,0,0-.7.8c-1.1.5-2.3,1-3.4,1.6a39.565,39.565,0,0,0-7.7,5.1,34.061,34.061,0,0,0-4.7,4.6,32.573,32.573,0,0,0-6.3,10.4c-1.1,3-2.1,6-3.2,9-.2.6-.4,1.1-.6,1.7a4.751,4.751,0,0,1-2,2.4,2.546,2.546,0,0,1-2.1.4,5.816,5.816,0,0,1-2.5-1.2,4.829,4.829,0,0,1-1.7-3.1,30.285,30.285,0,0,1-.2-3.1c0-1.7-.1-3.4,0-5.1a26.006,26.006,0,0,1,1-6.8,40.027,40.027,0,0,1,3.6-8.2,50.413,50.413,0,0,1,3.1-4.9,40.308,40.308,0,0,1,2.6-3.2c1.3-1.5,2.7-2.9,4.1-4.3a42.6,42.6,0,0,1,8.8-6.9,3.249,3.249,0,0,0,1.3-1,.749.749,0,0,0,.5-.1,17.6,17.6,0,0,0,2-.9c3-1.5,6-3,9.1-4.3a7.934,7.934,0,0,0,2.5-1.5,58.292,58.292,0,0,0,5.8-2.3,16.268,16.268,0,0,0,2.3-1.1c3.2-1.4,6.3-2.8,9.5-4.2,3.2-1.5,6.5-3,9.7-4.4l6-2.7c2.2-1.1,4.5-2.1,6.7-3.3a12.062,12.062,0,0,0,6-7.1,19.113,19.113,0,0,0,1-5.3c.1-2.6.1-5.1,0-7.7a37.757,37.757,0,0,0-.6-4.7c-.2-1.7-.5-3.4-.7-5.1s-.5-3.4-.7-5.1v-.4c-.1-1.9-.2-3.9-.3-5.8-.1-2.2-.3-4.4-.4-6.7a5.7,5.7,0,0,0-.1-1.3c1,.2,1.9.4,2.9.6l9,2.4c1.2.3,2.4.7,3.7,1.1a32.522,32.522,0,0,0,.2,5.4l.9,6.9c.4,2.9.9,5.8,1.2,8.6.3,2.4.4,4.8.5,7.2a54.761,54.761,0,0,1-.1,8.1c-.2,1.4-.4,2.9-.7,4.3a29.57,29.57,0,0,1-9.7,15.4,37.3,37.3,0,0,1-8.5,5.2c-2.5,1.2-5,2.3-7.5,3.4-1.6.7-3.2,1.4-4.8,2.2-2.3,1.1-4.7,2.1-7,3.2-1.7.8-3.3,1.6-5,2.3-2.4,1.1-4.8,2.1-7.2,3.2C100.6,233.9,99.5,234.3,98.5,234.7Z" fill="#fff"/>
      <path id="Path_236" data-name="Path 236" d="M149.5,158c-1.2-.4-2.4-.7-3.7-1.1l-9-2.4c-.9-.2-1.9-.4-2.9-.6-2-.3-4-.7-5.9-1s-3.7-.6-5.6-.9a21.3,21.3,0,0,0-2.5-.3c-1.4-.1-2.7-.2-4.1-.3-2-.1-4-.3-6-.4a28.136,28.136,0,0,0-8.2.6,39.63,39.63,0,0,0-9.5,3.3,69.5,69.5,0,0,0-8.3,4.9,7.618,7.618,0,0,1-2.9,1.3,5.131,5.131,0,0,1-5.8-3.6,5.3,5.3,0,0,1,.3-3.9,13.558,13.558,0,0,1,2.3-3.4,30.12,30.12,0,0,1,8.1-6.5,58.878,58.878,0,0,1,7.7-3.5,74.343,74.343,0,0,1,10.3-2.7c.7-.1,1.4-.2,2.2-.3a56.8,56.8,0,0,1,9.2-.2h1.4a21.567,21.567,0,0,1,4.4,0c1,.1,2,.2,3.1.3,2,.2,4.1.5,6.1.7l3.3.3a1.421,1.421,0,0,0,.6.2h1.8a1.268,1.268,0,0,1,.6.1c1.7.4,3.4.9,5.1,1.3,1.4.4,2.9.7,4.4,1,2.2.5,4.3,1.1,6.4,1.6,2.4.6,4.8,1.3,7.2,1.9,3.1.8,6.3,1.7,9.4,2.4a65.273,65.273,0,0,0,7.7,1.4,71.233,71.233,0,0,0,8,.2,4.448,4.448,0,0,0,2.9-1.4,9.579,9.579,0,0,0,2-2.5c.8-1.7,1.7-3.5,2.5-5.2,2-4.6,4.1-9.3,6.1-13.9,1.1-2.6,2.2-5.3,3.4-7.9a68.993,68.993,0,0,1,4.3-8.6c1-1.6,2.1-3.1,3.1-4.7.7-.1,1,.4,1.4.8,2.6,2.6,5.2,5.3,7.9,7.9l1.5,1.2a1.149,1.149,0,0,1,.6.9c-.5.8-1,1.6-1.4,2.4a57.524,57.524,0,0,0-4.3,8.6c-1.8,4.4-3.4,8.8-5.2,13.1a42.739,42.739,0,0,1-4.4,8.5,35.423,35.423,0,0,1-10.4,10c-1.2.7-2.5,1.4-3.7,2a32.044,32.044,0,0,1-6.8,2.3,27.6,27.6,0,0,1-5.7.6,75.5,75.5,0,0,1-8.3-.5,70.4,70.4,0,0,1-9-1.5c-3-.7-6-1.5-9-2.3A5.972,5.972,0,0,1,149.5,158Z" fill="#fff"/>
      <path id="Path_237" data-name="Path 237" d="M220.3,115.2a1.456,1.456,0,0,0-.6-.9l-1.5-1.2-7.9-7.9c-.4-.4-.7-.9-1.4-.8a1.863,1.863,0,0,0-.9-1.2,64.566,64.566,0,0,0-5.9-4.4A52.735,52.735,0,0,0,193,94a15.175,15.175,0,0,0-2.8-.9,69.056,69.056,0,0,0-7.9-1.6,38.745,38.745,0,0,1-5.9-1.3,5,5,0,0,1-3.1-2.6,4.256,4.256,0,0,1,.5-4.7,7.654,7.654,0,0,1,3.1-2.2,22.112,22.112,0,0,1,5.6-1.5,26.1,26.1,0,0,1,7.9.2,35.625,35.625,0,0,1,6.3,1.4,49.339,49.339,0,0,1,6.4,2.4c1.3.7,2.7,1.3,4,2,1.8,1,3.5,2,5.2,3,1.3.8,2.5,1.7,3.7,2.5a8.164,8.164,0,0,0,2.6,1.4c.2.2.3.4.5.5a13.86,13.86,0,0,1,3.1,2.3c1.3,1,2.5,2.1,3.7,3.2a8.6,8.6,0,0,1,1.8,2,7.489,7.489,0,0,0,2.6,2.4c.2.2.3.5.5.7a55.155,55.155,0,0,1,5.5,6.3c.7.8,1.4,1.6,2.1,2.5,1.6,1.9,3.2,3.9,4.9,5.8,2.3,2.8,4.6,5.5,6.9,8.3,2,2.4,3.9,4.8,5.9,7.1a52.528,52.528,0,0,0,8.8,8.2,8.165,8.165,0,0,0,8.5.7c1.7-.8,3.4-1.8,5.1-2.6,1.6-.9,3.3-1.7,4.9-2.6,2.8-1.6,5.6-3.2,8.4-4.7,1.5-.8,3-1.7,4.5-2.5a53.082,53.082,0,0,1,6.4-3,6.118,6.118,0,0,0,1.2-.5c.1.5.2.9.3,1.4.2,1.1.4,2.3.6,3.4.5,2.5.9,4.9,1.2,7.4.1.8.3,1.7.4,2.5a4.033,4.033,0,0,1,0,1.1c-1,.6-2,1.1-3,1.7-4,2.3-8.1,4.7-12.1,7a45.381,45.381,0,0,1-7.8,3.5,35.068,35.068,0,0,1-10.6,1.7h-2.4c-1.2-.1-2.4-.3-3.6-.4a26.974,26.974,0,0,1-4.9-1.2,29.58,29.58,0,0,1-7-3.2,54.265,54.265,0,0,1-9.2-7.4,58.641,58.641,0,0,1-5.9-6.3c-1.9-2.3-3.8-4.6-5.8-6.9-2.5-3-4.9-5.9-7.4-8.9l-2.1-2.4a28.342,28.342,0,0,0-2.4-2.5A1.9,1.9,0,0,0,220.3,115.2Z" fill="#fff"/>
      <path id="Path_238" data-name="Path 238" d="M152.3,142.7c-2.1-.5-4.3-1.1-6.4-1.6-1.4-.4-2.9-.7-4.4-1-1.7-.4-3.4-.9-5.1-1.3a1.268,1.268,0,0,0-.6-.1v-.2c-.1-1.5-.3-3-.4-4.5-.1-1.1-.2-2.1-.3-3.2-.2-2.2-.3-4.4-.3-6.5a68.373,68.373,0,0,1,.5-7.9,85.236,85.236,0,0,1,1.6-8.8A48.273,48.273,0,0,1,142,94.9a36.222,36.222,0,0,1,2.7-4.1,25.27,25.27,0,0,1,4.9-4.9c.8-.6,1.6-1.1,2.4-1.7.5-.3,1.1-.6,1.6-.9a2.565,2.565,0,0,1,2.9.2,8.315,8.315,0,0,1,2.7,2.9,12.66,12.66,0,0,1,1.3,3.2,3.085,3.085,0,0,1-.8,3.3,32.174,32.174,0,0,0-5.2,7.8,38.935,38.935,0,0,0-3,9.5c-.4,2.5-.6,4.9-.8,7.4a75.332,75.332,0,0,0-.2,9.5,73.515,73.515,0,0,0,1.2,11.4A28.321,28.321,0,0,1,152.3,142.7Z" fill="#fff"/>
      <path id="Path_239" data-name="Path 239" d="M89.7,221a7.934,7.934,0,0,1-2.5,1.5c-3.1,1.3-6.1,2.9-9.1,4.3-.6.3-1.3.6-2,.9-.2.1-.3,0-.5.1-2.8-4.1-5.7-8.1-8.2-12.3a67.563,67.563,0,0,1-4.8-10.2,79.893,79.893,0,0,1-3.2-11.6,41.212,41.212,0,0,1-.6-9.9,34.531,34.531,0,0,1,2.3-10.1,28.194,28.194,0,0,1,3.7-6.3,6.524,6.524,0,0,1,2.1-1.6,3.132,3.132,0,0,1,1.9-.2A4.345,4.345,0,0,1,72,168a7.437,7.437,0,0,1,.8,4.6,23.69,23.69,0,0,1-.9,3.6,18.309,18.309,0,0,0-.9,8.7,29.094,29.094,0,0,0,1.5,5.8,102.672,102.672,0,0,0,6.4,13.9,95.158,95.158,0,0,0,5.2,8.7c1.5,2.2,3.1,4.4,4.7,6.6A4.811,4.811,0,0,1,89.7,221Z" fill="#fff"/>
      <path id="Path_240" data-name="Path 240" d="M126.3,199.3a8.3,8.3,0,0,1-4.6-1.4c-1.5-.9-3-1.7-4.4-2.6-2-1.2-4.1-2.4-6.1-3.5-1.2-.7-2.4-1.4-3.7-2.1-1.6-.9-3.3-1.8-4.9-2.8-1.7-1-3.5-2-5.2-3l-7.5-4.2a92.874,92.874,0,0,1-8.5-5.3,4.561,4.561,0,0,1-1.5-4.5,2.209,2.209,0,0,1,1-1.3,5.534,5.534,0,0,1,4.7-.7,15.7,15.7,0,0,1,3.2,1.5c1.9,1.1,3.9,2.2,5.8,3.4,1.5.9,3,1.7,4.4,2.6,1.8,1.1,3.6,2.1,5.4,3.2,2.4,1.4,4.7,2.9,7.1,4.3,1.7,1,3.4,2.1,5.2,3.1,3.5,2,7,3.9,10.5,5.9.5.3,1,.6,1.4.9a3.607,3.607,0,0,1,1.3,4.2,2.973,2.973,0,0,1-2.8,2.2C126.8,199.4,126.6,199.3,126.3,199.3Z" fill="#fff"/>
      <path id="Path_241" data-name="Path 241" d="M164.3,96.9a5.331,5.331,0,0,1,1.5-3.2c.1-.1.3-.2.4-.3,1.7-.3,3.3-.3,4.6,1.1a6.08,6.08,0,0,1,1.5,2.4c2.2,6,4.4,12.1,6.4,18.2,1.3,4,2.7,7.9,4.1,11.9.9,2.5,1.9,5,2.9,7.6a28.067,28.067,0,0,1,1.6,4.9,3.7,3.7,0,0,1-2.1,4.1,2.881,2.881,0,0,1-2.4-.1,6.886,6.886,0,0,1-3.4-3.9c-1.1-3-2.2-6-3.3-8.9-1.5-4.1-3-8.1-4.5-12.2-1.3-3.6-2.7-7.2-4-10.8-1.1-2.9-2-5.9-3-8.9C164.5,98,164.4,97.4,164.3,96.9Z" fill="#fff"/>
      <path id="Path_242" data-name="Path 242" d="M69.6,283.1H66.5a3.916,3.916,0,0,1-2.6-.9,5.593,5.593,0,0,1-2-2.3,2.563,2.563,0,0,1,0-2.1c.3-.7.7-1.3,1.5-1.4a23.253,23.253,0,0,1,2.8-.5,14.718,14.718,0,0,1,2.1,0,8.953,8.953,0,0,0,2.3-.2,5.652,5.652,0,0,1,1.3,0c6.9,0,13.8,0,20.7-.1,2.8,0,5.6-.1,8.3-.3,1.7-.1,3.4-.2,5.1-.2a3.749,3.749,0,0,1,1.1.1,3.145,3.145,0,0,1,2.2,2,3.65,3.65,0,0,1,.2,2.9,2.546,2.546,0,0,1-1.6,1.6,4.508,4.508,0,0,1-1.1.3c-.9.1-1.9.2-2.8.3-3.7.1-7.4.2-11.2.3H90.6c-5.3.3-10.6.2-15.9.3-1.7,0-3.4.1-5.1.2Z" fill="#fff"/>
      <path id="Path_243" data-name="Path 243" d="M101.2,161c0-2.1.9-3.3,2.7-3.8a3.8,3.8,0,0,1,3.3.3c1.4.7,2.7,1.5,4,2.3,2.3,1.3,4.5,2.6,6.8,3.9,2.1,1.2,4.1,2.4,6.2,3.6a17.128,17.128,0,0,1,2.7,2,3.6,3.6,0,0,1,1.1,3.4,6.456,6.456,0,0,1-.4,1.9,3.072,3.072,0,0,1-2.4,1.7,5.965,5.965,0,0,1-3.9-.9c-1.8-1.2-3.7-2.3-5.6-3.4-1.2-.8-2.5-1.5-3.7-2.3l-5.4-3.3c-1.5-.9-2.9-1.8-4.4-2.7a2.194,2.194,0,0,1-1.1-1.8A1.009,1.009,0,0,0,101.2,161Z" fill="#fff"/>
      <path id="Path_244" data-name="Path 244" d="M181.7,98.9a3.76,3.76,0,0,1,3.3-3.6,3.987,3.987,0,0,1,3.5,1.4,7.815,7.815,0,0,1,1.1,2c1.9,5.1,3.7,10.2,5.6,15.3a18.031,18.031,0,0,1,1,4,3.892,3.892,0,0,1-1.9,4.1,5.306,5.306,0,0,1-1.7.8,2.193,2.193,0,0,1-1.6-.2,3.9,3.9,0,0,1-1.9-1.9,16.672,16.672,0,0,1-.8-2L182.6,102c-.2-.4-.3-.9-.5-1.3A8.025,8.025,0,0,0,181.7,98.9Z" fill="#fff"/>
      <path id="Path_245" data-name="Path 245" d="M106.9,201.7a4.214,4.214,0,0,1-2.1,3.1,2.994,2.994,0,0,1-.8.4,2.231,2.231,0,0,1-2.1,0c-1.5-.9-3.1-1.6-4.7-2.4-1.2-.6-2.4-1.3-3.6-2-1.9-1-3.8-2.1-5.7-3.1-.4-.2-.8-.4-1.3-.6a7.629,7.629,0,0,1-2.8-2.2,6.563,6.563,0,0,1-1.2-3,5.428,5.428,0,0,1,0-2.2,2.738,2.738,0,0,1,2-1.9,1.7,1.7,0,0,1,1,0,4.875,4.875,0,0,1,1.1.4c1.3.6,2.5,1.3,3.8,2l4.5,2.4c2.1,1.2,4.3,2.4,6.4,3.6a4.672,4.672,0,0,0,1,.5,22.031,22.031,0,0,1,3.2,2.1A2.77,2.77,0,0,1,106.9,201.7Z" fill="#fff"/>
      <path id="Path_246" data-name="Path 246" d="M84.6,265.3H75.5a6.448,6.448,0,0,1-2-.3,2.758,2.758,0,0,1-1.5-1.5,4.993,4.993,0,0,1-.2-2.7,3.81,3.81,0,0,1,3.8-3.2h.9c2.8,0,5.6,0,8.4-.1,2.6,0,5.2-.1,7.8-.2h.5a3.084,3.084,0,0,1,2.3.2,3.312,3.312,0,0,1,2.3,3,7.653,7.653,0,0,1-.6,3,2.784,2.784,0,0,1-2.8,1.8H84.6Z" fill="#fff"/>
      <path id="Path_247" data-name="Path 247" d="M155.6,116.4a6.989,6.989,0,0,1,1.6-4.4,2.679,2.679,0,0,1,1.5-1,1.708,1.708,0,0,1,1.4,0,3.721,3.721,0,0,1,2,1.9c1.8,4.5,3.6,9.1,5.4,13.6a39.734,39.734,0,0,1,1.5,4.9,10.868,10.868,0,0,1,.1,1.8,2.891,2.891,0,0,1-1.4,2,4.957,4.957,0,0,1-2.6.8,2.865,2.865,0,0,1-2.7-1.5,11.731,11.731,0,0,1-.5-1.1c-1.6-4-3.1-8.1-4.7-12.1a14.723,14.723,0,0,0-1-2.2A4.458,4.458,0,0,1,155.6,116.4Z" fill="#fff"/>
      <path id="Path_248" data-name="Path 248" d="M78.5,300.6a8.316,8.316,0,0,1-1.3-.2,3.08,3.08,0,0,1-2.5-2.6,3.946,3.946,0,0,1,1.2-3.9,2.575,2.575,0,0,1,1.6-.7c1.3-.1,2.6-.2,4-.3,1.7-.1,3.5-.3,5.2-.4,1-.1,2,0,3-.1,2-.1,3.9-.2,5.9-.2a6.068,6.068,0,0,1,3.7,1.2,3.131,3.131,0,0,1,1,3.6,5.669,5.669,0,0,1-.8,1.3,2.3,2.3,0,0,1-1.8,1.2c-1,.1-2.1.1-3.1.2-1.8.2-3.7.1-5.5.3-1.5.1-2.9.1-4.4.2-1.7.1-3.3.3-5,.4A2.356,2.356,0,0,0,78.5,300.6Z" fill="#fff"/>
      <path id="Path_249" data-name="Path 249" d="M135.8,138.4v.2H134a1.422,1.422,0,0,1-.6-.2Z" fill="#fff"/>
      <path id="Path_250" data-name="Path 250" d="M306.6,141.8v-1.1c-.1-.8-.3-1.7-.4-2.5-.3-2.5-.7-5-1.2-7.4-.2-1.1-.4-2.3-.6-3.4-.1-.5-.2-.9-.3-1.4a41.34,41.34,0,0,0-1.5-7.8c-1.3-4.9-2.7-9.7-4.4-14.4A36.466,36.466,0,0,0,291.9,93a33.674,33.674,0,0,0-8.1-6.9,6.907,6.907,0,0,1-3.4-5.3,3.893,3.893,0,0,1,2.2-4,6.446,6.446,0,0,1,4.7-.6,10.994,10.994,0,0,1,3.3,1.2,42.084,42.084,0,0,1,8.6,6.1,44.952,44.952,0,0,1,7.3,8.4,44.278,44.278,0,0,1,3.9,7.1,102.821,102.821,0,0,1,4.5,11.6l3,9.6v.5c.6,2.3,1.1,4.5,1.7,6.8.4,1.9.7,3.8,1.1,5.6a26.806,26.806,0,0,0,.7,2.7c.2,1.8.3,3.7.5,5.5l.6,5.1.6,5.1c.2,1.8.4,3.7.7,5.5.3,2,.6,4.1.9,6.1.6,3.4,1.2,6.7,1.7,10.1a13.2,13.2,0,0,0,8.5,10.7,56.421,56.421,0,0,0,13.9,3.9c2,.3,4,.7,5.9,1.1,1.9.3,3.9.6,5.8.9s3.7.6,5.6.9c2.1.3,4.1.6,6.2.9,1.4.2,2.9.4,4.3.7,1.1.2,2.3.4,3.4.6.1.4-.2.7-.3,1.1-.6,1.3-1.2,2.6-1.8,3.8-.9,2-1.8,4-2.7,5.9-.4.9-.9,1.8-1.4,2.8a4.053,4.053,0,0,0-.5.9,5.852,5.852,0,0,0-2.2-.5c-2-.3-4.1-.6-6.1-.9l-5.1-.9c-1.9-.3-3.9-.6-5.8-.9-2.1-.4-4.2-.8-6.3-1.1a85.717,85.717,0,0,1-8.8-1.8,29.906,29.906,0,0,1-7.6-3.2,37.242,37.242,0,0,1-8.3-6.5,45.823,45.823,0,0,1-7.2-9.8,35.583,35.583,0,0,1-3.8-10.3c-.9-4.3-1.7-8.6-2.5-12.9-.8-4.4-1.6-8.8-2.4-13.3A13.509,13.509,0,0,0,306.6,141.8Z" fill="#fff"/>
      <path id="Path_251" data-name="Path 251" d="M321.5,135.8c-.2-.9-.5-1.8-.7-2.7-.4-1.9-.7-3.8-1.1-5.6-.5-2.3-1.1-4.5-1.7-6.8v-.5a17.563,17.563,0,0,0,4-.6c2.8-.6,5.6-1.3,8.4-2a81.717,81.717,0,0,1,8.6-1.7c1.2-.2,2.4-.2,3.6-.3,1.7-.1,3.4-.3,5.1-.4,1.2-.1,2.5-.1,3.7-.1a24.369,24.369,0,0,1,2.7-.1c1.3,0,2.7.1,4,.2a28.673,28.673,0,0,1,5.7,1.1,33.769,33.769,0,0,1,5.2,2.2,23.94,23.94,0,0,0,2.8,1.3c1.2.5,2.4,1.1,3.7,1.6a19.7,19.7,0,0,1,4.9,3.2,11.981,11.981,0,0,0,1.2,1.1,6.075,6.075,0,0,1,1.8,3.2,3.565,3.565,0,0,1-2.7,4.4,7.292,7.292,0,0,1-5.4-.5,22.717,22.717,0,0,0-6.7-2.1c-2.4-.4-4.8-.7-7.3-.9a76.889,76.889,0,0,0-9.6-.1,55.1,55.1,0,0,0-7,.6c-2.4.4-4.8.7-7.2,1.1a80.8,80.8,0,0,0-9.7,2.4c-1.5.5-3,.9-4.6,1.4C322.6,135.4,322.1,135.6,321.5,135.8Z" fill="#fff"/>
      <path id="Path_252" data-name="Path 252" d="M340.3,178.8a2.155,2.155,0,0,1-1.7-.5,4.916,4.916,0,0,1-2.4-2.9,2.488,2.488,0,0,1,.7-2.7,28.48,28.48,0,0,1,2.6-2.3l2.7-2.4c1.4-1.2,2.8-2.3,4.1-3.4,1.7-1.5,3.5-2.9,5.2-4.4,2-1.7,4-3.3,6.1-5,1.2-1,2.4-2,3.7-3,1.9-1.5,3.7-3,5.6-4.5l6-4.8a28.318,28.318,0,0,1,2.8-2,3.329,3.329,0,0,1,4.2.5,4.472,4.472,0,0,1,1.3,2.2,3.178,3.178,0,0,1-.4,2.7,14.382,14.382,0,0,1-2.7,2.8c-2.1,1.7-4.3,3.4-6.4,5.1-2,1.6-3.9,3.2-5.9,4.7-2.8,2.2-5.6,4.5-8.4,6.7-2.4,1.9-4.7,4-7.1,5.9-2.1,1.8-4.3,3.5-6.5,5.3a9.428,9.428,0,0,0-1,1A3.317,3.317,0,0,1,340.3,178.8Z" fill="#fff"/>
      <path id="Path_253" data-name="Path 253" d="M265.1,136.3a2.767,2.767,0,0,1-2.5-1.3,6.437,6.437,0,0,1-1.1-2.7,9.647,9.647,0,0,1,.1-3.4c.4-2.6,1-5.2,1.4-7.8.5-3,1.1-6.1,1.6-9.1s.9-6.1,1.4-9.1c.3-1.9.7-3.8.9-5.7a67.521,67.521,0,0,1,1.4-7.6c.2-1,.5-2.1.8-3.1a3.211,3.211,0,0,1,2.5-2.5,3.294,3.294,0,0,1,3,.7,5.591,5.591,0,0,1,1.9,3.8,8.919,8.919,0,0,1-.3,2.2c-.3,1.9-.6,3.7-.9,5.6-.4,2.2-.7,4.3-1.1,6.4-.4,2.3-.8,4.5-1.2,6.8-.4,2.1-.9,4.1-1.3,6.2-.4,2-.7,4-1,5.9l-.9,5.7-.6,4.2c-.1.6-.2,1.3-.3,1.9a4.27,4.27,0,0,1-1.9,2.7A4,4,0,0,1,265.1,136.3Z" fill="#fff"/>
      <path id="Path_254" data-name="Path 254" d="M331.6,152.6a3.7,3.7,0,0,1,1.7-3.5c1.5-1.1,3-2.2,4.5-3.4,2.2-1.7,4.4-3.3,6.5-5,1.2-.9,2.2-2,3.3-3,.7-.7,1.5-1.3,2.2-1.9a4.866,4.866,0,0,1,6.6.7,2.513,2.513,0,0,1,.6,1.4,5.234,5.234,0,0,1-1.9,4.7c-.6.5-1.1.9-1.7,1.4-2.4,1.7-4.7,3.6-7,5.5-1.7,1.4-3.4,2.6-5,4a15.839,15.839,0,0,1-5.8,2.9c-.4.1-.8.1-1.1.2a2.5,2.5,0,0,1-2.6-1.8,2.92,2.92,0,0,1-.2-.9A4.887,4.887,0,0,0,331.6,152.6Z" fill="#fff"/>
      <path id="Path_255" data-name="Path 255" d="M363.6,186.2h-.2a5.442,5.442,0,0,1-4.3-3.6,2.309,2.309,0,0,1,.6-2.5,23.911,23.911,0,0,1,2.3-2.2c1.2-1.1,2.4-2.1,3.6-3.1,1.7-1.4,3.3-2.8,5-4.3.7-.6,1.5-1.3,2.2-1.9.9-.8,1.9-1.6,2.8-2.5.3-.2.5-.5.8-.6,1.6-.9,2.8-.9,4.5.5a6.228,6.228,0,0,1,1.4,1.8,3.182,3.182,0,0,1-.6,3.8c-.7.7-1.4,1.4-2.1,2-2.1,1.8-4.2,3.5-6.4,5.2-2,1.6-3.9,3.2-5.8,4.8a13.65,13.65,0,0,0-1.7,1.7A6.352,6.352,0,0,1,363.6,186.2Z" fill="#fff"/>
      <path id="Path_256" data-name="Path 256" d="M281.9,123c.2-1.3.4-2.5.7-3.8.6-3.3,1.3-6.6,2-9.9.4-2,.8-4,1.1-6,.1-.7.3-1.4.4-2.1a1.77,1.77,0,0,1,1.1-1.4,5.134,5.134,0,0,1,2.4-.7,3.356,3.356,0,0,1,2.9,1.6,5.156,5.156,0,0,1,.7,3.8c-.4,2.5-.8,5.1-1.2,7.6l-1.2,6.9a43.71,43.71,0,0,1-1.2,5.2,3.4,3.4,0,0,1-3,2.6c-.3,0-.6.2-.9.2a3.132,3.132,0,0,1-3.4-2.1A6.457,6.457,0,0,1,281.9,123Z" fill="#fff"/>
      <path id="Path_257" data-name="Path 257" d="M255.8,96.4c-.1.7-.2,1.4-.3,2-.4,2.8-.7,5.5-1.1,8.3-.3,2.2-.6,4.4-1,6.6a25.042,25.042,0,0,1-.7,2.6c-.8,2.4-2.4,2.7-4.3,2.3a3.805,3.805,0,0,1-1.7-.8,2.748,2.748,0,0,1-1.2-2.2V114c.5-3.2,1-6.3,1.4-9.5.2-1.5.4-3.1.6-4.6l.9-4.8c.2-1,.4-1.9.6-2.9.1-.5.2-.6.7-.5a11.748,11.748,0,0,1,4.1,1,3.087,3.087,0,0,1,1.9,3.1c0,.3.1.4.1.6Z" fill="#fff"/>
    </g>
  </g>
</svg>
