<?xml version="1.0" encoding="UTF-8" standalone="no"?>
<svg
   xmlns:dc="http://purl.org/dc/elements/1.1/"
   xmlns:cc="http://creativecommons.org/ns#"
   xmlns:rdf="http://www.w3.org/1999/02/22-rdf-syntax-ns#"
   xmlns:svg="http://www.w3.org/2000/svg"
   xmlns="http://www.w3.org/2000/svg"
   xmlns:sodipodi="http://sodipodi.sourceforge.net/DTD/sodipodi-0.dtd"
   xmlns:inkscape="http://www.inkscape.org/namespaces/inkscape"
   inkscape:version="1.0 (4035a4fb49, 2020-05-01)"
   sodipodi:docname="full_logo.svg"
   id="svg873"
   version="1.1"
   viewBox="0 0 1458.1351 363.6383"
   height="363.63831"
   width="1458.1353">
  <metadata
     id="metadata879">
    <rdf:RDF>
      <cc:Work
         rdf:about="">
        <dc:format>image/svg+xml</dc:format>
        <dc:type
           rdf:resource="http://purl.org/dc/dcmitype/StillImage" />
        <dc:title></dc:title>
      </cc:Work>
    </rdf:RDF>
  </metadata>
  <defs
     id="defs877" />
  <sodipodi:namedview
     inkscape:current-layer="Component_6_4"
     inkscape:window-maximized="1"
     inkscape:window-y="-6"
     inkscape:window-x="-6"
     inkscape:cy="-340.69929"
     inkscape:cx="1272.169"
     inkscape:zoom="0.35781374"
     fit-margin-bottom="10"
     fit-margin-right="10"
     fit-margin-left="10"
     lock-margins="false"
     fit-margin-top="10"
     showgrid="false"
     id="namedview875"
     inkscape:window-height="1010"
     inkscape:window-width="1620"
     inkscape:pageshadow="2"
     inkscape:pageopacity="0"
     guidetolerance="10"
     gridtolerance="10"
     objecttolerance="10"
     borderopacity="1"
     bordercolor="#666666"
     pagecolor="#ffffff" />
  <g
     style="fill:#ffffff"
     transform="translate(-33.015983,-407.04687)"
     data-name="Group 11"
     id="Group_11">
    <g
       style="fill:#ff0000"
       transform="translate(430.326,453.327)"
       data-name="Component 6 – 4"
       id="Component_6_4">
      <path
         style="fill:#ffffff"
         fill="#fff"
         transform="translate(-375.118,-241.48)"
         d="m 819.195,397.913 h -41.076 c -4.721,0 -5.9,1.21 -5.193,6.05 1.416,11.133 10.623,22.991 21.954,26.137 10.859,3.146 19.593,0.968 28.092,-5.808 a 15.771,15.771 0 0 0 3.541,-4.356 c 1.18,-2.42 2.833,-3.388 5.666,-3.388 8.971,0.242 17.705,0 26.676,0.242 3.777,0 4.721,1.452 3.069,5.082 -4.013,8.954 -9.207,17.183 -17,23.233 A 55.82,55.82 0 0 1 817.07,456.48 c -12.983,1.694 -25.967,0.242 -38.715,-2.662 -10.623,-2.42 -18.885,-8.47 -25.5,-17.425 -7.318,-10.407 -12.748,-21.781 -14.164,-34.366 -1.653,-15 -0.472,-29.767 5.193,-44.046 5.665,-14.279 14.872,-25.653 29.508,-31.22 11.1,-4.114 22.427,-6.534 34.466,-4.84 11.8,1.694 23.135,4.84 32.814,11.859 9.206,6.776 16.289,15.731 19.83,27.348 a 110.756,110.756 0 0 1 4.957,31.462 c 0,5.324 0,5.324 -5.193,5.324 q -20.892,0.363 -41.076,0 z M 801.962,377.1 v 0 c 7.554,0.242 14.872,0.242 22.426,0.242 4.722,0 5.43,-0.726 5.194,-5.808 -0.944,-11.133 -10.387,-21.055 -20.538,-23.475 -14.4,-3.388 -32.105,6.05 -34.7,23.959 -0.708,4.114 -0.236,4.84 4.013,5.082 z"
         data-name="Path 135"
         id="Path_135" />
      <path
         style="fill:#ffffff"
         fill="#fff"
         transform="translate(-292.777,-240.098)"
         d="m 923.575,409.173 v 39.932 c 0,3.872 0,4.114 -4.013,4.114 l -26.2,0.726 c -4.249,0 -4.485,0 -4.485,-4.6 v -76.474 a 31.259,31.259 0 0 0 -2.833,-13.311 c -2.361,-5.082 -5.9,-8.228 -10.859,-9.439 -11.8,-2.9 -22.662,-1.21 -31.869,7.5 -5.194,5.082 -5.9,11.617 -6.138,18.393 v 74.056 c 0,4.114 0,4.114 -4.013,4.114 -8.97,-0.242 -18.177,-0.726 -27.147,-0.726 -2.833,0 -3.541,-0.968 -3.541,-3.63 0,-17.183 -0.472,-34.608 -0.472,-51.791 0,-22.991 0.236,-45.74 0.236,-68.732 0,-4.114 0,-4.356 4.013,-4.356 8.5,-0.242 17.233,-0.242 25.731,-0.484 2.125,0 3.069,0.968 3.069,3.146 0,3.388 -0.236,7.018 -0.236,10.407 a 7.558,7.558 0 0 0 1.18,2.9 7.01,7.01 0 0 0 2.6,-1.694 c 8.026,-11.375 19.358,-16.457 32.577,-17.425 a 133.692,133.692 0 0 1 13.928,0 c 8.735,0.484 16.289,4.84 23.607,8.954 5.194,2.9 8.026,7.986 9.915,13.553 a 87.022,87.022 0 0 1 4.721,29.042 c 0.236,11.859 0.236,23.959 0.236,35.818 z"
         data-name="Path 136"
         id="Path_136" />
      <path
         style="fill:#ffffff"
         fill="#fff"
         transform="translate(-589.8,-276.689)"
         d="m 589.8,400.754 c 1.044,-7.6 1.566,-18.88 4.176,-29.631 4.437,-18.88 13.049,-35.662 28.186,-48.773 10.44,-9.178 22.706,-14.685 36.016,-17.831 a 126.028,126.028 0 0 1 47.5,-1.573 c 21.661,3.409 41.235,11.8 55.067,30.156 8.09,10.751 13.31,22.551 16.964,35.138 6,20.716 6,41.693 2.61,62.409 -2.871,17.831 -9.917,34.613 -22.705,47.725 -13.571,14.16 -30.535,23.6 -50.37,26.485 -17.225,2.622 -33.928,0.262 -50.631,-3.409 -23.488,-5.245 -40.974,-18.88 -53.762,-38.547 a 75.366,75.366 0 0 1 -11.222,-34.089 c -0.785,-7.869 -1.046,-16.26 -1.829,-28.06 z m 151.892,1.046 c 0,-12.587 -1.827,-24.649 -7.047,-36.187 -3.393,-7.6 -7.568,-14.685 -14.615,-19.667 -14.615,-10.227 -30.535,-12.849 -47.76,-8.653 -21.4,5.507 -33.667,19.929 -38.886,40.907 -3.132,13.111 -2.871,26.485 -2.088,39.858 0.783,11.276 3.132,22.551 9.917,31.991 3.132,4.458 7.047,9.178 11.483,12.062 15.4,9.965 32.1,13.373 50.109,7.08 14.876,-5.245 25.837,-14.422 32.1,-29.369 5.482,-12.322 6.526,-24.908 6.787,-38.022 z"
         data-name="Path 132"
         id="Path_132" />
      <path
         style="fill:#ffffff"
         fill="#fff"
         transform="translate(-87.739,-243.287)"
         d="m 956.23,457.269 c -4.721,0 -9.443,0.242 -13.928,0 -5.429,-0.242 -5.9,-0.968 -5.9,-6.534 V 338.683 c 0,-4.6 0.472,-8.955 0.472,-13.553 0,-2.42 0.944,-3.388 3.305,-3.388 10.623,0 21.246,-0.242 31.869,-0.242 3.069,0 4.957,2.178 4.957,5.566 0,7.5 -0.236,15 -0.472,22.507 0,1.936 -0.236,4.114 -0.236,6.05 -0.236,27.347 -0.236,54.453 -0.472,81.8 0,4.84 -0.236,9.923 -0.472,14.763 0,4.114 -0.472,4.6 -4.721,4.84 -4.959,0.485 -9.681,0.243 -14.402,0.243 z"
         data-name="Path 137"
         id="Path_137" />
      <path
         style="fill:#ffffff"
         fill="#fff"
         transform="translate(-88.011,-274.156)"
         d="m 956.03,302.263 h 15.345 c 3.777,0 3.777,0 4.013,3.872 0.236,8.712 0.472,17.425 0.472,26.137 0,5.082 -0.708,5.808 -5.666,5.808 h -28.8 c -4.721,0 -5.193,-0.484 -5.193,-5.324 v -26.137 c 0,-3.872 0.236,-4.114 4.013,-4.356 5.43,-0.242 10.623,0 15.816,0 z"
         data-name="Path 147"
         id="Path_147" />
      <path
         style="fill:#ffffff"
         fill="#fff"
         transform="translate(-459.261,-240.643)"
         d="m 673.536,420.237 v -89.545 c 0,-7.5 -0.708,-6.534 6.374,-6.534 7.79,0 15.58,0.242 23.371,0.242 2.6,0 3.777,0.968 3.541,3.872 a 25.106,25.106 0 0 0 0.472,7.26 c 0.472,2.42 1.653,2.662 3.305,0.726 10.623,-12.585 24.787,-15.731 40.131,-14.763 8.735,0.484 17,2.662 24.315,7.5 a 52.264,52.264 0 0 1 17.233,18.151 c 9.915,16.457 12.512,34.608 9.915,53.485 a 114.152,114.152 0 0 1 -5.666,23.959 c -6.61,16.457 -18.413,28.557 -35.646,32.188 -18.413,3.872 -35.646,0 -49.1,-15 a 24.751,24.751 0 0 0 -2.6,-1.936 c -0.236,1.21 -0.945,2.42 -0.945,3.388 C 708,465.735 708,488.242 708,510.508 v 3.146 a 2.392,2.392 0 0 1 -2.6,2.662 h -29.267 q -2.833,0 -2.833,-2.9 v -4.84 c 0,-29.283 0,-58.809 0.236,-88.335 z m 94.9,-30.736 c -0.944,-6.05 -1.653,-12.343 -3.069,-18.151 -1.652,-6.292 -4.485,-12.1 -9.679,-16.457 -16.525,-13.311 -39.423,-2.662 -44.617,11.133 a 88.373,88.373 0 0 0 -4.249,15.489 c -1.889,9.438 0.236,18.635 3.069,27.589 2.833,8.471 7.79,15 16.289,17.909 2.361,0.726 4.957,1.452 7.318,1.936 11.8,1.694 25.5,-3.872 30.689,-16.941 2.596,-7.26 3.304,-14.762 4.248,-22.508 z"
         data-name="Path 133"
         id="Path_133" />
      <path
         style="fill:#ffffff"
         fill="#fff"
         transform="translate(-53.254,-246.937)"
         d="m 1037.182,319.1 c 14.164,0 26.676,5.082 38.007,13.069 a 86.42,86.42 0 0 1 11.567,9.438 63.882,63.882 0 0 1 7.79,11.375 86.151,86.151 0 0 1 8.262,21.781 c 1.888,7.744 1.18,15.489 0.945,23.233 0,3.146 -0.945,6.292 -1.181,9.438 -0.708,8.954 -4.957,16.457 -8.734,24.2 -3.069,6.292 -7.79,11.375 -12.512,16.215 -3.305,3.146 -7.554,5.566 -11.331,7.986 -1.416,0.968 -3.305,1.452 -4.957,2.42 -11.567,5.808 -23.607,6.534 -36.355,5.566 a 90.323,90.323 0 0 1 -24.079,-4.6 c -11.8,-4.114 -21.718,-10.648 -29.273,-21.055 A 72.432,72.432 0 0 1 961.4,394.608 c 0,-7.744 -0.236,-15.247 1.889,-22.749 a 64.213,64.213 0 0 1 23.843,-35.334 82.157,82.157 0 0 1 28.8,-14.037 c 6.85,-1.694 13.933,-2.178 21.25,-3.388 z m 25.732,73.33 c -0.708,-5.082 -1.416,-9.922 -2.125,-15 -1.653,-9.923 -7.318,-16.457 -16.524,-19.361 a 47.873,47.873 0 0 0 -9.915,-1.936 c -12.276,-0.726 -21.718,3.388 -26.912,14.521 a 52.922,52.922 0 0 0 -3.069,35.576 c 3.069,12.826 11.1,21.539 24.551,22.991 10.387,1.21 19.593,-0.968 26.2,-10.407 5.197,-7.991 7.322,-16.704 7.794,-26.384 z"
         data-name="Path 134"
         id="Path_134" />
      <path
         style="fill:#ffffff"
         fill="#fff"
         transform="translate(-189.181,-269.247)"
         d="m 862.9,393.453 v -84.345 c 0,-5.558 1.158,-7.008 6.485,-7.008 h 84.994 c 8.337,0 16.443,2.417 24.549,4.35 17.369,3.867 26.865,15.709 32.191,32.626 2.316,7.492 2.316,14.984 1.621,22.717 -0.463,5.075 -3.01,9.425 -6.253,13.534 -2.547,2.9 -4.863,5.8 -7.411,8.7 -1.158,1.208 -1.389,2.175 0.232,3.383 11.579,7.492 16.211,19.334 18.527,32.384 1.39,8.459 1.853,16.917 -0.695,25.376 -3.474,11.6 -9.5,21.267 -19.453,28.276 a 61.417,61.417 0 0 1 -34.276,11.359 c -30.57,0.725 -61.14,0.725 -91.941,0.967 a 13.662,13.662 0 0 1 -3.011,-0.242 c -3.937,-0.483 -5.558,-2.175 -5.558,-6.525 Q 862.9,436.229 862.9,393.453 Z m 67.624,14.747 h -26.632 c -2.547,0 -4.169,0.483 -4.169,3.383 -0.232,11.842 -0.927,23.684 -1.158,35.526 -0.232,4.108 0.463,4.592 4.863,4.592 9.5,0 18.759,0.242 28.254,0 9.032,-0.242 18.064,-0.725 27.1,-0.725 11.117,0 20.612,-9.425 22.464,-20.059 1.158,-6.284 -0.695,-11.842 -6.021,-16.434 -5.558,-4.833 -12.274,-5.8 -19.454,-6.042 -8.571,-0.488 -16.909,-0.241 -25.247,-0.241 z m -2.547,-74.677 c -6.948,0 -14.127,0.242 -21.075,0 -3.242,0 -4.4,1.208 -4.4,4.592 q 0.347,14.5 0,29 c 0,3.625 1.389,4.35 4.4,4.35 9.264,-0.242 18.759,-0.242 28.023,0 6.948,0 18.527,-0.967 25.475,-1.692 13.2,-1.208 14.359,-4.833 13.9,-17.4 v -4.35 a 11.165,11.165 0 0 0 -5.326,-9.667 18.9,18.9 0 0 0 -6.948,-2.658 c -11.353,-2.664 -22.701,-2.664 -34.049,-2.18 z"
         data-name="Path 230"
         id="Path_230" />
      <g
         style="font-size:50.6667px;font-family:Monaco;letter-spacing:-0.01em;fill:#ffffff"
         id="Harvard_College"
         transform="translate(613.04,45)"
         aria-label="Harvard College">
        <path
           id="path1776"
           style="font-size:50.6667px;fill:#ffffff"
           d="m -365.63967,0 h -4.89844 v -18.035168 h -18.38152 V 0 h -4.89844 v -36.837263 h 4.89844 v 14.447926 h 18.38152 v -14.447926 h 4.89844 z" />
        <path
           id="path1778"
           style="font-size:50.6667px;fill:#ffffff"
           d="m -335.12288,0 h -4.6263 v -2.9440123 q -0.61849,0.4205732 -1.6823,1.1875008 -1.03906,0.7421879 -2.02864,1.18750073 Q -344.62288,0 -346.132,0.37109398 q -1.50911,0.39583358 -3.53776,0.39583358 -3.73568,0 -6.33334,-2.47395986 -2.59766,-2.4739599 -2.59766,-6.3085977 0,-3.141929 1.33594,-5.071618 1.36068,-1.954428 3.85938,-3.06771 2.52344,-1.113282 6.0612,-1.509116 3.53776,-0.395833 7.59506,-0.59375 v -0.717448 q 0,-1.583335 -0.56901,-2.622398 -0.54427,-1.039063 -1.58334,-1.632813 -0.98958,-0.569011 -2.375,-0.766928 -1.38542,-0.197917 -2.89453,-0.197917 -1.83073,0 -4.08204,0.494792 -2.2513,0.470053 -4.65104,1.385418 h -0.2474 v -4.725264 q 1.36068,-0.371094 3.9336,-0.816406 2.57292,-0.445313 5.07162,-0.445313 2.91927,0 5.07161,0.494792 2.17709,0.470052 3.76042,1.632813 1.5586,1.138022 2.37501,2.944013 0.8164,1.80599 0.8164,4.477867 z m -4.6263,-6.8033897 v -7.6940153 q -2.12761,0.123698 -5.02214,0.371094 -2.86979,0.247396 -4.55209,0.717448 -2.00391,0.569011 -3.24089,1.781252 -1.23698,1.1875 -1.23698,3.2903662 0,2.3750015 1.4349,3.5872418 1.4349,1.1875008 4.37891,1.1875008 2.44922,0 4.47787,-0.9401048 2.02865,-0.9648443 3.76042,-2.3007827 z" />
        <path
           id="path1780"
           style="font-size:50.6667px;fill:#ffffff"
           d="m -309.38083,-22.562514 h -0.2474 q -1.03906,-0.247396 -2.02864,-0.346355 -0.96485,-0.123698 -2.30079,-0.123698 -2.15234,0 -4.15625,0.964845 -2.00391,0.940105 -3.85938,2.44922 V 0 h -4.65104 v -27.634132 h 4.65104 v 4.082034 q 2.77084,-2.226564 4.8737,-3.141929 2.12761,-0.940105 4.32943,-0.940105 1.21224,0 1.75652,0.07422 0.54427,0.04948 1.63281,0.222656 z" />
        <path
           id="path1782"
           style="font-size:50.6667px;fill:#ffffff"
           d="M -281.56066,-27.634132 -292.74295,0 h -4.67579 l -11.10808,-27.634132 h 5.04688 l 8.5599,21.9935035 8.48568,-21.9935035 z" />
        <path
           id="path1784"
           style="font-size:50.6667px;fill:#ffffff"
           d="m -255.49699,0 h -4.62631 v -2.9440123 q -0.61849,0.4205732 -1.68229,1.1875008 -1.03906,0.7421879 -2.02865,1.18750073 Q -264.997,0 -266.50611,0.37109398 q -1.50912,0.39583358 -3.53777,0.39583358 -3.73568,0 -6.33333,-2.47395986 -2.59766,-2.4739599 -2.59766,-6.3085977 0,-3.141929 1.33594,-5.071618 1.36067,-1.954428 3.85937,-3.06771 2.52344,-1.113282 6.06121,-1.509116 3.53776,-0.395833 7.59505,-0.59375 v -0.717448 q 0,-1.583335 -0.56901,-2.622398 -0.54427,-1.039063 -1.58333,-1.632813 -0.98959,-0.569011 -2.375,-0.766928 -1.38542,-0.197917 -2.89454,-0.197917 -1.83073,0 -4.08203,0.494792 -2.2513,0.470053 -4.65105,1.385418 h -0.24739 v -4.725264 q 1.36068,-0.371094 3.93359,-0.816406 2.57292,-0.445313 5.07162,-0.445313 2.91927,0 5.07162,0.494792 2.17708,0.470052 3.76042,1.632813 1.55859,1.138022 2.375,2.944013 0.81641,1.80599 0.81641,4.477867 z m -4.62631,-6.8033897 v -7.6940153 q -2.1276,0.123698 -5.02214,0.371094 -2.86979,0.247396 -4.55208,0.717448 -2.00391,0.569011 -3.24089,1.781252 -1.23698,1.1875 -1.23698,3.2903662 0,2.3750015 1.4349,3.5872418 1.43489,1.1875008 4.37891,1.1875008 2.44922,0 4.47786,-0.9401048 2.02865,-0.9648443 3.76042,-2.3007827 z" />
        <path
           id="path1786"
           style="font-size:50.6667px;fill:#ffffff"
           d="m -229.75495,-22.562514 h -0.24739 q -1.03906,-0.247396 -2.02865,-0.346355 -0.96484,-0.123698 -2.30078,-0.123698 -2.15235,0 -4.15625,0.964845 -2.00391,0.940105 -3.85938,2.44922 V 0 h -4.65105 v -27.634132 h 4.65105 v 4.082034 q 2.77083,-2.226564 4.8737,-3.141929 2.12761,-0.940105 4.32943,-0.940105 1.21224,0 1.75651,0.07422 0.54427,0.04948 1.63281,0.222656 z" />
        <path
           id="path1788"
           style="font-size:50.6667px;fill:#ffffff"
           d="m -203.41915,0 h -4.65104 v -2.8945331 q -2.00391,1.731772 -4.18099,2.69661631 -2.17709,0.96484435 -4.72527,0.96484435 -4.94792,0 -7.86719,-3.80989826 -2.89453,-3.8098982 -2.89453,-10.5638083 0,-3.513023 0.98958,-6.259119 1.01432,-2.746095 2.72136,-4.675784 1.68229,-1.88021 3.90885,-2.869794 2.25131,-0.989583 4.65105,-0.989583 2.17708,0 3.85938,0.470052 1.68229,0.445313 3.53776,1.410157 v -11.973966 h 4.65104 z m -4.65104,-6.8033897 V -22.661473 q -1.88021,-0.841146 -3.36459,-1.162761 -1.48437,-0.321614 -3.24088,-0.321614 -3.90886,0 -6.08595,2.721355 -2.17708,2.721356 -2.17708,7.718755 0,4.9231804 1.68229,7.4960987 1.68229,2.5481787 5.39323,2.5481787 1.97917,0 4.00782,-0.865886 2.02865,-0.8906255 3.78516,-2.2760431 z" />
        <path
           id="path1790"
           style="font-size:50.6667px;fill:#ffffff"
           d="m -148.64469,-2.6718767 q -1.36068,0.5937504 -2.47396,1.113282 -1.08855,0.5195315 -2.8698,1.08854232 Q -155.49756,0 -157.27881,0.32161479 q -1.75651,0.34635438 -3.88412,0.34635438 -4.00782,0 -7.29818,-1.11328195 -3.26563,-1.13802152 -5.69011,-3.53776262 -2.375,-2.3502619 -3.71094,-5.9622433 -1.33594,-3.6367213 -1.33594,-8.4362033 0,-4.552086 1.28646,-8.139328 1.28646,-3.587242 3.71094,-6.061202 2.35026,-2.399741 5.66537,-3.66146 3.33984,-1.26172 7.39714,-1.26172 2.96875,0 5.91276,0.717449 2.96876,0.717448 6.58074,2.523439 v 5.813805 h -0.3711 q -3.04297,-2.548178 -6.03646,-3.71094 -2.99349,-1.162761 -6.40756,-1.162761 -2.79557,0 -5.04687,0.915365 -2.22657,0.890626 -3.98308,2.795575 -1.70703,1.85547 -2.67188,4.700524 -0.9401,2.820314 -0.9401,6.531254 0,3.884117 1.03906,6.679692 1.06381,2.7955744 2.72136,4.5520859 1.73177,1.8307303 4.03255,2.7213559 2.32553,0.865886 4.89844,0.865886 3.53777,0 6.63022,-1.2122404 3.09245,-1.2122403 5.78906,-3.636721 h 0.34636 z" />
        <path
           id="path1792"
           style="font-size:50.6667px;fill:#ffffff"
           d="m -118.99379,-13.804696 q 0,6.7539103 -3.46354,10.6627669 -3.46354,3.90885666 -9.27735,3.90885666 -5.86329,0 -9.32683,-3.90885666 -3.4388,-3.9088566 -3.4388,-10.6627669 0,-6.753911 3.4388,-10.662767 3.46354,-3.933596 9.32683,-3.933596 5.81381,0 9.27735,3.933596 3.46354,3.908856 3.46354,10.662767 z m -4.79948,0 q 0,-5.368493 -2.10287,-7.966151 -2.10286,-2.622397 -5.83854,-2.622397 -3.78516,0 -5.88803,2.622397 -2.07812,2.597658 -2.07812,7.966151 0,5.1953156 2.10286,7.8919319 2.10287,2.6718766 5.86329,2.6718766 3.71094,0 5.81381,-2.647137 2.1276,-2.6718767 2.1276,-7.9166715 z" />
        <path
           id="path1794"
           style="font-size:50.6667px;fill:#ffffff"
           d="m -107.57595,0 h -4.65105 v -38.494816 h 4.65105 z" />
        <path
           id="path1796"
           style="font-size:50.6667px;fill:#ffffff"
           d="m -94.129511,0 h -4.651044 v -38.494816 h 4.651044 z" />
        <path
           id="path1798"
           style="font-size:50.6667px;fill:#ffffff"
           d="m -62.252037,-13.334644 h -20.36069 q 0,2.548179 0.766927,4.453128 0.766928,1.8802095 2.102866,3.0924499 1.286459,1.1875007 3.042971,1.7812511 1.781251,0.5937504 3.908856,0.5937504 2.820315,0 5.665369,-1.113282 2.869793,-1.1380215 4.082033,-2.2265639 h 0.247396 v 5.0716178 q -2.350262,0.98958393 -4.799482,1.6575531 -2.44922,0.66796917 -5.145836,0.66796917 -6.877609,0 -10.736986,-3.71093987 -3.859378,-3.7356794 -3.859378,-10.5885487 0,-6.77865 3.686201,-10.761725 3.710939,-3.983075 9.747401,-3.983075 5.59115,0 8.609381,3.265627 3.042971,3.265627 3.042971,9.277349 z m -4.527347,-3.562502 q -0.02474,-3.661461 -1.85547,-5.665368 -1.805991,-2.003908 -5.516931,-2.003908 -3.735679,0 -5.962243,2.201825 -2.201824,2.201824 -2.498699,5.467451 z" />
        <path
           id="path1800"
           style="font-size:50.6667px;fill:#ffffff"
           d="m -33.293827,-3.1419291 q 0,7.0260461 -3.191408,10.3164128 -3.191408,3.2903663 -9.821621,3.2903663 -2.201824,0 -4.30469,-0.321614 -2.078126,-0.2968757 -4.106773,-0.8658864 v -4.750003 h 0.247396 q 1.138021,0.4453128 3.611981,1.0885423 2.47396,0.6679692 4.94792,0.6679692 2.375001,0 3.933596,-0.5690108 1.558595,-0.5690107 2.424481,-1.5833343 0.865886,-0.9648443 1.23698,-2.3255223 0.371094,-1.36067792 0.371094,-3.0429706 V -3.760419 q -2.102866,1.6822927 -4.032555,2.5234391 -1.904949,0.81640672 -4.873701,0.81640672 -4.94792,0 -7.867192,-3.56250222 -2.894533,-3.5872418 -2.894533,-10.0937566 0,-3.562502 0.989584,-6.13542 1.014323,-2.597658 2.746095,-4.477868 1.608074,-1.756511 3.908857,-2.721356 2.300782,-0.989583 4.576826,-0.989583 2.399741,0 4.007815,0.494791 1.632813,0.470053 3.438804,1.459637 l 0.296875,-1.187501 h 4.354169 z m -4.651044,-4.4531277 V -22.661473 q -1.85547,-0.841146 -3.463544,-1.1875 -1.583334,-0.371094 -3.166669,-0.371094 -3.834638,0 -6.036462,2.572918 -2.201824,2.572918 -2.201824,7.471359 0,4.6510444 1.632813,7.0507855 1.632814,2.3997411 5.417973,2.3997411 2.028647,0 4.057294,-0.7669275 2.053386,-0.7916672 3.760419,-2.1028659 z" />
        <path
           id="path1802"
           style="font-size:50.6667px;fill:#ffffff"
           d="M -1.5153126,-13.334644 H -21.876002 q 0,2.548179 0.766927,4.453128 0.766928,1.8802095 2.102866,3.0924499 1.286459,1.1875007 3.042971,1.7812511 1.781251,0.5937504 3.908856,0.5937504 2.8203145,0 5.6653684,-1.113282 2.8697935,-1.1380215 4.0820338,-2.2265639 h 0.247396 v 5.0716178 q -2.3502619,0.98958393 -4.7994822,1.6575531 -2.4492203,0.66796917 -5.145837,0.66796917 -6.877608,0 -10.736985,-3.71093987 -3.859378,-3.7356794 -3.859378,-10.5885487 0,-6.77865 3.6862,-10.761725 3.71094,-3.983075 9.747402,-3.983075 5.5911497,0 8.6093807,3.265627 3.0429707,3.265627 3.0429707,9.277349 z m -4.5273466,-3.562502 q -0.02474,-3.661461 -1.8554699,-5.665368 -1.8059907,-2.003908 -5.5169309,-2.003908 -3.735679,0 -5.962243,2.201825 -2.201824,2.201824 -2.498699,5.467451 z" />
      </g>
      <g
         style="font-size:50.6667px;font-family:Monaco;letter-spacing:-0.01em;fill:#ffffff"
         id="Laboratory"
         aria-label="Laboratory">
        <path
           id="path1805"
           style="font-size:50.6667px;fill:#ffffff"
           d="m 809.45038,291.48724 h -23.30471 v -36.83726 h 4.89844 v 32.48309 h 18.40627 z" />
        <path
           id="path1807"
           style="font-size:50.6667px;fill:#ffffff"
           d="m 834.94503,291.48724 h -4.62631 v -2.94401 q -0.61849,0.42057 -1.68229,1.1875 -1.03906,0.74219 -2.02865,1.1875 -1.16276,0.56901 -2.67187,0.94011 -1.50912,0.39583 -3.53777,0.39583 -3.73568,0 -6.33333,-2.47396 -2.59766,-2.47396 -2.59766,-6.3086 0,-3.14193 1.33594,-5.07161 1.36067,-1.95443 3.85937,-3.06771 2.52344,-1.11329 6.06121,-1.50912 3.53776,-0.39583 7.59505,-0.59375 v -0.71745 q 0,-1.58333 -0.56901,-2.6224 -0.54427,-1.03906 -1.58333,-1.63281 -0.98959,-0.56901 -2.375,-0.76693 -1.38542,-0.19791 -2.89454,-0.19791 -1.83073,0 -4.08203,0.49479 -2.2513,0.47005 -4.65105,1.38542 h -0.24739 v -4.72527 q 1.36068,-0.37109 3.93359,-0.8164 2.57292,-0.44532 5.07162,-0.44532 2.91928,0 5.07162,0.49479 2.17708,0.47006 3.76042,1.63282 1.55859,1.13802 2.375,2.94401 0.81641,1.80599 0.81641,4.47787 z m -4.62631,-6.80339 v -7.69401 q -2.1276,0.1237 -5.02214,0.37109 -2.86979,0.2474 -4.55208,0.71745 -2.00391,0.56901 -3.24089,1.78125 -1.23698,1.1875 -1.23698,3.29037 0,2.375 1.4349,3.58724 1.43489,1.1875 4.37891,1.1875 2.44922,0 4.47786,-0.9401 2.02865,-0.96485 3.76042,-2.30079 z" />
        <path
           id="path1809"
           style="font-size:50.6667px;fill:#ffffff"
           d="m 867.7626,277.45989 q 0,3.46354 -0.98958,6.23438 -0.96485,2.77084 -2.6224,4.65104 -1.75651,1.95443 -3.85938,2.94402 -2.10286,0.96484 -4.6263,0.96484 -2.35027,0 -4.10678,-0.56901 -1.75651,-0.54427 -3.46354,-1.48438 l -0.29688,1.28646 h -4.35417 v -38.49481 h 4.65105 v 13.75521 q 1.95443,-1.60807 4.15625,-2.62239 2.20183,-1.03907 4.94792,-1.03907 4.89844,0 7.71876,3.76042 2.84505,3.76042 2.84505,10.61329 z m -4.79948,0.1237 q 0,-4.94792 -1.63282,-7.4961 -1.63281,-2.57292 -5.26953,-2.57292 -2.02865,0 -4.10677,0.89063 -2.07813,0.86588 -3.85938,2.2513 v 15.83334 q 1.97917,0.89063 3.38932,1.23698 1.4349,0.34636 3.24089,0.34636 3.85938,0 6.03646,-2.52344 2.20183,-2.54818 2.20183,-7.96615 z" />
        <path
           id="path1811"
           style="font-size:50.6667px;fill:#ffffff"
           d="m 898.05673,277.68255 q 0,6.75391 -3.46354,10.66276 -3.46354,3.90886 -9.27735,3.90886 -5.86328,0 -9.32683,-3.90886 -3.4388,-3.90885 -3.4388,-10.66276 0,-6.75391 3.4388,-10.66277 3.46355,-3.9336 9.32683,-3.9336 5.81381,0 9.27735,3.9336 3.46354,3.90886 3.46354,10.66277 z m -4.79948,0 q 0,-5.3685 -2.10286,-7.96615 -2.10287,-2.6224 -5.83855,-2.6224 -3.78516,0 -5.88802,2.6224 -2.07813,2.59765 -2.07813,7.96615 0,5.19531 2.10287,7.89193 2.10286,2.67188 5.86328,2.67188 3.71094,0 5.81381,-2.64714 2.1276,-2.67188 2.1276,-7.91667 z" />
        <path
           id="path1813"
           style="font-size:50.6667px;fill:#ffffff"
           d="m 922.01753,268.92473 h -0.2474 q -1.03906,-0.2474 -2.02864,-0.34635 -0.96485,-0.1237 -2.30079,-0.1237 -2.15234,0 -4.15625,0.96484 -2.00391,0.94011 -3.85938,2.44922 v 19.6185 h -4.65104 v -27.63413 h 4.65104 v 4.08204 q 2.77084,-2.22657 4.87371,-3.14193 2.1276,-0.94011 4.32943,-0.94011 1.21224,0 1.75651,0.0742 0.54427,0.0495 1.63281,0.22266 z" />
        <path
           id="path1815"
           style="font-size:50.6667px;fill:#ffffff"
           d="m 946.5226,291.48724 h -4.62631 v -2.94401 q -0.61849,0.42057 -1.68229,1.1875 -1.03906,0.74219 -2.02865,1.1875 -1.16276,0.56901 -2.67187,0.94011 -1.50912,0.39583 -3.53776,0.39583 -3.73568,0 -6.33334,-2.47396 -2.59766,-2.47396 -2.59766,-6.3086 0,-3.14193 1.33594,-5.07161 1.36068,-1.95443 3.85938,-3.06771 2.52343,-1.11329 6.0612,-1.50912 3.53776,-0.39583 7.59505,-0.59375 v -0.71745 q 0,-1.58333 -0.56901,-2.6224 -0.54427,-1.03906 -1.58333,-1.63281 -0.98958,-0.56901 -2.375,-0.76693 -1.38542,-0.19791 -2.89454,-0.19791 -1.83073,0 -4.08203,0.49479 -2.2513,0.47005 -4.65104,1.38542 h -0.2474 v -4.72527 q 1.36068,-0.37109 3.9336,-0.8164 2.57291,-0.44532 5.07161,-0.44532 2.91928,0 5.07162,0.49479 2.17709,0.47006 3.76042,1.63282 1.5586,1.13802 2.375,2.94401 0.81641,1.80599 0.81641,4.47787 z m -4.62631,-6.80339 v -7.69401 q -2.1276,0.1237 -5.02213,0.37109 -2.8698,0.2474 -4.55209,0.71745 -2.00391,0.56901 -3.24089,1.78125 -1.23698,1.1875 -1.23698,3.29037 0,2.375 1.4349,3.58724 1.4349,1.1875 4.37891,1.1875 2.44922,0 4.47787,-0.9401 2.02864,-0.96485 3.76041,-2.30079 z" />
        <path
           id="path1817"
           style="font-size:50.6667px;fill:#ffffff"
           d="m 969.37011,291.23985 q -1.31119,0.34635 -2.86979,0.56901 -1.53385,0.22265 -2.7461,0.22265 -4.23047,0 -6.43229,-2.27604 -2.20183,-2.27604 -2.20183,-7.29818 v -14.69532 h -3.14192 v -3.90886 h 3.14192 v -7.94141 h 4.65105 v 7.94141 h 9.59896 v 3.90886 h -9.59896 v 12.59245 q 0,2.17709 0.099,3.41407 0.099,1.21224 0.69271,2.27604 0.54427,0.98959 1.48437,1.45964 0.96485,0.44531 2.91928,0.44531 1.13802,0 2.375,-0.32161 1.23698,-0.34636 1.78125,-0.56901 h 0.24739 z" />
        <path
           id="path1819"
           style="font-size:50.6667px;fill:#ffffff"
           d="m 998.05617,277.68255 q 0,6.75391 -3.46354,10.66276 -3.46355,3.90886 -9.27735,3.90886 -5.86329,0 -9.32683,-3.90886 -3.43881,-3.90885 -3.43881,-10.66276 0,-6.75391 3.43881,-10.66277 3.46354,-3.9336 9.32683,-3.9336 5.8138,0 9.27735,3.9336 3.46354,3.90886 3.46354,10.66277 z m -4.79948,0 q 0,-5.3685 -2.10287,-7.96615 -2.10286,-2.6224 -5.83854,-2.6224 -3.78516,0 -5.88803,2.6224 -2.07812,2.59765 -2.07812,7.96615 0,5.19531 2.10286,7.89193 2.10287,2.67188 5.86329,2.67188 3.71094,0 5.8138,-2.64714 2.12761,-2.67188 2.12761,-7.91667 z" />
        <path
           id="path1821"
           style="font-size:50.6667px;fill:#ffffff"
           d="m 1022.017,268.92473 h -0.2474 q -1.0391,-0.2474 -2.0287,-0.34635 -0.9648,-0.1237 -2.3008,-0.1237 -2.1523,0 -4.1562,0.96484 -2.0039,0.94011 -3.8594,2.44922 v 19.6185 h -4.651 v -27.63413 h 4.651 v 4.08204 q 2.7708,-2.22657 4.8737,-3.14193 2.1276,-0.94011 4.3294,-0.94011 1.2123,0 1.7566,0.0742 0.5442,0.0495 1.6328,0.22266 z" />
        <path
           id="path1823"
           style="font-size:50.6667px;fill:#ffffff"
           d="m 1049.8371,263.85311 -16.1302,37.82685 h -4.9726 l 5.1458,-11.52865 -11.0091,-26.2982 h 5.0469 l 8.4856,20.48439 8.5599,-20.48439 z" />
      </g>
    </g>
  </g>
  <g
     transform="matrix(0.73269181,0,0,0.73269181,34.818647,110.6545)"
     id="g1774">
    <path
       id="Path_156"
       data-name="Path 156"
       d="M 12.23113,50.090682 C 10.56393,51.100727 7.99948,50.820371 6.13441,51.919028 4.26934,53.017692 2.22887,53.740214 0.2797,54.649123 -2.6364,50.434862 -5.55249,46.2206 -8.27239,41.91412 A 78.688324,78.688324 0 0 1 -19.82161,14.089317 c -2.10457,-10.6312539 -1.72711,-21.0271144 4.67032,-30.745972 1.01051,-1.400215 2.00305,-2.327554 3.31731,-1.546883 0.94106,0.490185 1.54715,2.298198 1.60124,3.433875 a 14.755677,14.755677 0 0 1 -1.1482,5.1804647 c -2.68956,7.9898505 -0.85281,15.4944549 2.13619,22.9240643 5.19926,12.673063 12.74876,26.19306 21.47588,36.755816 z"
       fill="#62d19a"
       stroke="#62d19a"
       stroke-width="0.662968" />
    <path
       id="Path_143"
       data-name="Path 143"
       d="m 66.574436,-39.775637 c 4.369847,1.213848 8.455712,1.661822 12.733738,2.686598 0.0027,2.553792 -0.286681,10.427403 3.11e-4,13.080607 0.788899,7.29683 2.34155,14.7020226 2.740497,22.1806917 C 82.538153,5.8444028 83.219479,13.420356 80.3526,21.02839 76.865767,29.854521 70.694848,35.9836 61.913387,40.078468 47.86244,46.630533 33.90031,53.373062 19.65408,60.016187 L 8.33521,65.294266 c -11.85121,4.136449 -20.68327,12.199909 -26.81396,22.490782 -3.06505,5.145294 -4.33679,11.080496 -6.46077,16.715972 -0.21264,0.56367 -0.14058,1.22645 -0.54821,1.88177 -0.40764,0.65533 -1.1173,1.68263 -1.59575,1.67312 a 4.4173552,4.4173552 0 0 1 -2.34441,-1.46192 c -0.46229,-0.48156 -0.88374,-7.711998 -0.30402,-13.091885 -0.15214,-5.471659 5.29304,-15.944689 8.71633,-20.328021 5.83185,-7.364486 12.2148,-14.056948 20.99687,-18.152094 1.95157,-0.91003 3.99436,-1.630716 5.85471,-2.730096 1.66719,-1.010044 7.91186,-3.921978 9.08292,-4.468052 14.4415,-6.734183 28.9721,-13.277298 43.519183,-20.293328 7.025776,-3.276175 10.781668,-8.977699 11.64344,-16.810168 1.018876,-9.5333259 -0.748424,-18.9283303 -2.036955,-28.314709 -0.646586,-5.970404 -0.824441,-16.21119 -1.470152,-22.181274 z"
       fill="#97ed78"
       stroke="#97ed78"
       stroke-width="0.662968" />
    <path
       id="Path_150"
       data-name="Path 150"
       d="m 78.71733,-44.636206 c -4.562724,-1.123903 -8.930768,-2.338586 -13.583185,-3.653284 0.248759,-1.505852 0.884075,-3.199278 0.846458,-4.807877 -0.07832,-8.325292 0.03467,-16.739091 1.677017,-24.937 2.048233,-8.855356 4.560682,-17.223462 9.930238,-25.069503 3.650872,-5.41848 7.656981,-10.07358 13.991063,-12.79533 0.781108,-0.36424 1.473121,-0.91955 2.235952,-0.81002 1.242793,0.1176 2.966171,0.24299 3.888664,1.20633 0.551112,0.67203 0.304349,2.18061 0.163449,3.40794 a 3.9486368,3.9486368 0 0 1 -1.328727,2.24573 c -10.693407,9.16697 -14.497285,21.390279 -16.700248,34.497599 a 115.55531,115.55531 0 0 0 -1.320586,25.699805 c -0.549375,1.880853 -0.03242,3.497798 0.199905,5.01561 z"
       fill="#96ed78"
       style="stroke-width:0.662968" />
    <path
       id="Path_139"
       data-name="Path 139"
       d="m 206.96893,283.89767 c -0.81812,-1.24463 -1.44069,-2.57973 -2.64936,-3.64225 -5.72373,-6.15658 -10.06343,-13.42377 -14.59573,-20.60043 -4.26737,-6.60381 -9.44059,-12.08808 -16.40089,-15.81074 a 24.302414,24.302414 0 0 0 -8.34554,-2.61149 c -8.02382,-0.90348 -16.13734,-1.99776 -23.67689,2.21439 -9.10029,4.94066 -18.00558,9.78965 -27.01704,14.92078 -0.58523,0.27289 -2.08061,0.61762 -2.66584,0.89051 -0.5534,-3.2261 0.2812,-6.51423 -0.66248,-9.55761 a 19.093476,19.093476 0 0 0 -1.97443,-3.72436 c 0,0 3.58464,-0.97515 4.27634,-1.52958 4.61191,-2.84769 9.33028,-5.97692 14.03069,-8.63326 6.65258,-3.56665 13.10988,-7.04225 20.79524,-7.37445 3.26582,-0.12936 6.70956,0.12282 9.97539,-0.007 10.36595,-0.18867 19.54636,3.19513 27.57657,9.20593 6.34388,4.94204 11.0028,11.3596 15.46244,17.87374 l 11.20087,16.37755 c 3.23399,3.36963 6.4683,6.73838 9.792,10.2988 a 91.032123,91.032123 0 0 0 32.18735,22.15121 c 5.57612,2.27748 11.45369,4.18177 17.84215,2.5963 3.48027,-0.69386 4.988,-0.003 5.20293,1.987 0.32111,1.70828 -1.25727,2.9088 -4.27344,4.08338 -10.68015,3.59038 -21.01338,2.83112 -30.92282,-1.60625 -6.89038,-3.05815 -13.05494,-7.61565 -18.82895,-12.35527 -2.78966,-2.41519 -5.77401,-4.73961 -8.65217,-7.34616 -2.31029,-2.40685 -4.9935,-5.10358 -7.67639,-7.80119 z"
       fill="#62d19a"
       style="stroke-width:0.662968" />
    <path
       id="Path_140"
       data-name="Path 140"
       d="m 27.89176,176.0205 c -8.64724,13.555 -12.3412,28.05178 -9.75028,43.79841 0.1432,1.32675 -0.10357,2.83533 0.0391,4.16235 a 107.96101,107.96101 0 0 0 2.46068,11.39494 c 0.33847,1.23568 1.0675,2.28925 1.40597,3.52493 0.51638,1.61723 0.92775,3.5175 -1.02382,4.42753 -1.95157,0.91004 -3.05499,-0.43345 -4.15541,-1.77833 A 7.726228,7.726228 0 0 1 15.69405,239.5426 C 13.5417,235.43671 11.19439,231.42098 9.04144,227.31536 6.08833,221.49223 5.74436,215.14955 5.87915,208.81551 6.13778,201.72734 6.68049,194.73858 9.42443,187.885 c 1.78992,-4.31882 3.6821,-8.91719 5.66579,-13.32563 1.85985,-3.65429 4.00465,-7.20738 5.86307,-10.8632 6.04099,-10.48166 12.17169,-20.77253 18.12387,-31.44466 a 59.343583,59.343583 0 0 0 4.7441,-11.73493 c 1.30875,-4.32633 0.70305,-8.68893 -1.06143,-12.97643 C 39.43152,98.873056 33.35288,91.952226 27.07984,85.122781 20.89563,78.483807 14.62199,71.654641 8.43778,65.015667 l 11.32188,-5.279472 c 1.65272,2.016351 3.30605,4.032423 5.15405,5.957715 7.00205,7.883013 14.11057,15.484491 21.0241,23.17763 a 37.192499,37.192499 0 0 1 9.161955,19.6479 41.388423,41.388423 0 0 1 -0.03759,14.1853 c -0.723517,4.05342 -3.168605,7.98062 -4.850285,12.01706 -4.49733,10.22634 -10.30892,19.67203 -16.1214,29.11738 -2.07106,4.21949 -4.03734,8.15383 -6.19866,12.18132 z"
       fill="#62d19a"
       style="stroke-width:0.662968" />
    <path
       id="Path_141"
       data-name="Path 141"
       d="m 110.3611,242.31326 c 0.12093,-3.30793 0.0457,-6.52511 0.16903,-9.83417 0.32746,-8.97829 0.93903,-17.85718 -1.71524,-26.60669 -3.17066,-10.36675 -8.31084,-19.35059 -17.778237,-25.3876 -2.060644,-1.36163 -3.624552,-3.18751 -5.489918,-4.6402 C 78.26079,170.41649 69.404733,168.74166 60.527824,167.53665 52.4149,166.4421 44.2843,165.82103 36.2602,164.91695 c -0.56847,-0.19942 -1.55487,-0.0401 -2.21452,-0.43037 -2.25041,3.83643 -3.88291,7.22377 -6.04563,11.24825 1.43808,0.0265 2.98173,-0.22878 4.31335,0.0793 10.49238,1.6104 20.984441,3.22167 31.387727,4.64099 a 45.358275,45.358275 0 0 1 26.445737,13.9138 c 9.436165,9.53572 10.815796,21.66664 9.196946,34.49866 a 21.890537,21.890537 0 0 0 -0.491469,5.56916 c 0.236591,6.62537 0.387655,13.05946 0.624885,19.68306 0.252266,3.59841 0.682644,7.58192 1.571104,9.48723 0.88845,1.90531 0.52867,4.37 1.41853,6.27831 0.88985,1.90831 0.63286,3.21611 1.23863,5.025 2.6369,9.22213 5.38059,18.16184 10.74985,26.11057 5.636,8.52075 13.89533,13.49496 23.27162,16.78742 1.42071,0.49914 3.05499,0.43346 3.49582,-1.16562 0.12383,-0.75413 -0.97839,-2.09818 -1.81388,-2.87022 -2.78966,-2.41519 -6.37659,-3.99412 -8.58043,-6.68249 -11.03741,-12.9696 -16.91333,-28.11344 -18.5984,-44.9796 a 14.551483,14.551483 0 0 1 -5e-5,-3.51558 c -0.5534,-3.22611 -0.13478,-5.94427 -1.07873,-8.98825 a 15.364944,15.364944 0 0 1 -0.62259,-5.74166 z"
       fill="#96ed78"
       style="stroke-width:0.662968" />
    <path
       id="Path_142"
       data-name="Path 142"
       d="M 67.257307,-38.131549 A 165.58552,165.58552 0 0 0 33.84628,-42.526184 c -8.9108,-0.257994 -17.09027,3.091651 -24.73656,7.584724 -2.05775,1.19216 -3.8314,2.483734 -5.79973,3.866082 -1.6672,1.010045 -3.12444,1.456951 -4.50863,0.01173 -1.67068,-1.543469 -1.22805,-3.143389 -0.11196,-4.825456 a 30.177636,30.177636 0 0 1 11.49128,-10.003523 58.445262,58.445262 0 0 1 32.67072,-6.873512 c 1.91805,0.03461 3.85165,-0.402541 5.66533,-0.08664 5.733783,0.57783 11.75194,1.255668 17.575424,2.024286 4.562717,1.12391 8.930761,2.338593 13.583178,3.653285 9.694513,2.446955 19.087568,5.267094 28.887928,7.432798 a 63.279624,63.279624 0 0 0 14.05746,1.112527 c 4.89918,-0.193885 7.62837,-4.02167 9.48823,-7.675969 3.52444,-7.217532 6.48042,-14.634499 9.43671,-22.052334 2.51394,-5.817325 4.7441,-11.734937 7.73741,-17.543901 1.96784,-3.937274 4.78517,-7.571339 7.03414,-11.40928 0.76315,0.108641 1.91805,0.03461 2.57442,0.425665 2.50556,2.315787 4.7094,5.004162 7.01942,7.41041 -1.02847,1.873097 -2.25042,3.836416 -3.36595,5.519685 -4.87342,7.382068 -7.75765,15.462706 -10.83745,23.633798 -2.77806,7.798499 -5.64554,15.406811 -11.81585,21.535611 -6.57824,6.783519 -14.68482,10.797763 -23.8979,10.911157 -12.08812,0.06272 -23.965892,-2.992299 -35.436947,-6.70147 -4.563281,-1.125103 -8.933128,-2.33895 -13.299646,-3.555072 z"
       fill="#62d19a"
       style="stroke-width:0.662968" />
    <path
       id="Path_144"
       data-name="Path 144"
       d="m 212.67103,272.17934 c 2.16071,-4.0272 4.51759,-8.14515 6.58949,-12.36283 4.47998,-9.75375 8.87114,-19.69796 16.08641,-28.17279 4.41402,-5.30983 8.9886,-9.76552 15.97965,-12.09648 7.4707,-2.32202 14.65904,-2.19058 21.8856,-0.45082 7.50948,1.83825 15.00361,4.15182 22.51394,5.99188 3.79957,1.01526 7.61651,1.55792 11.52255,2.29165 3.60429,1.10631 7.29828,2.40343 11.09786,3.41869 0.47937,0.008 11.43344,2.10058 16.68845,2.66978 12.53305,0.89143 24.5115,-1.44268 36.16883,-5.48506 2.62562,-0.99247 4.91305,-3.22001 7.27254,-4.78476 1.08196,-0.73715 1.98749,-1.85579 2.96208,-2.31025 0.78111,-0.36424 2.21858,-0.33742 2.68059,0.14353 0.46201,0.48096 0.41021,1.89936 0.28639,2.65349 -0.0174,0.4726 -0.5141,0.93685 -0.81523,1.30916 -5.74564,5.00176 -10.74462,10.58509 -17.68157,14.05173 -10.44955,5.10459 -21.70218,5.93935 -32.99183,5.16523 -4.11807,-0.17035 -8.14821,-0.15055 -12.17722,-0.12835 -3.99485,-0.9242 -7.90004,-1.65613 -11.89573,-2.58213 -0.85196,-0.29912 -1.59835,-0.88009 -2.36298,-0.98877 -8.84194,-2.14812 -17.77271,-4.4867 -26.61525,-6.63454 -3.99485,-0.92421 -7.77707,-2.41206 -11.77192,-3.33627 -7.61678,-1.55852 -14.82309,-1.21708 -20.9934,4.91172 a 67.835539,67.835539 0 0 0 -11.83544,16.90042 c -4.25058,8.71777 -10.02929,19.26147 -14.27987,27.97924 -0.42592,1.12908 -4.98968,-4.59184 -8.31394,-8.15347 z"
       fill="#97ed78"
       stroke="#97ed78"
       stroke-width="0.662968" />
    <path
       id="Path_148"
       data-name="Path 148"
       d="m 99.92044,254.14754 c 0.76865,5.21563 0.93306,9.55433 1.82292,11.46263 l -1.951569,0.91004 c -7.751306,4.77612 -17.331238,9.70782 -26.187932,10.5855 -11.359094,1.11629 -22.755209,0.6237 -33.304569,-4.67616 -6.21845,-3.13886 -10.64136,-8.04473 -14.56998,-13.41225 -0.55111,-0.67203 -0.67694,-2.47137 -0.18081,-2.93534 a 4.0089669,4.0089669 0 0 1 3.39117,-0.88494 c 0.95903,0.0173 1.79391,0.78962 2.62972,1.56078 5.45699,5.58456 12.18533,7.78854 19.83624,8.40213 6.12434,0.39571 12.337774,0.9825 18.390373,0.71454 9.602202,-0.29703 18.011074,-4.68267 26.154415,-9.64086 0.98714,-0.92482 2.798965,-1.53999 3.970022,-2.08607 z"
       fill="#62d19a"
       style="stroke-width:0.662968" />
    <path
       id="Path_152"
       data-name="Path 152"
       d="m 280.11323,-59.58059 c -1.08715,-4.370728 -1.89112,-8.640878 -2.97887,-13.011328 3.86842,-0.874859 7.72007,-1.2774 11.49968,-2.342736 a 110.61487,110.61487 0 0 1 31.82076,-4.61915 c 5.66232,-0.08524 11.00616,0.674424 15.80177,3.315861 3.28607,1.95183 7.08565,2.967093 10.37173,4.918923 a 22.710629,22.710629 0 0 1 5.48991,4.640212 c 0.55111,0.672024 0.7834,2.189836 0.48226,2.562146 -0.60319,0.745779 -1.95157,0.910029 -3.10527,0.983506 a 2.5663488,2.5663488 0 0 1 -1.42043,-0.498539 c -8.20464,-3.838816 -16.92075,-4.18759 -25.93532,-4.164578 -14.18736,-0.352626 -28.32849,3.453731 -42.02622,8.215683 z"
       fill="#96ed78"
       stroke="#96ed78"
       stroke-width="0.662968" />
    <path
       id="Path_155"
       data-name="Path 155"
       d="m 309.4136,241.83949 c 3.99485,0.92421 7.33085,1.32025 11.32598,2.24506 0.21694,4.54389 0.52298,9.27885 0.54764,13.9124 -0.20135,10.77824 -1.36081,21.53802 -6.23133,31.47388 -1.13345,2.15467 -2.46246,4.3998 -4.34173,5.9747 -5.24923,4.5384 -10.76487,8.5039 -16.38729,12.75181 -1.27752,0.8276 -2.78496,2.68851 -4.26137,1.0581 -1.47642,-1.63041 -0.73188,-3.60884 0.38625,-5.28967 a 53.747471,53.747471 0 0 1 5.33483,-6.90084 c 9.55707,-9.56609 13.71678,-21.02632 13.80822,-34.07803 0.0304,-6.05275 0.16402,-12.38623 0.10382,-18.62861 -0.44425,-0.9574 -0.12447,-1.66466 -0.28502,-2.5188 z"
       fill="#62d19a"
       style="stroke-width:0.662968" />
    <path
       id="Path_157"
       data-name="Path 157"
       d="m 206.9686,283.89781 c 2.68405,2.69853 5.27908,5.20303 7.96048,7.9006 -4.92696,6.24759 -9.6774,12.87373 -14.88901,19.02072 -4.71549,5.68302 -10.07057,10.50266 -16.99016,13.49671 a 20.060083,20.060083 0 0 1 -6.88487,2.04884 c -7.40126,0.43161 -14.80284,0.8641 -22.22435,-0.78547 -0.76315,-0.10865 -1.98919,-0.69857 -1.97183,-1.17117 -0.0717,-0.66367 0.63732,-1.6907 1.13345,-2.15466 a 7.2555208,7.2555208 0 0 1 2.73208,-1.274 c 5.51885,-1.41258 11.2153,-2.44275 16.84061,-4.13686 8.81909,-2.48627 15.54051,-7.94305 21.16004,-14.74476 4.71572,-5.68093 8.88009,-12.03598 13.13356,-18.19995 z"
       fill="#96ed78"
       stroke="#97ed78"
       stroke-width="0.662968" />
    <path
       id="Path_159"
       data-name="Path 159"
       d="m 20.95625,163.69397 c -1.85986,3.6543 -4.00466,7.20739 -5.86367,10.86349 -2.55678,-0.89767 -5.30911,-1.70487 -7.86616,-2.60313 -8.06144,-2.51208 -14.81124,-6.79668 -21.43749,-11.83601 -11.84831,-9.10513 -16.56695,-21.77188 -19.61728,-35.44627 -0.24965,-1.04522 0.58355,-2.82726 1.46931,-3.47218 1.4734,-0.91895 2.87708,0.0519 3.78221,1.48785 l 0.62285,1.33571 c 2.84954,8.65846 8.14707,15.94352 14.24459,22.3903 3.69721,3.85003 8.27958,7.0554 12.96873,9.97837 4.77741,3.11224 9.96441,5.57336 15.68084,6.6238 1.89712,0.50741 4.00864,0.4518 6.01607,0.67807 z"
       fill="#96ed78"
       style="stroke-width:0.662968" />
    <path
       id="Path_160"
       data-name="Path 160"
       d="m 171.46119,-94.387194 c -0.65757,-0.390494 0.066,-4.44392 -0.39486,-4.925433 -2.41647,-2.124723 -4.92325,-4.439943 -7.33791,-6.565493 1.72048,-2.42842 3.15386,-4.95483 5.24661,-7.09159 6.95082,-6.49277 13.17183,-14.04237 21.97326,-18.6074 7.32663,-3.64908 14.9926,-6.06216 23.40518,-5.33995 a 2.9674443,2.9674443 0 0 1 1.04784,0.20777 c 1.61599,0.40809 4.83057,0.49354 5.02846,2.95567 0.19789,2.46214 -2.63043,1.53748 -6.97466,2.1763 -4.34424,0.63882 -8.85012,2.72093 -10.69583,3.34971 -6.79577,2.23991 -13.8391,9.64337 -14.31789,9.97197 -7.54171,5.15971 -12.44145,16.36007 -16.9802,23.868446 z"
       fill="#62d19a"
       stroke="#62d19a"
       stroke-width="0.662968" />
    <path
       id="Path_168"
       data-name="Path 168"
       d="m 35.83099,245.01567 c -0.47966,-0.009 -1.54426,0.25559 -1.72217,-0.12596 a 3.6947201,3.6947201 0 0 1 -0.10848,-2.27194 5.1711497,5.1711497 0 0 1 1.6131,-2.14572 c 6.43706,-5.55679 13.15848,-11.01356 19.59581,-16.56975 4.841317,-3.88367 9.967,-7.66734 14.719492,-11.74148 3.566078,-3.05275 7.039645,-6.30229 10.604318,-9.35804 1.188423,-1.01867 2.393606,-2.50968 3.779321,-1.06594 0.373192,0.29049 -0.583544,2.82726 -1.57549,3.75432 -4.167264,3.80124 -8.707719,7.31201 -12.963197,10.92251 -8.317164,7.12989 -16.346952,14.3584 -24.756214,21.29861 -2.58889,2.60074 -5.83446,4.8113 -9.18649,7.30339 z"
       fill="#9bf799"
       style="stroke-width:0.662968" />
    <path
       id="Path_169"
       data-name="Path 169"
       d="m 276.51068,296.9928 c -1.28302,-4.27938 -2.54808,-9.03165 -4.00875,-13.69198 -3.38618,-12.35688 -6.96708,-24.62151 -10.35354,-36.97899 -0.85486,-2.85291 -1.6209,-5.51535 -2.28108,-8.45904 -0.0717,-0.66367 0.53086,-1.40917 0.85055,-2.25464 a 8.4733928,8.4733928 0 0 1 1.77655,1.26223 c 0.46201,0.48095 0.62285,1.33569 0.9784,2.09818 2.20934,7.79536 4.50685,15.78296 6.52271,23.66855 3.13654,11.31166 6.36216,22.8144 9.49809,34.12635 a 3.5077632,3.5077632 0 0 1 0.42729,1.42616 9.8357918,9.8357918 0 0 1 -0.74349,1.97283 c -0.65729,-0.3899 -1.42043,-0.49854 -1.88273,-0.98009 -0.26761,-0.57234 -0.33907,-1.23541 -0.784,-2.18956 z"
       fill="#9af797"
       style="stroke-width:0.662968" />
    <path
       id="Path_170"
       data-name="Path 170"
       d="m 348.78171,-48.865417 a 12.833733,12.833733 0 0 1 1.91806,0.03461 c -0.12355,0.754729 0.12583,1.799341 -0.3703,2.263312 a 18.058583,18.058583 0 0 1 -3.58144,3.52807 c -4.94776,4.165202 -10.17964,8.230999 -15.12825,12.394396 -8.40598,6.939424 -16.52787,13.97826 -24.84503,21.1081485 a 4.0620044,4.0620044 0 0 1 -1.18842,1.0186767 10.64859,10.64859 0 0 1 -2.50268,0.2380121 c 0.12354,-0.754736 -0.12644,-1.7990693 0.28148,-2.4537833 a 25.723155,25.723155 0 0 1 3.2827,-3.156881 c 7.62548,-6.575468 15.33945,-12.959584 22.9652,-19.534449 5.63918,-4.72023 11.08337,-9.3488 16.81224,-13.878243 0.69017,-0.552988 1.47068,-0.916944 2.35644,-1.561866 z"
       fill="#99f797"
       stroke="#9cf79a"
       stroke-width="0.662968" />
    <path
       id="Path_172"
       data-name="Path 172"
       d="m 163.56879,250.94819 c -0.0347,0.94521 -0.15827,1.69994 -0.19239,2.64486 -2.50554,13.47811 -5.1005,26.76602 -7.60605,40.24412 -0.83034,4.33732 -1.56998,8.8613 -2.59463,13.28704 -0.12355,0.75473 -1.01051,1.40021 -1.6131,2.14571 -0.35584,-0.76308 -1.10222,-1.34404 -0.9784,-2.09818 0.38766,-2.73591 0.77501,-5.47094 1.35734,-8.29764 2.85848,-15.26881 5.82402,-30.81944 8.87806,-46.17871 0.21264,-0.56367 0.14059,-1.22645 0.54822,-1.88177 a 2.478837,2.478837 0 0 1 1.47312,-0.91955 4.4173552,4.4173552 0 0 0 0.72783,1.05412 z"
       fill="#a1f79f"
       style="stroke-width:0.662968" />
    <path
       id="Path_178"
       data-name="Path 178"
       d="m -19.35336,116.99282 c 0.90405,-1.11869 1.31137,-1.77313 1.70192,-1.95525 a 25.729784,25.729784 0 0 1 4.52839,-0.48549 c 12.67335,-0.33561 25.24052,-0.3891 37.91387,-0.72472 3.06915,-0.0413 6.24788,-0.35902 9.22961,-0.5878 a 7.7361725,7.7361725 0 0 1 2.57413,0.42507 2.2746429,2.2746429 0 0 1 0.71167,1.52616 c 0.0888,0.19047 -0.79787,0.83656 -1.08225,0.73654 -5.09385,0.28467 -10.18803,0.57022 -15.3707,0.66441 -4.41953,0.20284 -8.73344,0.12235 -12.95773,0.23561 -7.2954,0.15036 -14.78547,0.39151 -22.27555,0.63265 -1.3517,0.16653 -2.77181,-0.33288 -4.97336,-0.46718 z"
       fill="#a5f7a3"
       style="stroke-width:0.662968" />
    <path
       id="Path_181"
       data-name="Path 181"
       d="m 31.14798,215.6122 c -0.56848,-0.19943 -1.63336,0.0645 -1.81128,-0.31703 a 3.1245677,3.1245677 0 0 1 -0.19756,-2.46301 c 0.40731,-0.65444 1.3843,-1.11002 1.98749,-1.85579 5.63918,-4.72024 11.38483,-9.722 17.02489,-14.44191 a 16.738614,16.738614 0 0 1 3.83168,-2.48314 c 0.585231,-0.2729 1.810674,0.3173 2.557056,0.89827 0.373191,0.29048 -0.158264,1.69993 -0.654674,2.1633 -6.721432,5.45678 -13.442852,10.91356 -20.359562,16.46139 a 16.147909,16.147909 0 0 1 -2.37804,2.03792 z"
       fill="#9cf79a"
       style="stroke-width:0.662968" />
    <path
       id="Path_182"
       data-name="Path 182"
       d="m 249.31053,290.63098 c -0.749,-3.13415 -1.23094,-5.69718 -1.90728,-8.16883 -1.69323,-6.17874 -3.58146,-12.26582 -5.27442,-18.44397 a 1.548693,1.548693 0 0 1 -0.24964,-1.04521 c 0.51437,-0.93625 1.11728,-1.68263 1.63165,-2.61888 0.55112,0.67202 1.49278,1.16193 1.84861,1.92501 0.94396,3.04399 1.60414,5.98767 2.35221,9.12299 1.35388,4.94274 2.70804,9.88608 3.86845,14.91903 0.24965,1.04522 0.49962,2.08955 0.66018,2.9437 a 16.090894,16.090894 0 0 1 -0.58355,2.82725 11.028471,11.028471 0 0 0 -2.34621,-1.46109 z"
       fill="#9af797"
       style="stroke-width:0.662968" />
    <path
       id="Path_183"
       data-name="Path 183"
       d="m 300.23362,-35.284738 c -0.47965,-0.009 -1.63335,0.06451 -1.81127,-0.317018 a 2.5066816,2.5066816 0 0 1 -0.30434,-2.180608 c 0.31849,-0.844906 1.40046,-1.582054 2.09187,-2.137084 4.04344,-3.047119 8.28244,-6.184695 12.23766,-9.422557 1.68484,-1.482045 3.19389,-3.347351 4.87604,-4.828879 0.69229,-0.554705 1.48956,-1.390986 2.2545,-1.283181 a 2.8799326,2.8799326 0 0 1 2.55706,0.898268 3.6224566,3.6224566 0 0 1 -0.76322,2.445066 c -2.57152,2.128133 -5.23215,4.065193 -7.80339,6.19393 -3.46061,2.775336 -6.63233,5.647843 -10.09082,8.421462 a 16.259288,16.259288 0 0 0 -3.24409,2.210601 z"
       fill="#9af798"
       stroke="#9cf79a"
       stroke-width="0.662968" />
    <path
       id="Path_184"
       data-name="Path 184"
       d="m 64.383467,253.76599 a 11.920163,11.920163 0 0 0 -2.095967,-0.41615 6.5779676,6.5779676 0 0 1 0.565578,-2.35437 9.2609987,9.2609987 0 0 1 1.987492,-1.85579 c 5.05395,-4.44734 9.823805,-8.99408 14.877437,-13.44054 a 18.722214,18.722214 0 0 1 4.132544,-2.85604 c 0.781109,-0.36424 1.918046,0.0346 2.679193,0.14053 -0.318497,0.8449 -0.352944,1.79071 -0.850555,2.25464 -2.091876,2.13708 -4.362541,3.8923 -6.543513,5.83832 -3.865527,3.42866 -7.536652,6.76593 -11.402179,10.19459 a 35.690214,35.690214 0 0 0 -3.35003,2.49481 z"
       fill="#9df79b"
       style="stroke-width:0.662968" />
    <path
       id="Path_186"
       data-name="Path 186"
       d="M 332.01012,0.76200464 C 331.24697,0.65335746 330.28795,0.636054 329.5262,0.53041669 c 0.31822,-0.84550949 0.0695,-1.89040659 0.67264,-2.63618579 1.29548,-1.3004845 2.67951,-2.4111016 3.97499,-3.711586 4.66339,-4.2652169 9.61061,-8.4316189 14.27484,-12.6950329 a 1.9285736,1.9285736 0 0 1 1.27752,-0.82761 7.7348465,7.7348465 0 0 1 2.11213,-0.05589 c -0.12354,0.754729 0.12643,1.799063 -0.0862,2.362725 a 4.8323731,4.8323731 0 0 1 -1.70902,1.954164 c -4.36254,3.892305 -9.00857,7.6849185 -13.46021,11.3861557 a 41.627755,41.627755 0 0 0 -4.57277,4.45484594 z"
       fill="#9cf79a"
       stroke="#9cf79a"
       stroke-width="0.662968" />
    <path
       id="Path_187"
       data-name="Path 187"
       d="m 353.88757,218.87289 a 9.8450734,9.8450734 0 0 1 -1.98858,-0.69885 c -7.72558,-3.82958 -15.25616,-7.75083 -22.78647,-11.67147 -0.37319,-0.29049 -0.94106,-0.49019 -1.11757,-0.86873 -0.26701,-0.57261 -0.62285,-1.33569 -0.32111,-1.70828 a 2.6048009,2.6048009 0 0 1 1.65132,-0.5374 2.5656858,2.5656858 0 0 1 1.42071,0.49913 c 7.24621,3.82124 14.77567,7.74008 22.02332,11.56284 a 4.7137018,4.7137018 0 0 1 1.56362,1.82527 c 0.0856,0.18831 -0.3217,0.84275 -0.44524,1.59749 z"
       fill="#9ff79d"
       style="stroke-width:0.662968" />
    <path
       id="Path_188"
       data-name="Path 188"
       d="m 295.30342,276.15207 c -2.56517,-8.55845 -5.05888,-16.45383 -7.35704,-24.43967 -0.33707,-1.23267 -1.3177,-3.33566 0.81234,-3.86295 1.93421,-0.43743 1.75979,1.73454 2.09822,2.97171 2.3158,7.51384 4.54249,14.8366 6.85829,22.35044 a 3.5097521,3.5097521 0 0 1 0.42757,1.42675 13.348859,13.348859 0 0 1 -0.3168,3.39927 18.372167,18.372167 0 0 1 -2.52258,-1.84555 z"
       fill="#9bf799"
       style="stroke-width:0.662968" />
    <path
       id="Path_189"
       data-name="Path 189"
       d="m 139.45833,262.42302 a 13.325655,13.325655 0 0 1 -0.28148,2.45378 c -1.50354,6.9723 -2.807,13.8513 -4.30841,20.82188 a 15.13622,15.13622 0 0 1 -1.59285,4.22691 2.4271255,2.4271255 0 0 1 -1.56222,0.72847 c -0.47937,-0.008 -0.83548,-0.77204 -0.90694,-1.43511 a 3.7789171,3.7789171 0 0 1 0.35294,-1.79071 c 1.32563,-7.35384 2.93026,-14.60663 4.25344,-21.95786 0.12354,-0.75474 0.26412,-1.98119 1.04463,-2.34514 0.49822,-0.46421 1.65192,-0.53768 3.00089,-0.70222 z"
       fill="#a3f7a1"
       style="stroke-width:0.662968" />
    <path
       id="Path_192"
       data-name="Path 192"
       d="m 176.93524,299.99331 c -1.31346,-0.77738 -2.07801,-0.88903 -2.34502,-1.46164 a 3.9685259,3.9685259 0 0 1 -0.12643,-1.79907 c 0.75764,-4.99834 1.51589,-9.99697 2.36235,-14.80484 a 78.206346,78.206346 0 0 1 1.64172,-8.19763 c 0.12354,-0.75473 1.20639,-1.49156 1.70191,-1.95525 0.35584,0.76308 1.08486,1.81665 0.76576,2.66184 -0.98944,6.03545 -1.9744,12.06954 -3.15732,18.1952 -0.2294,1.03598 -0.0695,1.8904 -0.29885,2.92639 0.0562,1.13543 -0.28028,2.45322 -0.54412,4.435 z"
       fill="#a2f79f"
       style="stroke-width:0.662968" />
    <path
       id="Path_193"
       data-name="Path 193"
       d="m -8.17781,94.591222 c 1.4734,-0.918946 2.26979,-1.755539 3.22849,-1.737353 2.78798,-0.139164 5.66533,-0.08664 8.4491,-0.223845 4.02957,-0.02102 8.16501,-0.32325 12.19314,-0.345771 0.95903,0.0173 2.02302,-0.246962 2.68059,0.143533 0.65757,0.390494 1.10162,1.344326 1.74183,2.207424 -0.78111,0.364235 -1.66748,1.009442 -2.34333,1.092711 -4.89918,0.193885 -9.6022,0.297036 -14.5902,0.30045 -2.87707,-0.05191 -5.75414,-0.103827 -8.71611,-0.348774 -0.75906,-0.106161 -1.22196,-0.587436 -2.64351,-1.088375 z"
       fill="#a4f7a2"
       style="stroke-width:0.662968" />
    <path
       id="Path_194"
       data-name="Path 194"
       d="m 21.2634,136.83988 c -2.98173,0.22878 -5.7685,0.36738 -8.55495,0.50509 -4.13544,0.30225 -8.07591,0.51432 -12.21134,0.81657 a 5.1161233,5.1161233 0 0 1 -2.3965,-0.0442 c -0.76315,-0.10864 -1.31346,-0.77739 -1.97155,-1.17056 0.69202,-0.55531 1.29521,-1.30109 1.96893,-1.38264 3.85106,-0.40226 7.898,-0.89586 11.83815,-1.10705 3.4597,-0.22342 6.81603,-0.15872 10.17067,-0.0976 0.67433,-0.0818 1.22604,0.58992 1.88273,0.98009 0.17791,0.38154 -0.42528,1.12732 -0.72614,1.50023 z"
       fill="#a6f8a4"
       style="stroke-width:0.662968" />
    <path
       id="Path_195"
       data-name="Path 195"
       d="m 266.29463,-67.304868 c 0.6972,4.552567 1.58939,9.013466 2.28574,13.56423 -0.95903,-0.0173 -2.29004,-0.325656 -2.98173,0.22877 q -7.92922,4.394583 -15.59231,9.361459 c -6.58113,4.229722 -13.39426,6.942235 -21.1858,7.556567 a 35.082273,35.082273 0 0 1 -24.00611,-7.15408 c -8.11902,-6.201262 -14.64171,-14.075922 -21.05854,-22.231833 -4.12417,-5.277058 -8.33572,-10.74307 -12.85069,-15.840093 -1.65273,-2.016357 -4.10392,-3.19587 -6.06019,-4.838791 -2.31029,-2.406845 -4.70941,-5.004167 -7.0197,-7.411013 -0.46201,-0.48095 -3.43047,-3.278011 -4.35357,-4.241078 -8.19048,-6.86434 -16.80592,-12.60223 -27.56471,-14.78552 -2.09597,-0.41615 -4.29659,-0.55161 -6.39191,-0.96952 a 21.521927,21.521927 0 0 1 -5.1312,-1.32333 c -0.85196,-0.29911 -2.14973,-1.55271 -2.02651,-2.30655 a 3.9778074,3.9778074 0 0 1 2.02041,-2.80016 c 5.37534,-2.73845 10.84271,-2.73351 16.55913,-1.68308 11.14935,2.00116 20.33298,7.93788 29.12573,14.0576 a 19.057675,19.057675 0 0 0 3.57017,2.05124 c 2.41647,2.12472 4.92325,4.43995 7.33792,6.5655 0.28409,0.09941 0.44465,0.953553 1.45805,2.107131 0,0 3.9969,3.476199 5.82838,5.875891 l 25.33321,31.39104 a 68.77629,68.77629 0 0 0 10.82188,10.979464 c 4.19218,3.385134 9.43039,4.428135 14.41517,1.871804 6.15557,-3.103008 12.22292,-6.396765 18.11175,-10.071782 6.36937,-3.665748 12.45348,-7.431824 19.35543,-9.953866 z"
       fill="#96ed78"
       style="stroke-width:0.662968" />
    <path
       id="Path_138"
       data-name="Path 138"
       d="m 363.54924,143.29511 -27.90661,13.01306 c -3.90555,1.82119 -7.80629,3.64013 -11.99292,5.3605 -5.83735,2.2575 -8.40626,6.93883 -9.94414,12.30173 a 45.392749,45.392749 0 0 0 -0.84731,20.60145 c 1.83784,10.05924 3.76777,20.30815 5.60681,30.36683 a 51.77249,51.77249 0 0 1 0.94656,5.59718 5.1751275,5.1751275 0 0 1 -2.0827,-2.6e-4 c -3.6043,-1.10632 -6.77606,-2.30315 -10.38035,-3.40947 -1.51793,-8.35039 -3.51606,-16.08186 -4.75021,-24.33195 -1.89401,-11.19468 -4.07212,-22.48876 0.28202,-34.04185 3.29216,-8.73536 7.77503,-15.93531 17.30288,-19.44921 12.54403,-4.68847 24.66137,-10.80339 37.04452,-16.34513 3.90554,-1.82118 8.00155,-3.73119 11.815,-5.74204 6.36848,-3.66607 12.65665,-6.7263 18.59564,-11.55342 0.14612,-0.18079 1.21853,-0.42703 6.2148,-5.53142 4.99627,-5.1044 8.62943,-8.97333 12.86265,-17.218502 0.61995,-1.218098 3.96174,-8.926154 4.49288,-10.334729 0.35294,-1.790709 0.35933,-3.479076 2.4731,-3.302382 1.91805,0.03461 1.65725,1.503651 1.78308,3.302999 0.32541,6.815834 -0.76661,13.13173 -4.25633,19.404074 -2.356,4.11826 -4.62377,8.42728 -7.54792,12.34524 a 57.634452,57.634452 0 0 1 -13.83051,13.64947 c -4.13254,2.85605 -7.98159,5.81178 -12.02503,8.8589 -3.03317,1.64482 -12.68484,5.91285 -13.85591,6.45893 z"
       fill="#62d19a"
       style="stroke-width:0.662968" />
    <path
       id="Path_145"
       data-name="Path 145"
       d="m 266.29556,-67.304882 a 91.677191,91.677191 0 0 0 -1.82227,-10.531006 c -1.24831,-5.224585 -2.7807,-10.548582 -4.41776,-15.591892 -3.15269,-10.83963 -8.87871,-19.55029 -18.32935,-26.05961 -1.02988,-0.68066 -2.1671,-1.08011 -2.61175,-2.03366 -0.63993,-0.8625 -1.15659,-2.48032 -0.8381,-3.32523 0.3185,-0.84491 2.07632,-1.66533 3.03534,-1.64802 a 12.408107,12.408107 0 0 1 5.02557,1.60666 50.45915,50.45915 0 0 1 20.02806,21.55145 c 5.01577,9.738247 7.70765,20.096364 10.68363,30.553887 1.08714,4.370729 1.89111,8.640879 2.97886,13.011322 1.00415,9.286364 2.09741,18.763802 3.10184,28.05076 1.0744,7.399246 2.05477,14.603135 3.60982,22.0072068 1.56942,6.9328741 6.29679,11.4641537 12.91955,13.9499717 9.27063,3.5772754 18.99875,5.0766237 28.5321,6.6697155 8.20174,1.285024 17.36345,2.61763 25.56519,3.902654 -0.7779,2.917151 -2.51488,5.78704 -3.5766,8.605376 -0.42528,1.127324 -0.35808,1.989892 -1.35063,2.917225 -6.67545,-1.067737 -14.69172,-2.171512 -21.26339,-3.520254 -6.95922,-1.16803 -14.11404,-2.244113 -21.0559,-3.88474 -10.17356,-2.45619 -17.90315,-8.84197 -23.6442,-17.0781857 -5.38755,-7.4749698 -7.66803,-15.9342873 -9.06213,-25.0388123 -1.5379,-10.430992 -3.66131,-20.58968 -5.30455,-30.736735 -0.61394,-4.364616 -1.50613,-8.825522 -2.20333,-13.378083 z"
       fill="#62d19a"
       style="stroke-width:0.662968" />
    <path
       id="Path_146"
       data-name="Path 146"
       d="m 350.37108,23.32263 c 1.06199,-2.817739 4.49734,-10.226346 4.72674,-11.262326 3.02401,-9.3103702 5.85468,-18.5239932 7.74376,-28.23048 1.65768,-8.673238 2.64383,-17.258632 1.90641,-25.972985 -0.16055,-0.854142 0.54822,-1.881768 0.86672,-2.726681 0.94106,0.490185 2.18478,0.606622 2.82378,1.470277 0.81813,1.244636 1.81388,2.870213 2.04533,4.386229 1.48201,9.296154 3.92304,18.609613 2.14282,28.033456 -1.18232,6.1253863 -2.84461,12.2426972 -4.22222,18.4591484 -0.68879,3.1082186 -4.72123,16.3693136 -6.38581,19.9325546 -2.66014,4.491979 -5.40428,8.791246 -8.06201,13.282098 -0.70905,1.02703 -1.04463,2.345143 -1.7534,3.372769 -4.09232,7.017834 -8.55843,13.745466 -12.56224,20.954652 -2.67509,4.963455 -5.54458,10.018294 -5.09443,16.078835 0.20078,5.015936 2.05168,9.49502 4.96717,13.709566 7.20023,10.345747 16.1926,18.929727 25.07654,27.791017 a 34.686481,34.686481 0 0 0 4.9388,3.96818 c -3.90554,1.82119 -8.00156,3.73119 -11.81588,5.74173 a 59.136737,59.136737 0 0 0 -3.85656,-4.70473 c -5.17282,-5.48812 -10.53779,-10.88005 -15.51392,-16.45623 -7.10853,-7.60148 -10.61656,-16.649274 -11.38979,-26.973064 -0.77323,-10.323782 2.35685,-19.911836 7.38793,-28.993562 4.53495,-8.617754 8.87375,-17.144767 13.12461,-25.861934 -0.17648,-0.380019 2.48097,-4.871481 2.90565,-5.99852 z"
       fill="#96ed79"
       stroke="#96ed79"
       stroke-width="0.662968" />
    <path
       id="Path_151"
       data-name="Path 151"
       d="m 367.05717,141.69781 c 3.14,-1.92871 7.11865,-3.12563 10.25864,-5.05434 5.06524,5.76724 10.41457,11.63391 15.47981,17.40115 7.19761,7.79255 12.53516,16.68509 15.42056,26.9515 1.95996,6.75075 0.84938,13.53982 -2.35685,19.91184 -1.5584,3.28111 -3.02887,6.75237 -6.18478,9.1552 -1.57838,1.20052 -3.14,1.92871 -4.43789,0.67956 -0.9243,-0.9625 2.87618,-3.5847 4.43682,-7.81635 1.56065,-4.23165 1.16334,-1.37054 2.72777,-8.24833 1.56443,-6.8778 -2.63518,-13.45396 -7.15219,-21.10297 -2.16972,-3.6333 -5.2258,-6.62139 -7.98074,-9.98179 -6.36293,-7.0238 -13.56464,-14.77494 -20.21115,-21.89547 z"
       fill="#96ed78"
       stroke="#97ed78"
       stroke-width="0.662968" />
    <path
       id="Path_161"
       data-name="Path 161"
       d="m 361.80701,27.977427 c 1.66458,-3.56324 2.31839,-7.388108 3.98297,-10.951348 7.63387,1.085318 16.26116,2.904874 23.24063,6.154093 a 77.09919,77.09919 0 0 1 12.87759,7.235313 c 8.42316,5.827554 13.70064,13.585737 14.75917,24.008368 a 62.380639,62.380639 0 0 1 0.13483,9.45985 c -0.0347,0.945206 -1.32901,2.245127 -2.10952,2.60909 -1.65131,0.537402 -2.36269,-0.988167 -2.98554,-2.323862 a 5.5026336,5.5026336 0 0 1 -0.48226,-2.562145 c -0.98707,-9.759571 -6.28432,-17.04403 -13.85224,-22.573268 -4.0151,-3.005393 -8.93366,-4.892385 -13.56843,-6.679077 -6.90597,-2.584912 -14.45215,-3.48216 -21.9972,-4.377014 z"
       fill="#62d19a"
       style="stroke-width:0.662968" />
    <path
       id="Path_171"
       data-name="Path 171"
       d="m 323.20444,176.50849 c 0.88697,-0.64549 1.48928,-1.39159 1.96893,-1.38264 a 19.739869,19.739869 0 0 1 3.97749,1.39681 c 6.96243,3.72094 14.01336,7.63323 20.97519,11.35445 9.50213,5.09181 19.09307,10.37409 28.6837,15.65725 0.65756,0.39049 0.99603,1.62617 1.63596,2.48867 -0.95903,-0.0173 -2.12948,0.52849 -2.78826,0.13856 -4.90359,-2.35847 -9.6974,-5.00075 -14.40331,-7.4514 -6.02077,-3.23104 -11.95272,-6.2716 -17.97377,-9.50324 -6.48546,-3.71146 -12.87758,-7.23531 -19.36008,-10.9467 a 15.480301,15.480301 0 0 1 -2.71585,-1.75176 z"
       fill="#9ff79d"
       style="stroke-width:0.662968" />
    <path
       id="Path_174"
       data-name="Path 174"
       d="m 347.9093,77.658638 c 2.89264,-0.419845 5.59059,-0.748909 8.28795,-1.077701 5.87468,-0.649503 12.03342,-1.198109 17.90811,-1.847612 9.53074,-0.960104 19.1509,-1.730022 28.57579,-2.408874 a 7.2429244,7.2429244 0 0 1 1.43779,0.02592 c 0.56787,0.199699 0.83489,0.772318 1.2969,1.253268 -0.49614,0.463971 -0.90433,1.118089 -1.3843,1.110014 -2.21858,0.337424 -4.63217,0.766503 -6.93957,0.91345 -11.55437,1.207344 -23.19724,2.223342 -34.75101,3.430408 -3.17673,0.320432 -6.26464,0.831335 -9.44165,1.151171 a 43.450916,43.450916 0 0 1 -4.98799,0.0033 11.722598,11.722598 0 0 1 -1.68745,-1.071151 c 0.97758,-0.455857 1.18962,-1.01924 1.68543,-1.48233 z"
       fill="#a0f79e"
       style="stroke-width:0.662968" />
    <path
       id="Path_185"
       data-name="Path 185"
       d="m 347.4001,162.67088 c 0.12355,-0.75473 0.15827,-1.69993 0.35295,-1.79071 0.86992,-0.17377 1.74013,-0.34694 2.39649,0.0442 2.73469,1.2792 5.25943,3.12155 7.80032,4.49185 4.42243,2.35096 8.93366,4.89239 13.35608,7.24334 0.56847,0.19943 1.42071,0.49915 1.59863,0.88068 0.53234,1.14163 1.33451,2.86187 0.92775,3.51751 -1.01051,1.40022 -2.20094,-0.13458 -3.14408,-0.62453 -4.51124,-2.54142 -9.02248,-5.08285 -13.44489,-7.43381 -2.62972,-1.56078 -5.16977,-2.92928 -7.80032,-4.49186 -0.74575,-0.58272 -1.29686,-1.25474 -2.04293,-1.83659 z"
       fill="#9df79b"
       style="stroke-width:0.662968" />
    <path
       id="Path_190"
       data-name="Path 190"
       d="m 357.13442,56.169494 c -0.58812,-2.280894 0.19239,-2.644851 1.82514,-2.709092 4.13543,-0.302254 8.46586,-0.696163 12.60189,-0.998695 2.98173,-0.22877 6.15846,-0.549209 9.1408,-0.778265 0.47937,0.0084 1.0646,-0.264544 1.54425,-0.255594 1.22576,0.589319 3.41082,1.196538 3.48108,1.860169 0.0196,2.081481 -1.77366,1.291574 -3.21326,1.266481 -7.31216,0.622686 -14.62492,1.24565 -22.13264,1.958792 a 12.25894,12.25894 0 0 1 -3.24726,-0.343796 z"
       fill="#a0f79e"
       style="stroke-width:0.662968" />
    <path
       id="Path_191"
       data-name="Path 191"
       d="m 390.32076,98.295385 c -3.37227,0.410894 -6.65519,1.013459 -9.74338,1.523766 -4.43929,0.676569 -8.76759,1.068749 -13.2933,1.553719 a 9.1177976,9.1177976 0 0 1 -2.3074,0.14695 3.1643458,3.1643458 0 0 1 -1.49277,-1.16193 c -0.0888,-0.19047 0.70905,-1.027028 1.01051,-1.40022 a 4.0626673,4.0626673 0 0 1 1.54425,-0.255594 l 21.66795,-2.439226 c 0.67404,-0.08243 1.25987,-0.355603 1.82895,-0.156461 0.56907,0.199142 1.22603,0.589916 1.20807,1.062797 0.48117,0.0075 -0.12142,0.753013 -0.42288,1.126199 z"
       fill="#a0f79e"
       style="stroke-width:0.662968" />
    <path
       id="Path_239"
       data-name="Path 239"
       d="m 27.89176,176.0205 c -8.64724,13.555 -12.3412,28.05178 -9.75028,43.79841 0.1432,1.32675 -0.10357,2.83533 0.0391,4.16235 a 107.96101,107.96101 0 0 0 2.46068,11.39494 c 0.33847,1.23568 1.0675,2.28925 1.40597,3.52493 0.51638,1.61723 0.92775,3.5175 -1.02382,4.42753 -1.95157,0.91004 -3.05499,-0.43345 -4.15541,-1.77833 A 7.726228,7.726228 0 0 1 15.69405,239.5426 C 13.5417,235.43671 11.19439,231.42098 9.04144,227.31536 6.08833,221.49223 5.74436,215.14955 5.87915,208.81551 6.13778,201.72734 6.68049,194.73858 9.42443,187.885 c 1.78992,-4.31882 3.6821,-8.91719 5.66579,-13.32563 1.85985,-3.65429 4.00465,-7.20738 5.86307,-10.8632 6.04099,-10.48166 12.17169,-20.77253 18.12387,-31.44466 a 59.343583,59.343583 0 0 0 4.7441,-11.73493 c 1.30875,-4.32633 0.70305,-8.68893 -1.06143,-12.97643 C 39.43152,98.873056 33.35288,91.952226 27.07984,85.122781 20.89563,78.483807 14.62199,71.654641 8.43778,65.015667 l 11.32188,-5.279472 c 1.65272,2.016351 3.30605,4.032423 5.15405,5.957715 7.00205,7.883013 14.11057,15.484491 21.0241,23.17763 a 37.192499,37.192499 0 0 1 9.161955,19.6479 41.388423,41.388423 0 0 1 -0.03759,14.1853 c -0.723517,4.05342 -3.168605,7.98062 -4.850285,12.01706 -4.49733,10.22634 -10.30892,19.67203 -16.1214,29.11738 -2.07106,4.21949 -4.03734,8.15383 -6.19866,12.18132 z"
       fill="#62d19a"
       style="stroke-width:0.662968" />
    <path
       id="Path_240"
       data-name="Path 240"
       d="m 110.3611,242.31326 c 0.12093,-3.30793 0.0457,-6.52511 0.16903,-9.83417 0.32746,-8.97829 0.93903,-17.85718 -1.71524,-26.60669 -3.17066,-10.36675 -8.31084,-19.35059 -17.778237,-25.3876 -2.060644,-1.36163 -3.624552,-3.18751 -5.489918,-4.6402 C 78.26079,170.41649 69.404733,168.74166 60.527824,167.53665 52.4149,166.4421 44.2843,165.82103 36.2602,164.91695 c -0.56847,-0.19942 -1.55487,-0.0401 -2.21452,-0.43037 -2.25041,3.83643 -3.88291,7.22377 -6.04563,11.24825 1.43808,0.0265 2.98173,-0.22878 4.31335,0.0793 10.49238,1.6104 20.984441,3.22167 31.387727,4.64099 a 45.358275,45.358275 0 0 1 26.445737,13.9138 c 9.436165,9.53572 10.815796,21.66664 9.196946,34.49866 a 21.890537,21.890537 0 0 0 -0.491469,5.56916 c 0.236591,6.62537 0.387655,13.05946 0.624885,19.68306 0.252266,3.59841 0.682644,7.58192 1.571104,9.48723 0.88845,1.90531 0.52867,4.37 1.41853,6.27831 0.88985,1.90831 0.63286,3.21611 1.23863,5.025 2.6369,9.22213 5.38059,18.16184 10.74985,26.11057 5.636,8.52075 13.89533,13.49496 23.27162,16.78742 1.42071,0.49914 3.05499,0.43346 3.49582,-1.16562 0.12383,-0.75413 -0.97839,-2.09818 -1.81388,-2.87022 -2.78966,-2.41519 -6.37659,-3.99412 -8.58043,-6.68249 -11.03741,-12.9696 -16.91333,-28.11344 -18.5984,-44.9796 a 14.551483,14.551483 0 0 1 -5e-5,-3.51558 c -0.5534,-3.22611 -0.13478,-5.94427 -1.07873,-8.98825 a 15.364944,15.364944 0 0 1 -0.62259,-5.74166 z"
       fill="#96ed78"
       style="stroke-width:0.662968" />
    <path
       id="Path_241"
       data-name="Path 241"
       d="m 101.74128,265.61041 -1.951571,0.91004 c -7.751305,4.77612 -17.331238,9.70782 -26.187932,10.5855 -11.3591,1.11629 -22.755207,0.6237 -33.304567,-4.67616 -6.21846,-3.13886 -10.64136,-8.04474 -14.56998,-13.41226 -0.55111,-0.67202 -0.67694,-2.47136 -0.18081,-2.93533 a 4.0089669,4.0089669 0 0 1 3.39117,-0.88494 c 0.95902,0.0173 1.79391,0.78962 2.62971,1.56078 5.457,5.58457 12.18533,7.78853 19.83625,8.40214 6.124331,0.3957 12.337766,0.98249 18.390371,0.71452 9.602195,-0.29703 18.011075,-4.68266 26.154416,-9.64086 0.989221,-0.92505 4.916813,7.49771 5.792943,9.37657 z"
       fill="#62d19a"
       style="stroke-width:0.662968" />
    <path
       id="Path_242"
       data-name="Path 242"
       d="m 35.83099,245.01567 c -0.47966,-0.009 -1.54426,0.25559 -1.72217,-0.12596 a 3.6947201,3.6947201 0 0 1 -0.10848,-2.27194 5.1711497,5.1711497 0 0 1 1.6131,-2.14572 c 6.43706,-5.55679 13.15848,-11.01356 19.59581,-16.56975 4.841317,-3.88367 9.967,-7.66734 14.719492,-11.74148 3.566078,-3.05275 7.039645,-6.30229 10.604318,-9.35804 1.188423,-1.01867 2.393606,-2.50968 3.779321,-1.06594 0.373192,0.29049 -0.583544,2.82726 -1.57549,3.75432 -4.167264,3.80124 -8.707719,7.31201 -12.963197,10.92251 -8.317164,7.12989 -16.346952,14.3584 -24.756214,21.29861 -2.58889,2.60074 -5.83446,4.8113 -9.18649,7.30339 z"
       fill="#9bf799"
       style="stroke-width:0.662968" />
    <path
       id="Path_243"
       data-name="Path 243"
       d="m 31.14798,215.6122 c -0.56848,-0.19943 -1.63336,0.0645 -1.81128,-0.31703 a 3.1245677,3.1245677 0 0 1 -0.19756,-2.46301 c 0.40731,-0.65444 1.3843,-1.11002 1.98749,-1.85579 5.63918,-4.72024 11.38483,-9.722 17.02489,-14.44191 a 16.738614,16.738614 0 0 1 3.83168,-2.48314 c 0.585231,-0.2729 1.810674,0.3173 2.557056,0.89827 0.373191,0.29048 -0.158264,1.69993 -0.654674,2.1633 -6.721432,5.45678 -13.442852,10.91356 -20.359562,16.46139 a 16.147909,16.147909 0 0 1 -2.37804,2.03792 z"
       fill="#9cf79a"
       style="stroke-width:0.662968" />
    <path
       id="Path_244"
       data-name="Path 244"
       d="m 64.383467,253.76599 a 11.920163,11.920163 0 0 0 -2.095967,-0.41615 6.5779676,6.5779676 0 0 1 0.565578,-2.35437 9.2609987,9.2609987 0 0 1 1.987492,-1.85579 c 5.05395,-4.44734 9.823805,-8.99408 14.877437,-13.44054 a 18.722214,18.722214 0 0 1 4.132544,-2.85604 c 0.781109,-0.36424 1.918046,0.0346 2.679193,0.14053 -0.318497,0.8449 -0.352944,1.79071 -0.850555,2.25464 -2.091876,2.13708 -4.362541,3.8923 -6.543513,5.83832 -3.865527,3.42866 -7.536652,6.76593 -11.402179,10.19459 a 35.690214,35.690214 0 0 0 -3.35003,2.49481 z"
       fill="#9df79b"
       style="stroke-width:0.662968" />
    <g
       id="Group_1"
       data-name="Group 1"
       transform="matrix(0.20485708,0.63048248,-0.63048248,0.20485708,118.3921,-678.24593)">
      <path
         id="Path_245"
         data-name="Path 245"
         d="m 29.364,86.583 c -0.29,0.593 -0.569,2.08 -1.165,2.072 a 5.439,5.439 0 0 1 -3,-1.232 7.347,7.347 0 0 1 -1.833,-3.3 c -3.431,-11.376 -6.567,-23.046 -10,-34.422 -2.2,-8.378 -4.1,-17.05 -6.6,-25.432 C 4.9,17.978 2.73,11.688 0.857,5.4 0.233,3.306 -0.991,0.9 1.679,0.045 2.271,-0.245 4.99,2.474 5.61,4.271 c 2.49,7.487 4.378,15.265 6.564,22.748 4.369,14.668 9.032,29.042 13.1,43.707 1.855,4.795 2.826,10.174 4.09,15.857 z"
         fill="#9bf799"
         transform="rotate(65,160.4464,963.8317)" />
      <path
         id="Path_246"
         data-name="Path 246"
         d="m 15.758,41.693 c -0.588,0.589 -0.866,2.076 -1.463,2.068 A 4.593,4.593 0 0 1 11,42.525 C 10.392,41.625 10.372,40.131 9.76,38.931 6.946,29.054 3.829,18.875 1.014,9 A 22.968,22.968 0 0 1 0.036,2.723 C 0.024,1.828 1.5,0.655 2.683,0.074 c 0.592,-0.291 2.1,1.22 2.413,2.119 3.137,11.67 6.273,23.34 9.414,35.307 a 22.455,22.455 0 0 1 1.248,4.193 z"
         fill="#9cf79a"
         transform="rotate(65,148.06946,926.05891)" />
      <path
         id="Path_247"
         data-name="Path 247"
         d="M 15.738,40.163 A 15.915,15.915 0 0 0 13.981,42.525 9.643,9.643 0 0 1 11.27,40.4 12.937,12.937 0 0 1 10.03,36.805 C 7.23,27.823 4.13,19.135 1.33,10.153 A 25.767,25.767 0 0 1 0.044,3.281 C 0.028,2.088 1.2,0.91 1.789,0.023 2.695,0.93 3.9,1.542 4.205,2.44 c 1.543,3.9 2.489,7.785 3.733,11.678 2.179,6.887 4.353,13.476 6.531,20.362 a 49.275,49.275 0 0 0 1.269,5.683 z"
         fill="#9df79b"
         transform="rotate(65,127.06541,988.39353)" />
    </g>
    <g
       id="Group_2"
       data-name="Group 2"
       transform="matrix(-0.11535642,0.65302339,-0.65302339,-0.11535642,507.69547,-637.11407)">
      <path
         id="Path_245-2"
         data-name="Path 245"
         d="M 25.172,82.586 C 24.891,83.162 24.6,84.598 24.05,84.604 A 4.673,4.673 0 0 1 21.313,83.488 6.74,6.74 0 0 1 19.7,80.355 C 16.794,69.5 14.166,58.355 11.259,47.499 9.421,39.499 7.859,31.205 5.75,23.206 4.166,17.206 2.306,11.206 0.722,5.211 0.19,3.212 -0.885,0.932 1.6,0.045 c 0.553,-0.293 3,2.259 3.531,3.972 2.122,7.139 3.691,14.571 5.538,21.714 3.7,14 7.672,27.707 11.094,41.708 1.599,4.566 2.368,9.715 3.409,15.147 z"
         fill="#9bf799"
         transform="matrix(0.259,0.966,-0.966,0.259,970.713,416.368)" />
      <path
         id="Path_246-2"
         data-name="Path 246"
         d="m 13.66,39.776 c -0.556,0.579 -0.847,2.015 -1.4,2.021 A 3.957,3.957 0 0 1 9.247,40.684 C 8.706,39.83 8.722,38.398 8.185,37.258 5.816,27.83 3.172,18.117 0.8,8.689 A 22.47,22.47 0 0 1 0.041,2.68 C 0.05,1.82 1.441,0.659 2.541,0.074 3.1,-0.219 4.457,1.2 4.722,2.055 6.084,7.828 7.445,13.6 8.874,19.7 c 1.2,5.12 2.465,10.563 3.73,16.073 a 21.445,21.445 0 0 1 1.056,4.003 z"
         fill="#9cf79a"
         transform="matrix(0.259,0.966,-0.966,0.259,930.849,407.661)" />
      <path
         id="Path_247-2"
         data-name="Path 247"
         d="M 13.686,38.283 A 16.35,16.35 0 0 0 12.011,40.594 8.351,8.351 0 0 1 9.558,38.616 12.251,12.251 0 0 1 8.5,35.188 C 6.114,26.619 3.455,18.34 1.074,9.771 A 25.072,25.072 0 0 1 0.046,3.192 C 0.058,2.046 1.171,0.888 1.73,0.022 2.546,0.873 3.64,1.433 3.905,2.29 5.24,6 6.024,9.716 7.083,13.429 8.937,20 10.793,26.281 12.646,32.85 a 47.672,47.672 0 0 0 1.04,5.433 z"
         fill="#9df79b"
         transform="matrix(0.259,0.966,-0.966,0.259,965.29,454.979)" />
    </g>
    <g
       id="Group_3"
       data-name="Group 3"
       transform="matrix(0.20485708,0.63048248,-0.63048248,0.20485708,118.3921,-678.24593)">
      <path
         id="Path_245-3"
         data-name="Path 245"
         d="m 29.364,86.583 c -0.29,0.593 -0.569,2.08 -1.165,2.072 a 5.439,5.439 0 0 1 -3,-1.232 7.347,7.347 0 0 1 -1.833,-3.3 c -3.431,-11.376 -6.567,-23.046 -10,-34.422 -2.2,-8.378 -4.1,-17.05 -6.6,-25.432 C 4.9,17.978 2.73,11.688 0.857,5.4 0.233,3.306 -0.991,0.9 1.679,0.045 2.271,-0.245 4.99,2.474 5.61,4.271 c 2.49,7.487 4.378,15.265 6.564,22.748 4.369,14.668 9.032,29.042 13.1,43.707 1.855,4.795 2.826,10.174 4.09,15.857 z"
         fill="#9bf799"
         transform="rotate(65,160.4464,963.8317)" />
      <path
         id="Path_246-3"
         data-name="Path 246"
         d="m 15.758,41.693 c -0.588,0.589 -0.866,2.076 -1.463,2.068 A 4.593,4.593 0 0 1 11,42.525 C 10.392,41.625 10.372,40.131 9.76,38.931 6.946,29.054 3.829,18.875 1.014,9 A 22.968,22.968 0 0 1 0.036,2.723 C 0.024,1.828 1.5,0.655 2.683,0.074 c 0.592,-0.291 2.1,1.22 2.413,2.119 3.137,11.67 6.273,23.34 9.414,35.307 a 22.455,22.455 0 0 1 1.248,4.193 z"
         fill="#9cf79a"
         transform="rotate(65,148.06946,926.05891)" />
      <path
         id="Path_247-3"
         data-name="Path 247"
         d="M 15.738,40.163 A 15.915,15.915 0 0 0 13.981,42.525 9.643,9.643 0 0 1 11.27,40.4 12.937,12.937 0 0 1 10.03,36.805 C 7.23,27.823 4.13,19.135 1.33,10.153 A 25.767,25.767 0 0 1 0.044,3.281 C 0.028,2.088 1.2,0.91 1.789,0.023 2.695,0.93 3.9,1.542 4.205,2.44 c 1.543,3.9 2.489,7.785 3.733,11.678 2.179,6.887 4.353,13.476 6.531,20.362 a 49.275,49.275 0 0 0 1.269,5.683 z"
         fill="#9df79b"
         transform="rotate(65,127.06541,988.39353)" />
    </g>
    <g
       id="Group_4"
       data-name="Group 4"
       transform="matrix(-0.57414705,0.33148395,-0.33148395,-0.57414705,903.55825,-142.35834)">
      <path
         id="Path_245-4"
         data-name="Path 245"
         d="m 28.3,81.486 c -0.272,0.555 -0.528,1.951 -1.093,1.941 A 5.248,5.248 0 0 1 24.357,82.253 6.984,6.984 0 0 1 22.6,79.138 C 19.284,68.431 16.245,57.449 12.929,46.738 10.8,38.859 8.943,30.7 6.529,22.812 4.719,16.9 2.626,10.974 0.816,5.057 0.212,3.085 -0.962,0.822 1.567,0.029 c 0.56,-0.27 3.154,2.3 3.752,3.992 2.4,7.048 4.235,14.366 6.35,21.409 4.224,13.805 8.725,27.335 12.667,41.135 1.782,4.515 2.728,9.575 3.964,14.921 z"
         fill="#9bf799"
         transform="rotate(65,158.26791,959.57909)" />
      <path
         id="Path_246-4"
         data-name="Path 246"
         d="m 15.14,39.223 c -0.555,0.55 -0.811,1.946 -1.376,1.935 A 4.428,4.428 0 0 1 10.631,39.979 C 10.049,39.128 10.022,37.727 9.431,36.595 6.712,27.3 3.7,17.719 0.976,8.424 A 21.5,21.5 0 0 1 0.014,2.524 C 0,1.683 1.391,0.588 2.511,0.049 c 0.56,-0.27 2,1.158 2.3,2 3.039,10.982 6.077,21.963 9.122,33.226 a 21.145,21.145 0 0 1 1.207,3.948 z"
         fill="#9cf79a"
         transform="rotate(65,146.774,924.11031)" />
      <path
         id="Path_247-4"
         data-name="Path 247"
         d="M 15.105,37.8 A 14.719,14.719 0 0 0 13.451,40.01 9.288,9.288 0 0 1 10.869,38 12.207,12.207 0 0 1 9.669,34.616 C 6.965,26.161 3.98,17.981 1.273,9.527 A 24.155,24.155 0 0 1 0.018,3.06 C 0,1.94 1.106,0.84 1.655,0.009 2.52,0.866 3.662,1.448 3.961,2.293 c 1.484,3.669 2.4,7.328 3.6,10.992 2.1,6.482 4.2,12.684 6.306,19.167 a 46.258,46.258 0 0 0 1.238,5.348 z"
         fill="#9df79b"
         transform="rotate(65,126.48883,982.91957)" />
    </g>
  </g>
</svg>
