<?xml version="1.0" encoding="utf-8"?>
<!-- Generator: Adobe Illustrator 26.3.1, SVG Export Plug-In . SVG Version: 6.00 Build 0)  -->
<svg version="1.1"
	 id="svg873" xmlns:sodipodi="http://sodipodi.sourceforge.net/DTD/sodipodi-0.dtd" xmlns:rdf="http://www.w3.org/1999/02/22-rdf-syntax-ns#" xmlns:svg="http://www.w3.org/2000/svg" xmlns:inkscape="http://www.inkscape.org/namespaces/inkscape" xmlns:cc="http://creativecommons.org/ns#" xmlns:dc="http://purl.org/dc/elements/1.1/" sodipodi:docname="full_logo.svg" inkscape:version="1.0 (4035a4fb49, 2020-05-01)"
	 xmlns="http://www.w3.org/2000/svg" xmlns:xlink="http://www.w3.org/1999/xlink" x="0px" y="0px" viewBox="0 0 1559.5 534.9"
	 style="enable-background:new 0 0 1559.5 534.9;" xml:space="preserve">
<style type="text/css">
	.st0{fill:#FFFFFF;}
	.st1{fill:#98ED7A;}
	.st2{fill:#64D19C;}
	.st3{fill:#64D19A;}
	.st4{fill:#97ED7B;}
	.st5{fill:#9EF79C;}
</style>
<sodipodi:namedview  bordercolor="#666666" borderopacity="1" fit-margin-bottom="10" fit-margin-left="10" fit-margin-right="10" fit-margin-top="10" gridtolerance="10" guidetolerance="10" id="namedview875" inkscape:current-layer="Component_6_4" inkscape:cx="1272.169" inkscape:cy="-340.69929" inkscape:pageopacity="0" inkscape:pageshadow="2" inkscape:window-height="1010" inkscape:window-maximized="1" inkscape:window-width="1620" inkscape:window-x="-6" inkscape:window-y="-6" inkscape:zoom="0.35781374" lock-margins="false" objecttolerance="10" pagecolor="#ffffff" showgrid="false">
	</sodipodi:namedview>
<g>
	<g id="Group_11" transform="translate(-33.015983,-407.04687)">
		<g id="Component_6_4" transform="translate(430.326,453.327)">
			<path id="Path_135" class="st0" d="M545.5,236h-41.1c-4.7,0-5.9,1.2-5.2,6c1.4,11.1,10.6,23,22,26.1c10.9,3.1,19.6,1,28.1-5.8
				c1.4-1.2,2.6-2.7,3.5-4.4c1.2-2.4,2.8-3.4,5.7-3.4c9,0.2,17.7,0,26.7,0.2c3.8,0,4.7,1.5,3.1,5.1c-4,9-9.2,17.2-17,23.2
				c-8.1,6.3-17.7,10.2-27.9,11.4c-13,1.7-26,0.2-38.7-2.7c-10.6-2.4-18.9-8.5-25.5-17.4c-7.3-10.4-12.7-21.8-14.2-34.4
				c-1.7-15-0.5-29.8,5.2-44s14.9-25.7,29.5-31.2c11.1-4.1,22.4-6.5,34.5-4.8c11.8,1.7,23.1,4.8,32.8,11.9
				c9.2,6.8,16.3,15.7,19.8,27.3c3.2,10.2,4.8,20.8,5,31.5c0,5.3,0,5.3-5.2,5.3C572.6,236.2,558.9,236.2,545.5,236L545.5,236z
				 M528.2,215.2L528.2,215.2c7.6,0.2,14.9,0.2,22.4,0.2c4.7,0,5.4-0.7,5.2-5.8c-0.9-11.1-10.4-21.1-20.5-23.5
				c-14.4-3.4-32.1,6-34.7,24c-0.7,4.1-0.2,4.8,4,5.1H528.2z"/>
			<path id="Path_136" class="st0" d="M732.2,248.6v39.9c0,3.9,0,4.1-4,4.1l-26.2,0.7c-4.2,0-4.5,0-4.5-4.6v-76.5
				c0-4.6-0.9-9.1-2.8-13.3c-2.4-5.1-5.9-8.2-10.9-9.4c-11.8-2.9-22.7-1.2-31.9,7.5c-5.2,5.1-5.9,11.6-6.1,18.4v74.1
				c0,4.1,0,4.1-4,4.1c-9-0.2-18.2-0.7-27.1-0.7c-2.8,0-3.5-1-3.5-3.6c0-17.2-0.5-34.6-0.5-51.8c0-23,0.2-45.7,0.2-68.7
				c0-4.1,0-4.4,4-4.4c8.5-0.2,17.2-0.2,25.7-0.5c2.1,0,3.1,1,3.1,3.1c0,3.4-0.2,7-0.2,10.4c0.2,1,0.6,2,1.2,2.9
				c1-0.4,1.9-0.9,2.6-1.7c8-11.4,19.4-16.5,32.6-17.4c4.6-0.2,9.3-0.2,13.9,0c8.7,0.5,16.3,4.8,23.6,9c5.2,2.9,8,8,9.9,13.6
				c3.2,9.3,4.8,19.2,4.7,29C732.2,224.7,732.2,236.8,732.2,248.6L732.2,248.6z"/>
			<path id="Path_132" class="st0" d="M101.4,203.6c1-7.6,1.6-18.9,4.2-29.6c4.4-18.9,13-35.7,28.2-48.8c10.4-9.2,22.7-14.7,36-17.8
				c15.6-3.5,31.7-4.1,47.5-1.6c21.7,3.4,41.2,11.8,55.1,30.2c8.1,10.8,13.3,22.6,17,35.1c6,20.7,6,41.7,2.6,62.4
				c-2.9,17.8-9.9,34.6-22.7,47.7c-13.6,14.2-30.5,23.6-50.4,26.5c-17.2,2.6-33.9,0.3-50.6-3.4c-23.5-5.2-41-18.9-53.8-38.5
				c-6.4-10.3-10.3-22-11.2-34.1C102.4,223.8,102.2,215.4,101.4,203.6L101.4,203.6z M253.3,204.7c0-12.6-1.8-24.6-7-36.2
				c-3.4-7.6-7.6-14.7-14.6-19.7c-14.6-10.2-30.5-12.8-47.8-8.7c-21.4,5.5-33.7,19.9-38.9,40.9c-3.1,13.1-2.9,26.5-2.1,39.9
				c0.8,11.3,3.1,22.6,9.9,32c3.1,4.5,7,9.2,11.5,12.1c15.4,10,32.1,13.4,50.1,7.1c14.9-5.2,25.8-14.4,32.1-29.4
				C252,230.4,253,217.8,253.3,204.7L253.3,204.7z"/>
			<path id="Path_137" class="st0" d="M969.9,293.5c-4.7,0-9.4,0.2-13.9,0c-5.4-0.2-5.9-1-5.9-6.5V175c0-4.6,0.5-9,0.5-13.6
				c0-2.4,0.9-3.4,3.3-3.4c10.6,0,21.2-0.2,31.9-0.2c3.1,0,5,2.2,5,5.6c0,7.5-0.2,15-0.5,22.5c0,1.9-0.2,4.1-0.2,6
				c-0.2,27.3-0.2,54.5-0.5,81.8c0,4.8-0.2,9.9-0.5,14.8c0,4.1-0.5,4.6-4.7,4.8C979.3,293.8,974.6,293.5,969.9,293.5L969.9,293.5z"
				/>
			<path id="Path_147" class="st0" d="M969.4,107.7h15.3c3.8,0,3.8,0,4,3.9c0.2,8.7,0.5,17.4,0.5,26.1c0,5.1-0.7,5.8-5.7,5.8h-28.8
				c-4.7,0-5.2-0.5-5.2-5.3V112c0-3.9,0.2-4.1,4-4.4C959,107.4,964.2,107.7,969.4,107.7L969.4,107.7z"/>
			<path id="Path_133" class="st0" d="M315.7,259.2v-89.5c0-7.5-0.7-6.5,6.4-6.5c7.8,0,15.6,0.2,23.4,0.2c2.6,0,3.8,1,3.5,3.9
				c-0.2,2.4,0,4.9,0.5,7.3c0.5,2.4,1.7,2.7,3.3,0.7c10.6-12.6,24.8-15.7,40.1-14.8c8.7,0.5,17,2.7,24.3,7.5
				c7.1,4.6,13,10.8,17.2,18.2c9.9,16.5,12.5,34.6,9.9,53.5c-1,8.2-2.9,16.2-5.7,24c-6.6,16.5-18.4,28.6-35.6,32.2
				c-18.4,3.9-35.6,0-49.1-15c-0.8-0.7-1.7-1.3-2.6-1.9c-0.2,1.2-0.9,2.4-0.9,3.4c-0.2,22.5-0.2,45-0.2,67.3v3.1
				c0.2,1.3-0.8,2.5-2.1,2.7c-0.2,0-0.3,0-0.5,0h-29.3c-1.9,0-2.8-1-2.8-2.9v-4.8C315.4,318.2,315.4,288.7,315.7,259.2L315.7,259.2z
				 M410.6,228.4c-0.9-6-1.7-12.3-3.1-18.2c-1.7-6.3-4.5-12.1-9.7-16.5c-16.5-13.3-39.4-2.7-44.6,11.1c-1.9,5-3.3,10.2-4.2,15.5
				c-1.9,9.4,0.2,18.6,3.1,27.6c2.8,8.5,7.8,15,16.3,17.9c2.4,0.7,5,1.5,7.3,1.9c11.8,1.7,25.5-3.9,30.7-16.9
				C408.9,243.7,409.6,236.2,410.6,228.4L410.6,228.4z"/>
			<path id="Path_134" class="st0" d="M1085.3,151.7c14.2,0,26.7,5.1,38,13.1c4.1,2.8,8,6,11.6,9.4c3,3.5,5.6,7.3,7.8,11.4
				c3.7,6.9,6.5,14.2,8.3,21.8c1.9,7.7,1.2,15.5,0.9,23.2c0,3.1-0.9,6.3-1.2,9.4c-0.7,9-5,16.5-8.7,24.2
				c-3.1,6.3-7.8,11.4-12.5,16.2c-3.3,3.1-7.6,5.6-11.3,8c-1.4,1-3.3,1.5-5,2.4c-11.6,5.8-23.6,6.5-36.4,5.6
				c-8.2-0.4-16.3-2-24.1-4.6c-11.8-4.1-21.7-10.6-29.3-21.1c-9.2-12.6-14.1-27.9-13.9-43.6c0-7.7-0.2-15.2,1.9-22.7
				c3.7-14.1,12.1-26.6,23.8-35.3c8.6-6.5,18.4-11.3,28.8-14C1070.9,153.4,1078,152.9,1085.3,151.7L1085.3,151.7z M1111.1,225.1
				c-0.7-5.1-1.4-9.9-2.1-15c-1.7-9.9-7.3-16.5-16.5-19.4c-3.2-1-6.6-1.6-9.9-1.9c-12.3-0.7-21.7,3.4-26.9,14.5
				c-5.1,11.1-6.2,23.7-3.1,35.6c3.1,12.8,11.1,21.5,24.6,23c10.4,1.2,19.6-1,26.2-10.4C1108.5,243.4,1110.6,234.7,1111.1,225.1
				L1111.1,225.1z"/>
			<path id="Path_230" class="st0" d="M775.1,203.8v-84.3c0-5.6,1.2-7,6.5-7h85c8.3,0,16.4,2.4,24.5,4.4
				c17.4,3.9,26.9,15.7,32.2,32.6c2.3,7.5,2.3,15,1.6,22.7c-0.5,5.1-3,9.4-6.3,13.5c-2.5,2.9-4.9,5.8-7.4,8.7
				c-1.2,1.2-1.4,2.2,0.2,3.4c11.6,7.5,16.2,19.3,18.5,32.4c1.4,8.5,1.9,16.9-0.7,25.4c-3.5,11.6-9.5,21.3-19.5,28.3
				c-10,7.1-22,11.1-34.3,11.4c-30.6,0.7-61.1,0.7-91.9,1c-1,0-2-0.1-3-0.2c-3.9-0.5-5.6-2.2-5.6-6.5
				C775.1,260.8,775.1,232.3,775.1,203.8z M842.7,218.5h-26.6c-2.5,0-4.2,0.5-4.2,3.4c-0.2,11.8-0.9,23.7-1.2,35.5
				c-0.2,4.1,0.5,4.6,4.9,4.6c9.5,0,18.8,0.2,28.3,0c9-0.2,18.1-0.7,27.1-0.7c11.1,0,20.6-9.4,22.5-20.1c1.2-6.3-0.7-11.8-6-16.4
				c-5.6-4.8-12.3-5.8-19.5-6C859.4,218.3,851.1,218.5,842.7,218.5L842.7,218.5z M840.2,143.8c-6.9,0-14.1,0.2-21.1,0
				c-3.2,0-4.4,1.2-4.4,4.6c0.2,9.7,0.2,19.3,0,29c0,3.6,1.4,4.4,4.4,4.4c9.3-0.2,18.8-0.2,28,0c6.9,0,18.5-1,25.5-1.7
				c13.2-1.2,14.4-4.8,13.9-17.4v-4.4c0.1-3.9-2-7.6-5.3-9.7c-2.1-1.3-4.5-2.2-6.9-2.7C862.9,143.3,851.5,143.3,840.2,143.8
				L840.2,143.8z"/>
			<g id="Harvard_College" transform="translate(613.04,45)">
				<path id="path1776" class="st0" d="M-264.2,79.6h-4.9v-18h-18.4v18h-4.9V42.7h4.9v14.4h18.4V42.7h4.9V79.6z"/>
				<path id="path1778" class="st0" d="M-233.7,79.6h-4.6v-2.9c-0.4,0.3-1,0.7-1.7,1.2c-0.7,0.5-1.4,0.9-2,1.2
					c-0.8,0.4-1.7,0.7-2.7,0.9c-1,0.3-2.2,0.4-3.5,0.4c-2.5,0-4.6-0.8-6.3-2.5c-1.7-1.6-2.6-3.8-2.6-6.3c0-2.1,0.4-3.8,1.3-5.1
					c0.9-1.3,2.2-2.3,3.9-3.1c1.7-0.7,3.7-1.2,6.1-1.5s4.9-0.5,7.6-0.6v-0.7c0-1.1-0.2-1.9-0.6-2.6c-0.4-0.7-0.9-1.2-1.6-1.6
					c-0.7-0.4-1.5-0.6-2.4-0.8c-0.9-0.1-1.9-0.2-2.9-0.2c-1.2,0-2.6,0.2-4.1,0.5c-1.5,0.3-3.1,0.8-4.7,1.4h-0.2v-4.7
					c0.9-0.2,2.2-0.5,3.9-0.8s3.4-0.4,5.1-0.4c1.9,0,3.6,0.2,5.1,0.5c1.5,0.3,2.7,0.9,3.8,1.6c1,0.8,1.8,1.7,2.4,2.9
					s0.8,2.7,0.8,4.5L-233.7,79.6z M-238.4,72.8v-7.7c-1.4,0.1-3.1,0.2-5,0.4c-1.9,0.2-3.4,0.4-4.6,0.7c-1.3,0.4-2.4,1-3.2,1.8
					c-0.8,0.8-1.2,1.9-1.2,3.3c0,1.6,0.5,2.8,1.4,3.6c1,0.8,2.4,1.2,4.4,1.2c1.6,0,3.1-0.3,4.5-0.9
					C-240.8,74.4-239.5,73.7-238.4,72.8L-238.4,72.8z"/>
				<path id="path1780" class="st0" d="M-208,57h-0.2c-0.7-0.2-1.4-0.3-2-0.3c-0.6-0.1-1.4-0.1-2.3-0.1c-1.4,0-2.8,0.3-4.2,1
					c-1.3,0.6-2.6,1.4-3.9,2.4v19.6h-4.7V51.9h4.7V56c1.8-1.5,3.5-2.5,4.9-3.1c1.4-0.6,2.9-0.9,4.3-0.9c0.8,0,1.4,0,1.8,0.1
					c0.4,0,0.9,0.1,1.6,0.2L-208,57z"/>
				<path id="path1782" class="st0" d="M-180.2,51.9l-11.2,27.6h-4.7l-11.1-27.6h5l8.6,22l8.5-22H-180.2z"/>
				<path id="path1784" class="st0" d="M-154.1,79.6h-4.6v-2.9c-0.4,0.3-1,0.7-1.7,1.2c-0.7,0.5-1.4,0.9-2,1.2
					c-0.8,0.4-1.7,0.7-2.7,0.9c-1,0.3-2.2,0.4-3.5,0.4c-2.5,0-4.6-0.8-6.3-2.5c-1.7-1.6-2.6-3.8-2.6-6.3c0-2.1,0.4-3.8,1.3-5.1
					c0.9-1.3,2.2-2.3,3.9-3.1c1.7-0.7,3.7-1.2,6.1-1.5c2.4-0.3,4.9-0.5,7.6-0.6v-0.7c0-1.1-0.2-1.9-0.6-2.6
					c-0.4-0.7-0.9-1.2-1.6-1.6c-0.7-0.4-1.5-0.6-2.4-0.8c-0.9-0.1-1.9-0.2-2.9-0.2c-1.2,0-2.6,0.2-4.1,0.5c-1.5,0.3-3.1,0.8-4.7,1.4
					h-0.2v-4.7c0.9-0.2,2.2-0.5,3.9-0.8s3.4-0.4,5.1-0.4c1.9,0,3.6,0.2,5.1,0.5c1.5,0.3,2.7,0.9,3.8,1.6c1,0.8,1.8,1.7,2.4,2.9
					c0.5,1.2,0.8,2.7,0.8,4.5L-154.1,79.6z M-158.7,72.8v-7.7c-1.4,0.1-3.1,0.2-5,0.4c-1.9,0.2-3.4,0.4-4.6,0.7
					c-1.3,0.4-2.4,1-3.2,1.8c-0.8,0.8-1.2,1.9-1.2,3.3c0,1.6,0.5,2.8,1.4,3.6c1,0.8,2.4,1.2,4.4,1.2c1.6,0,3.1-0.3,4.5-0.9
					C-161.1,74.4-159.9,73.7-158.7,72.8L-158.7,72.8z"/>
				<path id="path1786" class="st0" d="M-128.4,57h-0.2c-0.7-0.2-1.4-0.3-2-0.3c-0.6-0.1-1.4-0.1-2.3-0.1c-1.4,0-2.8,0.3-4.2,1
					c-1.3,0.6-2.6,1.4-3.9,2.4v19.6h-4.7V51.9h4.7V56c1.8-1.5,3.5-2.5,4.9-3.1c1.4-0.6,2.9-0.9,4.3-0.9c0.8,0,1.4,0,1.8,0.1
					c0.4,0,0.9,0.1,1.6,0.2L-128.4,57z"/>
				<path id="path1788" class="st0" d="M-102,79.6h-4.7v-2.9c-1.3,1.2-2.7,2.1-4.2,2.7c-1.5,0.6-3,1-4.7,1c-3.3,0-5.9-1.3-7.9-3.8
					c-1.9-2.5-2.9-6.1-2.9-10.6c0-2.3,0.3-4.4,1-6.3c0.7-1.8,1.6-3.4,2.7-4.7c1.1-1.3,2.4-2.2,3.9-2.9c1.5-0.7,3.1-1,4.7-1
					c1.5,0,2.7,0.2,3.9,0.5c1.1,0.3,2.3,0.8,3.5,1.4v-12h4.7V79.6z M-106.7,72.8V56.9c-1.3-0.6-2.4-0.9-3.4-1.2
					c-1-0.2-2.1-0.3-3.2-0.3c-2.6,0-4.6,0.9-6.1,2.7c-1.5,1.8-2.2,4.4-2.2,7.7c0,3.3,0.6,5.8,1.7,7.5c1.1,1.7,2.9,2.5,5.4,2.5
					c1.3,0,2.7-0.3,4-0.9C-109.1,74.4-107.8,73.7-106.7,72.8z"/>
				<path id="path1790" class="st0" d="M-47.2,76.9c-0.9,0.4-1.7,0.8-2.5,1.1c-0.7,0.3-1.7,0.7-2.9,1.1c-1,0.3-2.1,0.6-3.3,0.8
					c-1.2,0.2-2.5,0.3-3.9,0.3c-2.7,0-5.1-0.4-7.3-1.1c-2.2-0.8-4.1-1.9-5.7-3.5c-1.6-1.6-2.8-3.6-3.7-6c-0.9-2.4-1.3-5.2-1.3-8.4
					c0-3,0.4-5.7,1.3-8.1s2.1-4.4,3.7-6.1c1.6-1.6,3.5-2.8,5.7-3.7c2.2-0.8,4.7-1.3,7.4-1.3c2,0,4,0.2,5.9,0.7
					c2,0.5,4.2,1.3,6.6,2.5v5.8h-0.4c-2-1.7-4-2.9-6-3.7s-4.1-1.2-6.4-1.2c-1.9,0-3.5,0.3-5,0.9c-1.5,0.6-2.8,1.5-4,2.8
					c-1.1,1.2-2,2.8-2.7,4.7c-0.6,1.9-0.9,4.1-0.9,6.5c0,2.6,0.3,4.8,1,6.7c0.7,1.9,1.6,3.4,2.7,4.6c1.2,1.2,2.5,2.1,4,2.7
					c1.6,0.6,3.2,0.9,4.9,0.9c2.4,0,4.6-0.4,6.6-1.2c2.1-0.8,4-2,5.8-3.6h0.3V76.9z"/>
				<path id="path1792" class="st0" d="M-17.6,65.8c0,4.5-1.2,8.1-3.5,10.7c-2.3,2.6-5.4,3.9-9.3,3.9c-3.9,0-7-1.3-9.3-3.9
					c-2.3-2.6-3.4-6.2-3.4-10.7c0-4.5,1.1-8.1,3.4-10.7c2.3-2.6,5.4-3.9,9.3-3.9c3.9,0,7,1.3,9.3,3.9
					C-18.7,57.7-17.6,61.3-17.6,65.8z M-22.4,65.8c0-3.6-0.7-6.2-2.1-8c-1.4-1.7-3.3-2.6-5.8-2.6c-2.5,0-4.5,0.9-5.9,2.6
					c-1.4,1.7-2.1,4.4-2.1,8c0,3.5,0.7,6.1,2.1,7.9c1.4,1.8,3.4,2.7,5.9,2.7c2.5,0,4.4-0.9,5.8-2.6C-23.1,71.9-22.4,69.3-22.4,65.8z
					"/>
				<path id="path1794" class="st0" d="M-6.2,79.6h-4.7V41.1h4.7V79.6z"/>
				<path id="path1796" class="st0" d="M7.3,79.6H2.6V41.1h4.7V79.6z"/>
				<path id="path1798" class="st0" d="M39.1,66.2H18.8c0,1.7,0.3,3.2,0.8,4.5c0.5,1.3,1.2,2.3,2.1,3.1c0.9,0.8,1.9,1.4,3,1.8
					c1.2,0.4,2.5,0.6,3.9,0.6c1.9,0,3.8-0.4,5.7-1.1c1.9-0.8,3.3-1.5,4.1-2.2h0.2v5.1c-1.6,0.7-3.2,1.2-4.8,1.7s-3.3,0.7-5.1,0.7
					c-4.6,0-8.2-1.2-10.7-3.7c-2.6-2.5-3.9-6-3.9-10.6c0-4.5,1.2-8.1,3.7-10.8c2.5-2.7,5.7-4,9.7-4c3.7,0,6.6,1.1,8.6,3.3
					c2,2.2,3,5.3,3,9.3L39.1,66.2z M34.6,62.7c0-2.4-0.6-4.3-1.9-5.7c-1.2-1.3-3-2-5.5-2c-2.5,0-4.5,0.7-6,2.2
					c-1.5,1.5-2.3,3.3-2.5,5.5L34.6,62.7z"/>
				<path id="path1800" class="st0" d="M68.1,76.4c0,4.7-1.1,8.1-3.2,10.3c-2.1,2.2-5.4,3.3-9.8,3.3c-1.5,0-2.9-0.1-4.3-0.3
					c-1.4-0.2-2.8-0.5-4.1-0.9v-4.8h0.2c0.8,0.3,2,0.7,3.6,1.1c1.6,0.4,3.3,0.7,4.9,0.7c1.6,0,2.9-0.2,3.9-0.6
					c1-0.4,1.8-0.9,2.4-1.6c0.6-0.6,1-1.4,1.2-2.3c0.2-0.9,0.4-1.9,0.4-3v-2.5c-1.4,1.1-2.7,2-4,2.5c-1.3,0.5-2.9,0.8-4.9,0.8
					c-3.3,0-5.9-1.2-7.9-3.6c-1.9-2.4-2.9-5.8-2.9-10.1c0-2.4,0.3-4.4,1-6.1c0.7-1.7,1.6-3.2,2.7-4.5c1.1-1.2,2.4-2.1,3.9-2.7
					c1.5-0.7,3.1-1,4.6-1c1.6,0,2.9,0.2,4,0.5c1.1,0.3,2.2,0.8,3.4,1.5l0.3-1.2h4.4V76.4z M63.5,72V56.9c-1.2-0.6-2.4-1-3.5-1.2
					c-1.1-0.2-2.1-0.4-3.2-0.4c-2.6,0-4.6,0.9-6,2.6s-2.2,4.2-2.2,7.5c0,3.1,0.5,5.5,1.6,7.1c1.1,1.6,2.9,2.4,5.4,2.4
					c1.4,0,2.7-0.3,4.1-0.8C61.1,73.5,62.3,72.8,63.5,72z"/>
				<path id="path1802" class="st0" d="M99.9,66.2H79.5c0,1.7,0.3,3.2,0.8,4.5c0.5,1.3,1.2,2.3,2.1,3.1c0.9,0.8,1.9,1.4,3,1.8
					c1.2,0.4,2.5,0.6,3.9,0.6c1.9,0,3.8-0.4,5.7-1.1c1.9-0.8,3.3-1.5,4.1-2.2h0.2v5.1c-1.6,0.7-3.2,1.2-4.8,1.7s-3.3,0.7-5.1,0.7
					c-4.6,0-8.2-1.2-10.7-3.7c-2.6-2.5-3.9-6-3.9-10.6c0-4.5,1.2-8.1,3.7-10.8c2.5-2.7,5.7-4,9.7-4c3.7,0,6.6,1.1,8.6,3.3
					c2,2.2,3,5.3,3,9.3V66.2z M95.4,62.7c0-2.4-0.6-4.3-1.9-5.7c-1.2-1.3-3-2-5.5-2c-2.5,0-4.5,0.7-6,2.2c-1.5,1.5-2.3,3.3-2.5,5.5
					L95.4,62.7z"/>
			</g>
			<g id="Laboratory">
				<path id="path1805" class="st0" d="M910.8,371.1h-23.3v-36.8h4.9v32.5h18.4V371.1z"/>
				<path id="path1807" class="st0" d="M936.3,371.1h-4.6v-2.9c-0.4,0.3-1,0.7-1.7,1.2c-0.7,0.5-1.4,0.9-2,1.2
					c-0.8,0.4-1.7,0.7-2.7,0.9c-1,0.3-2.2,0.4-3.5,0.4c-2.5,0-4.6-0.8-6.3-2.5c-1.7-1.6-2.6-3.8-2.6-6.3c0-2.1,0.4-3.8,1.3-5.1
					c0.9-1.3,2.2-2.3,3.9-3.1c1.7-0.7,3.7-1.2,6.1-1.5s4.9-0.5,7.6-0.6v-0.7c0-1.1-0.2-1.9-0.6-2.6c-0.4-0.7-0.9-1.2-1.6-1.6
					c-0.7-0.4-1.5-0.6-2.4-0.8c-0.9-0.1-1.9-0.2-2.9-0.2c-1.2,0-2.6,0.2-4.1,0.5c-1.5,0.3-3.1,0.8-4.7,1.4h-0.2V344
					c0.9-0.2,2.2-0.5,3.9-0.8s3.4-0.4,5.1-0.4c1.9,0,3.6,0.2,5.1,0.5c1.5,0.3,2.7,0.9,3.8,1.6c1,0.8,1.8,1.7,2.4,2.9
					c0.5,1.2,0.8,2.7,0.8,4.5V371.1z M931.7,364.2v-7.7c-1.4,0.1-3.1,0.2-5,0.4c-1.9,0.2-3.4,0.4-4.6,0.7c-1.3,0.4-2.4,1-3.2,1.8
					c-0.8,0.8-1.2,1.9-1.2,3.3c0,1.6,0.5,2.8,1.4,3.6c1,0.8,2.4,1.2,4.4,1.2c1.6,0,3.1-0.3,4.5-0.9
					C929.3,365.9,930.6,365.1,931.7,364.2L931.7,364.2z"/>
				<path id="path1809" class="st0" d="M969.2,357c0,2.3-0.3,4.4-1,6.2c-0.6,1.8-1.5,3.4-2.6,4.7c-1.2,1.3-2.5,2.3-3.9,2.9
					c-1.4,0.6-2.9,1-4.6,1c-1.6,0-2.9-0.2-4.1-0.6c-1.2-0.4-2.3-0.9-3.5-1.5l-0.3,1.3h-4.4v-38.5h4.7v13.8c1.3-1.1,2.7-1.9,4.2-2.6
					c1.5-0.7,3.1-1,4.9-1c3.3,0,5.8,1.3,7.7,3.8C968.2,348.9,969.2,352.5,969.2,357L969.2,357z M964.4,357.1c0-3.3-0.5-5.8-1.6-7.5
					c-1.1-1.7-2.8-2.6-5.3-2.6c-1.4,0-2.7,0.3-4.1,0.9c-1.4,0.6-2.7,1.3-3.9,2.3v15.8c1.3,0.6,2.4,1,3.4,1.2c1,0.2,2,0.3,3.2,0.3
					c2.6,0,4.6-0.8,6-2.5C963.6,363.4,964.4,360.8,964.4,357.1L964.4,357.1z"/>
				<path id="path1811" class="st0" d="M999.5,357.2c0,4.5-1.2,8.1-3.5,10.7s-5.4,3.9-9.3,3.9c-3.9,0-7-1.3-9.3-3.9
					c-2.3-2.6-3.4-6.2-3.4-10.7c0-4.5,1.1-8.1,3.4-10.7c2.3-2.6,5.4-3.9,9.3-3.9c3.9,0,7,1.3,9.3,3.9
					C998.3,349.2,999.5,352.7,999.5,357.2z M994.7,357.2c0-3.6-0.7-6.2-2.1-8c-1.4-1.7-3.3-2.6-5.8-2.6c-2.5,0-4.5,0.9-5.9,2.6
					c-1.4,1.7-2.1,4.4-2.1,8c0,3.5,0.7,6.1,2.1,7.9c1.4,1.8,3.4,2.7,5.9,2.7c2.5,0,4.4-0.9,5.8-2.6
					C993.9,363.4,994.7,360.7,994.7,357.2L994.7,357.2z"/>
				<path id="path1813" class="st0" d="M1023.4,348.5h-0.2c-0.7-0.2-1.4-0.3-2-0.3c-0.6-0.1-1.4-0.1-2.3-0.1c-1.4,0-2.8,0.3-4.2,1
					c-1.3,0.6-2.6,1.4-3.9,2.4v19.6h-4.7v-27.6h4.7v4.1c1.8-1.5,3.5-2.5,4.9-3.1c1.4-0.6,2.9-0.9,4.3-0.9c0.8,0,1.4,0,1.8,0.1
					c0.4,0,0.9,0.1,1.6,0.2L1023.4,348.5z"/>
				<path id="path1815" class="st0" d="M1047.9,371.1h-4.6v-2.9c-0.4,0.3-1,0.7-1.7,1.2c-0.7,0.5-1.4,0.9-2,1.2
					c-0.8,0.4-1.7,0.7-2.7,0.9c-1,0.3-2.2,0.4-3.5,0.4c-2.5,0-4.6-0.8-6.3-2.5c-1.7-1.6-2.6-3.8-2.6-6.3c0-2.1,0.4-3.8,1.3-5.1
					c0.9-1.3,2.2-2.3,3.9-3.1c1.7-0.7,3.7-1.2,6.1-1.5c2.4-0.3,4.9-0.5,7.6-0.6v-0.7c0-1.1-0.2-1.9-0.6-2.6
					c-0.4-0.7-0.9-1.2-1.6-1.6c-0.7-0.4-1.5-0.6-2.4-0.8c-0.9-0.1-1.9-0.2-2.9-0.2c-1.2,0-2.6,0.2-4.1,0.5c-1.5,0.3-3.1,0.8-4.7,1.4
					h-0.2V344c0.9-0.2,2.2-0.5,3.9-0.8s3.4-0.4,5.1-0.4c1.9,0,3.6,0.2,5.1,0.5c1.5,0.3,2.7,0.9,3.8,1.6c1,0.8,1.8,1.7,2.4,2.9
					c0.5,1.2,0.8,2.7,0.8,4.5V371.1z M1043.3,364.2v-7.7c-1.4,0.1-3.1,0.2-5,0.4c-1.9,0.2-3.4,0.4-4.6,0.7c-1.3,0.4-2.4,1-3.2,1.8
					c-0.8,0.8-1.2,1.9-1.2,3.3c0,1.6,0.5,2.8,1.4,3.6c1,0.8,2.4,1.2,4.4,1.2c1.6,0,3.1-0.3,4.5-0.9
					C1040.9,365.9,1042.1,365.1,1043.3,364.2L1043.3,364.2z"/>
				<path id="path1817" class="st0" d="M1070.8,370.8c-0.9,0.2-1.8,0.4-2.9,0.6c-1,0.1-1.9,0.2-2.7,0.2c-2.8,0-5-0.8-6.4-2.3
					c-1.5-1.5-2.2-4-2.2-7.3v-14.7h-3.1v-3.9h3.1v-7.9h4.7v7.9h9.6v3.9h-9.6v12.6c0,1.5,0,2.6,0.1,3.4c0.1,0.8,0.3,1.6,0.7,2.3
					c0.4,0.7,0.9,1.1,1.5,1.5c0.6,0.3,1.6,0.4,2.9,0.4c0.8,0,1.6-0.1,2.4-0.3c0.8-0.2,1.4-0.4,1.8-0.6h0.2L1070.8,370.8z"/>
				<path id="path1819" class="st0" d="M1099.5,357.2c0,4.5-1.2,8.1-3.5,10.7s-5.4,3.9-9.3,3.9c-3.9,0-7-1.3-9.3-3.9
					c-2.3-2.6-3.4-6.2-3.4-10.7s1.1-8.1,3.4-10.7c2.3-2.6,5.4-3.9,9.3-3.9c3.9,0,7,1.3,9.3,3.9
					C1098.3,349.2,1099.5,352.7,1099.5,357.2z M1094.7,357.2c0-3.6-0.7-6.2-2.1-8c-1.4-1.7-3.3-2.6-5.8-2.6c-2.5,0-4.5,0.9-5.9,2.6
					c-1.4,1.7-2.1,4.4-2.1,8c0,3.5,0.7,6.1,2.1,7.9c1.4,1.8,3.4,2.7,5.9,2.7c2.5,0,4.4-0.9,5.8-2.6
					C1093.9,363.4,1094.7,360.7,1094.7,357.2L1094.7,357.2z"/>
				<path id="path1821" class="st0" d="M1123.4,348.5h-0.2c-0.7-0.2-1.4-0.3-2-0.3c-0.6-0.1-1.4-0.1-2.3-0.1c-1.4,0-2.8,0.3-4.2,1
					c-1.3,0.6-2.6,1.4-3.9,2.4v19.6h-4.7v-27.6h4.7v4.1c1.8-1.5,3.5-2.5,4.9-3.1c1.4-0.6,2.9-0.9,4.3-0.9c0.8,0,1.4,0,1.8,0.1
					c0.4,0,0.9,0.1,1.6,0.2L1123.4,348.5z"/>
				<path id="path1823" class="st0" d="M1151.2,343.4l-16.1,37.8h-5l5.1-11.5l-11-26.3h5l8.5,20.5l8.6-20.5L1151.2,343.4z"/>
			</g>
		</g>
	</g>
	<g>
		<g>
			<path class="st1" d="M47.5,285.9c0.3-0.1,0.4-0.4,0.5-0.7c0.2-0.9,0.6-1.7,1.1-2.4c0.9-1.4,2.9-2.2,4.8-1.6
				c1.4,0.5,2.4,1.4,3.1,2.7c0.3,0.5,0.5,1,0.7,1.5c1.5,4.1,3.7,7.8,6.3,11.3c1.7,2.2,3.4,4.4,5.5,6.3c1.2,1.1,2.4,2.1,3.6,3.1
				c2.4,1.9,5,3.5,7.5,5.1c4,2.5,8.4,4.1,13,4.9c0.7,0.1,1.4,0.1,2,0.2c0,0.1-0.1,0.2-0.1,0.4c-1.2,2.1-2.3,4.3-3.5,6.4
				c-1,1.8-1.9,3.6-2.9,5.5c-0.2,0.4-0.3,0.8-0.7,1c-1-0.3-1.9-0.7-2.9-1c-2.1-0.8-4.3-1.5-6.4-2.3c-1.7-0.7-3.3-1.6-4.9-2.5
				c-1.7-0.9-3.3-1.9-4.9-3c-3.2-2.1-6.2-4.4-8.8-7.2c-1.9-2-3.6-4.2-5.1-6.6c-3.2-5-5.1-10.5-6.6-16.2c-0.3-1-0.5-2-0.8-3
				c-0.1-0.3-0.2-0.6-0.5-0.7C47.5,286.7,47.5,286.3,47.5,285.9z"/>
			<path class="st2" d="M262.2,67.1c0.2,0.1,0.4,0.2,0.6,0.2c1.4,0.1,2.8,0.5,4.1,0.9c1.5,0.5,2.6,1.3,3.1,2.8
				c0.5,1.6,0.5,3.1-0.8,4.4c-0.4,0.4-0.9,0.7-1.5,0.9c-0.5,0.1-0.9,0.2-1.4,0.2c-2.9,0-5.6,0.6-8.3,1.5c-1.9,0.6-3.7,1.3-5.6,2
				c-2.4,0.9-4.4,2.4-6.4,4c-1.7,1.4-3.5,2.8-5.2,4.2c-1.4,1.2-2.6,2.6-3.8,4c-2,2.4-3.6,5.1-5.2,7.8c-0.5,0.8-0.9,1.6-1.4,2.3
				c-1.1-0.5-1.9-1.4-2.6-2.4c-0.6-0.7-1.2-1.4-1.8-2c-1.2-1.1-2.4-2.2-3.7-3.2c-1-0.8-1.9-1.7-3.1-2.3c-0.2-0.1-0.4-0.3-0.5-0.5
				c1.5-2.5,3.5-4.5,5.7-6.4c0.9-0.8,1.8-1.6,2.6-2.5c2.9-2.8,5.8-5.5,9.1-7.9c1.2-0.8,2.4-1.6,3.7-2.4c4.4-2.5,9.1-4.1,14-5.2
				c0.9-0.2,1.9-0.3,2.8-0.4c0.3,0,0.7,0,1-0.2C259.1,67.1,260.6,67.1,262.2,67.1z"/>
			<path class="st3" d="M392.9,304.1c-0.9-0.1-1.6,0.3-2.3,0.7c-2,0.9-4,1.9-6.1,2.8c-3.6,1.6-7.2,3.2-10.8,4.8
				c-2.8,1.3-5.6,2.5-8.5,3.8c-2.8,1.2-5.7,2.5-8.5,3.7c-2.8,1.2-4.8,3.2-6,6c-0.8,1.8-1.2,3.6-1.6,5.5c-0.6,2.8-0.7,5.7-0.5,8.6
				c0.1,1.9,0.5,3.8,0.8,5.7c0.7,4,1.5,7.9,2.2,11.9c0.6,3.3,1.3,6.6,1.9,10c0.3,1.6,0.6,3.2,0.9,4.8c-0.6,0-1.2,0.1-1.8-0.1
				c-1.6-0.4-3.2-0.7-4.7-1.2c-3.1-1.1-6.4-1.8-9.6-2.6c0-0.4-0.1-0.8-0.1-1.1c-1-4.7-2-9.4-2.9-14.1c-0.5-2.4-0.8-4.7-1.2-7.1
				c-0.2-1.6-0.4-3.2-0.6-4.8c-0.2-1.4-0.3-2.8-0.4-4.2c-0.1-1.8,0-3.6,0.2-5.4c0.3-2.5,0.7-4.9,1.4-7.3c1.1-3.5,2.7-6.9,4.6-10
				c1.5-2.4,3.4-4.4,5.6-6.1c2.1-1.6,4.4-2.7,6.8-3.6c3.9-1.4,7.7-3,11.4-4.6c2.5-1.1,5-2.2,7.5-3.3c2.3-1,4.6-2.1,6.9-3.1
				c1-0.5,2-0.9,3-1.4c1.5-0.6,3-1.3,4.4-1.9c2.7-1.2,5.4-2.3,7.9-3.8c0.7-0.4,1.4-0.8,2.1-1.2c2.2-1.2,4.5-2.3,6.7-3.6
				c3-1.6,5.8-3.6,8.4-5.7c2-1.6,3.8-3.3,5.5-5.2c1.1-1.2,2.2-2.3,3.2-3.5c2.4-2.8,4.3-6,5.9-9.3c1.3-2.7,2.5-5.5,3.5-8.4
				c0.3-0.8,0.6-1.6,1.3-2.2c1.7-1.4,4-1.2,5.6,0c0.7,0.5,1,1.4,1.1,2.3c0.4,2.6,0.4,5.2,0.1,7.8c-0.3,2.9-1,5.7-2.1,8.3
				c-0.6,1.3-1.2,2.6-1.9,3.8c-1.8,3.1-3.6,6.3-5.8,9.3c-1.3,1.7-2.6,3.4-4.1,5c-2.1,2.3-4.5,4.5-7,6.4c-0.9,0.7-1.9,1.3-2.8,2
				c-2.1,1.5-4.1,2.9-6.2,4.4c-0.4,0.3-0.7,0.7-1.1,1.1c-0.3,0.1-0.7,0.3-1,0.4c-1.2,0.7-2.4,1.4-3.7,2c-0.7,0.4-1.4,0.6-2.1,0.9
				c-1.4,0.6-2.8,1.2-4.2,1.9C393.9,303.2,393.2,303.5,392.9,304.1z"/>
			<path class="st3" d="M271.7,416.4c2,1.8,4,3.6,6.1,5.3c1,0.9,2.1,1.7,3.2,2.4c3.5,2.5,7.2,4.8,11.1,6.7c2.7,1.3,5.5,2.5,8.3,3.4
				c1.5,0.5,3,1,4.6,1.2c1.9,0.3,3.8,0.3,5.6,0c1-0.1,2-0.3,3.1-0.4c0.4,0,0.9,0,1.3,0c1.8,0.1,3.2,1.1,3.7,2.9
				c0.4,1.5,0.5,3-0.5,4.4c-0.2,0.3-0.4,0.5-0.7,0.7c-1.1,0.9-2.2,1.6-3.6,2c-2,0.6-4.1,1.2-6.2,1.5c-2.1,0.3-4.2,0.5-6.4,0.5
				c-2.8,0-5.5-0.2-8.2-0.8c-2.4-0.6-4.8-1.3-7.1-2.2c-4.3-1.8-8.3-4.2-12-6.9c-2.1-1.5-4.1-3.1-6.1-4.7c-1.3-1-2.6-2.1-3.9-3.1
				c-0.3-0.2-0.5-0.4-0.9-0.3c-0.1-0.7-0.6-1-1.1-1.4c-0.9-0.6-1.6-1.4-2.2-2.2c-0.4-0.5-0.9-1-1.4-1.4c-1.8-1.4-3.2-3-4.6-4.8
				c-0.2-0.2-0.3-0.5-0.6-0.6c-0.3-0.6-0.6-1.1-1.1-1.6c-2-2.1-3.9-4.4-5.5-6.7c-2.2-3.2-4.4-6.5-6.6-9.7c-1.3-1.9-2.7-3.9-4.2-5.7
				c-1.4-1.7-3.1-3.2-4.9-4.6c-1.5-1.1-3-2-4.6-2.8c-1.3-0.7-2.8-1.2-4.2-1.5c-2.2-0.5-4.4-0.7-6.6-0.8c-1.7-0.1-3.4-0.2-5.1-0.2
				c-3.6,0-6.9,0.9-10,2.8c-1.4,0.8-2.8,1.5-4.2,2.2c-4.2,2.2-8.3,4.4-12.5,6.6c-1.6,0.8-3.1,1.7-4.6,2.5c-0.4,0.2-0.8,0.4-1.2,0.6
				c0-0.8,0-1.5,0-2.3c0-0.3,0-0.7,0-1c-0.4-1.4-0.1-2.9-0.4-4.3c-0.1-0.6-0.2-1.2-0.3-1.7c-0.4-1.3-0.6-2.7-0.7-4
				c-0.1-0.9,0-1.9,0-2.8c0-0.5,0.2-0.8,0.5-1.1c0.2-0.2,0.4-0.3,0.6-0.5c1.6-1,3.3-2,5-3c1.4-0.8,2.8-1.6,4.1-2.4
				c2.8-1.6,5.8-3.1,8.8-4.3c2.6-1.1,5.3-1.9,8-2.2c1.4-0.2,2.8-0.2,4.2-0.2c1,0,2,0.1,3,0.1c2.2,0,4.5,0.1,6.7,0.1
				c2.9,0,5.7,0.5,8.5,1.2c3.5,1,6.9,2.4,10.1,4.2c2.2,1.2,4.2,2.7,6,4.3c3.2,2.8,6,6,8.5,9.4c2.4,3.2,4.7,6.6,7,9.8
				c1.6,2.2,3.1,4.4,4.7,6.6c0.3,0.6,0.5,1.2,0.9,1.7c0.6,0.8,1.4,1.6,2.1,2.4c2,2,4,4,5.9,6C271.1,416.2,271.3,416.4,271.7,416.4z"
				/>
			<path class="st1" d="M176.7,382.7c-0.3,0.3-0.5,0.6-0.5,1.1c0,0.9,0,1.9,0,2.8c0.1,1.4,0.3,2.7,0.7,4c0.2,0.6,0.2,1.2,0.3,1.7
				c0.3,1.4,0.1,2.9,0.4,4.3c0.1,0.3,0,0.7,0,1c0,0.8,0,1.5,0,2.3c0.2,1.8,0.5,3.6,0.7,5.3c0.4,2.7,1,5.3,1.8,7.9
				c1.9,6.6,5,12.6,8.9,18.2c1,1.4,2.2,2.8,3.3,4.1c1.3,1.6,3,2.7,4.7,3.8c0.9,0.6,1.7,1.2,2.5,1.8c0.9,0.6,1.5,1.4,2.1,2.2
				c0.9,1.2,1.1,2.6,0.5,4c-0.7,1.5-1.9,2.2-3.5,2.2c-0.9,0-1.7-0.1-2.5-0.3c-2.7-0.9-5.2-1.9-7.7-3.2c-1.1-0.6-2.2-1.3-3.3-1.9
				c-2.9-1.7-5.3-3.9-7.5-6.4c-1.7-1.9-3.1-4-4.4-6.2c-1.9-3.2-3.4-6.6-4.7-10.1c-1.4-3.7-2.4-7.6-3.4-11.4c-0.2-0.8-0.4-1.7-1-2.3
				c0-0.8-0.1-1.6-0.3-2.4c-0.2-1-0.3-2-0.7-2.9c-0.7-1.7-0.8-3.6-1.1-5.4c-0.2-1.4-0.2-2.9-0.3-4.3c0-2.1,0.1-4.1-0.1-6.2
				c-0.1-1,0-2.1-0.1-3.1c0-1.2-0.2-2.3-0.2-3.5c0-1.3-0.1-2.6,0.1-3.9c0.2-1.1,0.2-2.2,0.3-3.3c0.4-3.2,0.4-6.4,0.3-9.6
				c-0.2-4.4-1.4-8.6-3.9-12.3c-1.3-2-2.9-3.7-4.6-5.4c-1.8-1.8-3.8-3.3-6-4.6c-2-1.2-4.1-2.3-6.3-3.2c-2.4-0.9-4.8-1.5-7.3-2
				c-2.1-0.3-4.2-0.6-6.2-0.9c-2.1-0.3-4.1-0.6-6.2-0.9c-2.1-0.3-4.1-0.6-6.2-0.9c-1.6-0.2-3.2-0.5-4.8-0.7
				c-1.6-0.2-3.1-0.4-4.7-0.6c-0.2,0-0.4-0.1-0.6-0.2c-0.1-0.5,0.2-0.9,0.4-1.3c1.2-2.4,2.5-4.8,3.7-7.1c0.5-0.9,1-1.8,1.5-2.7
				c0.5-1,1.2-1.9,1.9-2.6c1.3,0.1,2.6,0.2,4,0.4c1.9,0.2,3.7,0.5,5.6,0.7c2.6,0.3,5.1,0.6,7.7,0.8c2.2,0.2,4.4,0.5,6.6,0.9
				c3,0.5,6,1.2,9,2.2c2.5,0.9,4.9,2,7.1,3.5c1.2,0.8,2.3,1.7,3.4,2.6c2.2,1.7,4.4,3.4,6.6,5.1c3.1,2.4,5.5,5.5,7.5,8.9
				c1.5,2.6,2.8,5.2,3.8,8c1.6,4.3,2.5,8.7,2.6,13.3c0,1.9,0,3.9,0,5.8c0,1.9-0.1,3.8-0.2,5.7c0,1.9,0,3.9,0,5.8c0,0.3,0,0.7,0,1
				C176.3,382.6,176.5,382.6,176.7,382.7z"/>
			<path class="st1" d="M271.7,416.4c-0.4,0-0.6-0.2-0.9-0.5c-2-2-4-4-5.9-6c-0.7-0.8-1.5-1.5-2.1-2.4c-0.4-0.5-0.6-1.1-0.9-1.7
				c0.2-0.4,0.5-0.7,0.6-1.1c0.3-0.8,0.6-1.6,1-2.4c1.5-3.5,3.1-7,4.7-10.4c2.1-4.6,4.3-9.1,6.9-13.3c1.6-2.6,3.4-5,5.4-7.2
				c2.2-2.4,4.7-4.5,7.5-6.2c1.8-1.1,3.6-1.9,5.6-2.5c2.4-0.7,4.8-1,7.2-1.4c2.1-0.3,4.2-0.3,6.3-0.1c2,0.2,4.1,0.6,6.1,1.1
				c3.5,0.8,7.1,1.7,10.6,2.6c3.2,0.8,6.4,1.6,9.6,2.5c1.7,0.5,3.4,0.6,5.1,0.9c3.2,0.8,6.5,1.4,9.6,2.6c1.5,0.6,3.1,0.9,4.7,1.2
				c0.6,0.1,1.2,0,1.8,0.1c1.1,0.3,2.1,0.6,3.2,0.8c2.6,0.4,5.3,0.7,7.9,1.1c2,0.3,4.1,0.7,6.1,0.9c2,0.2,4.1,0.6,6.1,0.6
				c3.1,0,6.1-0.5,9-1.7c2.7-1.1,5.4-2.3,8.1-3.6c0.7-0.3,1.3-0.7,1.8-1.2c2.4-2.2,5.1-4.2,7.6-6.3c0.6-0.5,1.4-0.9,2.2-1.1
				c0.8-0.2,1.5-0.1,2.2,0.3c0.7,0.3,1.1,0.9,1.4,1.6c0.5,1.5,0.5,3,0,4.4c-0.4,1.4-1.1,2.6-2,3.7c-2.5,3-5.3,5.7-8.4,8.1
				c-2.6,2.1-5.4,3.9-8.3,5.6c-1.7,1-3.4,1.9-5.1,2.6c-2.1,0.9-4.4,1.4-6.7,1.8c-1.4,0.3-2.9,0.4-4.3,0.3c-0.7-0.1-1.5-0.2-2.2-0.2
				c-1,0-2,0.1-3.1,0.2c-2.5,0.1-5,0.2-7.4-0.1c-1.5-0.2-3-0.6-4.5-1c-0.7-0.2-1.3-0.3-2-0.4c-0.7-0.2-1.3-0.5-2-0.5
				c-1.1-0.1-2.2-0.3-3.3-0.6c-2.3-0.5-4.7-1-7-1.5c-0.8-0.2-1.6-0.6-2.5-0.5c-1.3-0.4-2.6-0.8-3.9-1.2c-4.1-1.1-8.3-2.1-12.5-3.1
				c-3.6-0.9-7.2-1.7-10.8-2.7c-2-0.5-4-1.1-5.9-1.7c-2.5-0.7-5-0.9-7.5-0.7c-3.3,0.3-6.1,1.5-8.5,3.9c-2.2,2.2-4.2,4.5-6,7.1
				c-1.3,1.9-2.4,3.8-3.5,5.9c-3,6.1-6.1,12.2-9.1,18.3c-0.5,1-1,2-1.4,3C272.1,415.2,271.9,415.8,271.7,416.4z"/>
			<path class="st3" d="M112.6,317.7c-0.8,0.8-1.4,1.7-1.9,2.6c-0.5,0.9-1,1.8-1.5,2.7c-1.2,2.4-2.5,4.8-3.7,7.1
				c-0.2,0.4-0.5,0.8-0.4,1.3c-0.9,0.8-1.5,1.9-2.1,2.9c-1.8,3-3.2,6.1-4.3,9.5c-0.8,2.5-1.3,5-1.6,7.5c-0.2,1.8-0.5,3.6-0.6,5.4
				c-0.1,1.7,0.1,3.3,0.2,5c0.1,1,0.3,1.9,0.4,2.9c0.1,0.7,0.1,1.4,0.1,2.2c-0.1,1.6,0.2,3.1,0.5,4.6c0.3,1.3,0.6,2.6,0.9,3.9
				c0.4,1.5,0.9,3,1.5,4.5c0.7,1.5,1,3.1,0.6,4.8c-0.2,1-0.7,1.8-1.6,2.4c-0.8,0.5-1.7,0.9-2.6,1.1c-0.4,0.1-0.9,0-1.3-0.1
				c-1-0.2-1.9-0.8-2.6-1.6c-1.1-1.1-1.9-2.4-2.7-3.8c-1.6-2.9-3.3-5.8-4.9-8.8c-1.6-2.9-2.7-5.9-3-9.2c-0.1-1-0.2-2-0.2-2.9
				c-0.1-1.2-0.2-2.5-0.2-3.7c-0.1-2.6,0.2-5.1,0.4-7.7c0.2-2.6,0.7-5.2,1.3-7.7c0.6-2.2,1.4-4.4,2.4-6.5c0.8-1.7,1.5-3.4,2.3-5.2
				c0.2-0.4,0.2-0.8,0.3-1.2c0.4-0.2,0.5-0.6,0.7-1c1-1.8,1.9-3.6,2.9-5.5c1.1-2.2,2.3-4.3,3.5-6.4c0.1-0.1,0.1-0.2,0.1-0.4
				c0.8-1.2,1.6-2.3,2.3-3.5c2.9-4.9,5.8-9.7,8.7-14.6c1.5-2.5,3-5,4.4-7.6c1.5-2.8,2.7-5.7,3.4-8.8c0.5-2,0.4-4.1-0.2-6.1
				c-0.8-2.6-1.9-5-3.4-7.3c-1.3-2.2-2.9-4.3-4.6-6.2c-1.7-1.8-3.3-3.7-5-5.5c-1.7-1.9-3.5-3.7-5.2-5.5c-1.8-1.9-3.7-3.8-5.5-5.8
				c-1.3-1.4-2.7-2.8-4-4.2c-0.3-0.3-0.7-0.5-1-0.8c0.1-0.4,0.4-0.7,0.7-0.8c1.7-0.7,3.4-1.4,5-2.2c1.5-0.7,3.1-1.4,4.6-2.1
				c0.8-0.3,1.6-0.8,2.6-0.6c0.3,0.9,0.8,1.6,1.5,2.2c1.7,1.5,3.5,3.1,5.2,4.6c1.8,1.6,3.7,3.2,5.5,4.8c1.9,1.7,3.8,3.5,5.7,5.2
				c1.8,1.6,3.4,3.2,5,5c3.2,3.7,5.3,8,6.6,12.7c0.6,2.1,0.9,4.3,1.1,6.4c0.3,3.1,0.2,6.1-0.2,9.1c-0.3,2.2-1,4.2-2,6.2
				c-0.7,1.5-1.4,2.9-2.1,4.4c-2.2,4.9-4.8,9.7-7.6,14.3c-1.4,2.4-2.9,4.8-4.3,7.2C112.8,317.1,112.8,317.4,112.6,317.7z"/>
			<path class="st4" d="M395.3,285.3c-0.7,0.4-1.4,0.8-2.1,1.2c-2.5,1.5-5.2,2.7-7.9,3.8c-1.5,0.6-3,1.3-4.4,1.9
				c0-0.2,0-0.4-0.1-0.6c-0.2-0.3-0.5-0.7-0.8-1c-3.7-3.8-7.4-7.5-11-11.3c-1.6-1.7-3.2-3.4-4.7-5.2c-2.3-2.7-3.9-5.7-5.2-9
				c-0.8-2.2-1.4-4.5-1.9-6.8c-0.5-2.3-0.6-4.7-0.8-7c0-0.3,0-0.5,0-0.8c0.1-0.8,0.2-1.6,0.2-2.4c0-1.8,0.3-3.5,0.6-5.2
				c0.7-3.6,1.9-7.1,3.6-10.4c1.2-2.5,2.6-4.9,3.9-7.4c2.3-4.4,4.7-8.9,7-13.3c0.8-1.4,1.4-2.9,2.1-4.4c0.2-0.3,0.4-0.6,0.5-0.9
				c0.5-0.9,0.9-1.8,1.4-2.8c0.9-2,1.8-4,2.7-5.9c0.6-1.3,1.2-2.6,1.8-3.8c0.2-0.3,0.4-0.7,0.3-1.1c1.9-5.1,3.5-10.3,4.9-15.5
				c0.8-2.9,1.5-5.8,2-8.8c0.5-2.7,0.9-5.4,1.2-8.1c0.3-2.9,0.5-5.9,0.4-8.8c0-0.3,0-0.7-0.1-1c-0.4-1.7,0.1-3.2,0.6-4.8
				c0.3-0.8,0.6-1.7,1-2.5c0.2-0.5,0.3-0.6,0.7-0.4c1.2,0.5,2.4,1,3.5,1.6c1.2,0.6,2,1.5,2.7,2.7c0.6,1.1,1,2.4,1.3,3.6
				c0.5,2.6,0.9,5.2,1.4,7.8c0.2,1.2,0.4,2.4,0.6,3.5c0.5,3.2,0.6,6.4,0.3,9.6c-0.3,2.9-1,5.8-1.7,8.7c-1.2,4.8-2.4,9.6-3.6,14.3
				c-0.1,0.4,0.2,0.5,0.4,0.7c-0.4,0-0.7,0.3-0.8,0.7c-0.6,1.8-1.2,3.6-1.8,5.3c-0.7,2.3-1.6,4.5-2.7,6.6c-0.2,0.4-0.3,0.8-0.4,1.2
				c-0.3,0.4-0.7,0.7-1,1.2c-1.6,2.6-3.3,5.1-4.9,7.7c-2.7,4.3-5.3,8.6-7.9,12.9c-1.8,3-3.6,5.9-5.3,9c-0.8,1.5-1.5,3.1-2.2,4.6
				c-1.3,3-1.4,6-0.5,9.2c0.7,2.5,1.9,4.7,3.4,6.7c2,2.8,4.2,5.5,6.6,8c1.8,1.9,3.5,3.7,5.3,5.6c1,1,1.9,2.1,2.9,3
				c1.4,1.4,2.9,2.8,4.4,4.2C392.4,282.8,393.9,284,395.3,285.3z"/>
			<path class="st2" d="M161.7,392.6c0.1,1.4,0.1,2.9,0.3,4.3c0.3,1.8,0.4,3.6,1.1,5.4c0.4,0.9,0.4,1.9,0.7,2.9
				c0.2,0.8,0.3,1.6,0.3,2.4c-1.9,1-3.8,2.1-5.8,3.1c-2.4,1.2-4.9,2.3-7.5,3.1c-2.3,0.8-4.7,1.4-7.1,1.7c-0.9,0.1-1.9,0.2-2.8,0.3
				c-3,0.2-6.1,0.4-9.1,0.2c-3.7-0.2-7.3-0.5-10.9-1.5c-3.2-0.9-6.3-1.9-9.2-3.5c-3-1.6-5.6-3.7-8-6.2c-1.5-1.5-2.9-3.2-4.2-4.9
				c-1.1-1.4-1.4-2.9-1-4.6c0.2-1.1,0.8-1.9,1.8-2.4c2.5-1.3,5.1-1.1,7.2,0.8c1.4,1.2,2.8,2.4,4.4,3.4c0.6,0.4,1.2,0.8,1.9,1.1
				c2.1,0.9,4.2,1.6,6.5,1.9c2,0.2,4,0.4,6,0.5c2.1,0.1,4.2,0.4,6.3,0.4c2.6,0.1,5.2,0.2,7.7,0c3-0.2,6-0.9,8.8-2.1
				c2.3-0.9,4.5-1.9,6.7-3.1c1.5-0.8,3-1.7,4.4-2.6C160.7,393.1,161.2,392.9,161.7,392.6z"/>
			<path class="st1" d="M253.1,418.9c0.3,0.1,0.5,0.3,0.6,0.6c1.4,1.8,2.8,3.4,4.6,4.8c0.5,0.4,1,0.8,1.4,1.4
				c0.6,0.9,1.4,1.6,2.2,2.2c0.5,0.3,1,0.7,1.1,1.4c-0.6,0.8-1.1,1.5-1.7,2.3c-2,2.5-4,5-6,7.5c-2.1,2.6-4.1,5.2-6.5,7.5
				c-1,1-2.2,2-3.3,2.9c-2.6,2.1-5.5,3.9-8.5,5.2c-2,0.9-4,1.5-6.1,1.9c-0.2,0-0.3,0.1-0.5,0.1c-4.3,0-8.6,0.5-12.9,0.3
				c-2.2-0.1-4.4-0.4-6.6-0.9c-0.8-0.2-1.6-0.5-2.4-0.9c-1.2-0.5-2.2-2.2-1.6-3.9c0.5-1.5,1.4-2.6,2.8-3.4c1-0.5,2-0.8,3-1
				c3-0.7,6.1-1.4,9.1-2.1c1.4-0.3,2.8-0.7,4.2-1.1c3.8-1,7.3-2.8,10.4-5.1c3-2.3,5.5-5,7.9-7.9c2.3-2.8,4.3-5.7,6.5-8.7
				C251.5,420.9,252.3,419.9,253.1,418.9z"/>
			<path class="st2" d="M341.5,385.7c0.9-0.1,1.7,0.3,2.5,0.5c2.3,0.5,4.7,1,7,1.5c1.1,0.2,2.2,0.5,3.3,0.6c0.7,0,1.3,0.3,2,0.5
				c0,0.9,0.1,1.7,0.1,2.6c0,3.9,0.1,7.7,0,11.6c-0.1,3.5-0.7,7-1.4,10.4c-0.7,3.1-1.7,6.2-3,9.1c-1.5,3.1-3.2,6.1-5.3,8.8
				c-1.4,1.8-3,3.5-4.7,5.1c-1.8,1.6-3.8,2.9-5.7,4.3c-0.9,0.6-1.8,0.8-2.8,0.5c-1.8-0.6-3.3-1.6-4.2-3.3c-0.8-1.5-0.8-3,0.3-4.3
				c1.5-2,2.8-4.1,4.1-6.2c1-1.5,2-3,3-4.5c2.4-3.4,4.2-7,5.1-11.1c0.3-1.4,0.5-2.8,0.6-4.2c0.2-2.6,0.3-5.1,0.3-7.7
				c0-1.8-0.2-3.6-0.4-5.4c-0.1-1-0.2-2-0.3-3.1C341.7,389.5,341.6,387.6,341.5,385.7z"/>
			<path class="st2" d="M390.1,209.3c0.1-0.4,0.2-0.8,0.4-1.2c1.1-2.1,2-4.3,2.7-6.6c0.6-1.8,1.2-3.6,1.8-5.3
				c0.1-0.4,0.4-0.6,0.8-0.7c0.3,0,0.6,0,0.9,0.1c2.9,0.7,5.9,1.3,8.8,2c3.7,0.9,7.2,2.3,10.6,4.3c1.9,1.1,3.6,2.3,5.3,3.6
				c1,0.8,2.1,1.5,3.1,2.2c2.2,1.6,4.2,3.4,5.9,5.5c1.7,2.1,3.2,4.5,4.5,6.9c0.6,1.2,1,2.4,1.3,3.7c0.3,1.3,0.6,2.7,0.9,4
				c0.1,0.5,0.1,0.9,0.2,1.4c0,1.5,0,3.1,0,4.6c-0.1,1.1-0.4,2.2-0.8,3.2c-0.7,2-3.3,2.9-5.3,1.2c-1.1-1-1.8-2.2-1.9-3.7
				c-0.5-4.2-2.3-7.8-5.1-11c-2.7-3.1-5.9-5.6-9.5-7.6c-2-1.1-4.1-1.9-6.2-2.8c-2.8-1.1-5.6-1.8-8.5-2.5c-1.6-0.4-3.3-0.6-4.9-0.8
				C393.4,209.7,391.7,209.6,390.1,209.3z"/>
			<path class="st1" d="M392.9,304.1c0.3-0.7,1-0.9,1.6-1.2c1.4-0.6,2.8-1.2,4.2-1.9c0.7-0.3,1.4-0.6,2.1-0.9c1.2-0.7,2.4-1.4,3.7-2
				c0.3-0.2,0.7-0.3,1-0.4c1.1,0.9,1.8,2.1,2.5,3.2c2,3,4.1,5.9,6,8.9c1.1,1.6,2,3.3,2.9,5c1.3,2.4,2,5,2.6,7.6
				c0.4,1.8,0.7,3.5,1,5.3c0.1,0.8,0.1,1.6,0.1,2.4c0.1,3.3-0.3,6.6-1,9.8c-0.7,3.8-1.7,7.5-2.8,11.2c-0.3,1-0.7,1.9-1.1,2.9
				c-0.7,1.6-2.1,2.4-3.8,2.7c-0.9,0.1-1.7-0.2-2.2-1c-0.8-1.1-1.2-2.4-1.2-3.7c-0.1-2.3-0.2-4.6,0.2-6.9c0.4-2.4,0.7-4.8,1-7.2
				c0.3-2.4,0.6-4.8,0.1-7.2c-0.1-0.6-0.1-1.2-0.2-1.8c-0.3-2.1-1.1-4.1-2.2-6c-0.7-1.3-1.4-2.7-2-4c-0.9-1.9-2.2-3.5-3.6-5
				c-2.6-2.7-5.2-5.4-7.8-8.2C393.7,305.3,393.4,304.7,392.9,304.1z"/>
			<path class="st5" d="M106.5,385.2c-0.2-1.5,0.5-2.8,1.6-3.7c0.9-0.8,1.9-1.6,2.8-2.4c1.2-1,2.4-2,3.6-3c1.9-1.6,3.8-3.1,5.8-4.7
				c1.9-1.6,3.8-3.2,5.8-4.7c2-1.6,4-3,6-4.6c1.9-1.5,3.8-3.1,5.7-4.6c1.9-1.6,3.8-3.2,5.7-4.8c0.9-0.7,1.7-1.5,2.5-2.2
				c0.8-0.7,1.7-1.4,2.5-2c0.9-0.6,1.8-0.9,2.9-0.8c0.9,0,1.6,0.4,2.1,1c0.8,0.9,1.2,1.9,0.9,3.2c-0.4,1.9-1.4,3.4-2.9,4.6
				c-2,1.6-4,3.2-6,4.8c-1.8,1.4-3.5,2.9-5.2,4.4c-1.8,1.5-3.6,2.9-5.3,4.4c-1.3,1-2.5,2.1-3.7,3.1c-1,0.8-2,1.6-3,2.5
				c-1.5,1.2-2.9,2.4-4.3,3.6c-2.1,1.8-4.2,3.6-6.4,5.3c-1.6,1.3-3.4,2.5-5,3.8c-1.2,0.9-2.6,0.9-3.9,0.7c-0.8-0.1-1.4-0.7-1.7-1.4
				C106.5,386.8,106.4,386,106.5,385.2z"/>
			<path class="st5" d="M354.6,329c-0.1-0.6,0.1-1.3,0.5-1.8c0.8-1,1.9-1.4,3.1-1c1.4,0.4,2.8,1,4.1,1.8c1.8,1,3.6,2,5.4,3
				c3,1.7,5.9,3.4,8.9,5.1c3.8,2.1,7.6,4.3,11.4,6.4c2.5,1.4,5,2.9,7.6,4.4c1.2,0.7,2.5,1.4,3.7,2c1.1,0.6,1.7,1.5,2,2.7
				c0.1,0.5,0,0.8-0.1,1.3c-0.2,0.9-0.5,1.7-1.2,2.4c-0.4,0.4-1,0.7-1.5,0.9c-0.3,0.1-0.6,0.1-0.9,0c-0.5-0.2-1.1-0.4-1.5-0.6
				c-2.1-1.1-4.1-2.2-6.2-3.3c-1.3-0.7-2.6-1.4-3.8-2.1c-3.1-1.7-6.3-3.4-9.4-5.1c-3.3-1.8-6.5-3.6-9.7-5.5
				c-2.4-1.4-4.8-2.9-7.2-4.3c-0.8-0.5-1.6-0.9-2.5-1.4C355.5,332.7,354.6,331.4,354.6,329z"/>
			<path class="st5" d="M221.3,393.3c0.2,1.7-0.3,3.2-0.6,4.8c-0.5,2.9-1.2,5.8-1.7,8.7c-0.8,4.3-1.7,8.6-2.5,12.8
				c-0.5,2.7-1.1,5.5-1.6,8.2c-0.5,2.8-1.1,5.5-1.7,8.3c-0.1,0.7-0.2,1.4-0.4,2.1c-0.5,2.1-2.1,3.1-4.2,2.8
				c-0.5-0.1-1.1-0.3-1.6-0.5c-1-0.4-1.4-1.2-1.4-2.3c0-0.9,0.1-1.9,0.3-2.8c0.8-4.3,1.6-8.6,2.4-12.8c1-5,1.9-10.1,2.9-15.1
				c0.9-4.4,1.8-8.9,2.7-13.3c0.2-1,0.4-1.9,0.6-2.9c0.4-1.7,1.4-2.8,3.1-3.2c0.6-0.1,1.2-0.3,1.7-0.4c0.4-0.1,0.7,0.1,0.9,0.4
				c0.2,0.3,0.3,0.6,0.4,0.9C221.1,390.4,221.4,391.8,221.3,393.3z"/>
			<path class="st5" d="M420.2,240.8c0.5,0,0.9,0,1.4,0c1.7-0.1,2.8,0.8,3.2,2.5c0.2,1,0.1,2-0.4,3c-0.4,0.8-1.1,1.3-2,1.4
				c-1.6,0.2-3.2,0.3-4.8,0.5c-0.6,0.1-1.1,0.2-1.7,0.2c-1.9,0.2-3.9,0.5-5.9,0.7c-1.2,0.1-2.4,0.2-3.6,0.3
				c-1.2,0.1-2.5,0.3-3.7,0.4c-0.1,0-0.3,0-0.4,0c-1.5,0.1-3,0.2-4.5,0.3c-0.7,0.1-1.4,0.2-2,0.3c-1.1,0.1-2.3,0.3-3.4,0.4
				c-1.1,0.1-2.1,0.2-3.2,0.3c-1.4,0.1-2.7,0.3-4.1,0.5c-1,0.1-2,0.2-3.1,0.3c-0.6,0.1-1.3,0.2-1.9,0.2c-1.2,0-2.5,0.1-3.7,0
				c-1.2-0.1-2-0.9-2.4-2.1c-0.6-1.8-0.1-3.5,1.1-4.4c0.3-0.3,0.7-0.5,1.1-0.6c1.1-0.2,2.3-0.4,3.4-0.5c2-0.3,4.1-0.5,6.1-0.7
				c1.1-0.1,2.3-0.2,3.4-0.3c1-0.1,2-0.2,2.9-0.3c1.9-0.2,3.7-0.5,5.6-0.7c1.3-0.1,2.6-0.2,4-0.3c1.3-0.1,2.6-0.3,4-0.4
				c0.2,0,0.3,0,0.5-0.1c1.6-0.1,3.2-0.2,4.9-0.3c2.3-0.2,4.6-0.5,6.9-0.7C418.7,240.8,419.5,240.9,420.2,240.8
				C420.2,240.9,420.2,240.8,420.2,240.8z"/>
			<path class="st5" d="M314.4,429.2c-1.8,0-1.9,0-2.6-1.7c-0.4-0.9-0.7-1.8-0.9-2.7c-1.3-4.6-2.5-9.2-3.8-13.7
				c-1.3-5-2.7-9.9-4-14.9c-0.8-3.1-1.6-6.2-2.5-9.3c-0.3-1-0.5-2.1-0.8-3.1c-0.1-0.2-0.1-0.5,0-0.7c0.7-1.7,2-2.7,3.8-2.9
				c1.2-0.2,2.9,0.5,3.5,2.1c0.4,1.1,0.7,2.1,1,3.2c0.9,3.2,1.7,6.4,2.6,9.7c1.3,4.8,2.5,9.7,3.8,14.5c1.1,4.2,2.2,8.4,3.3,12.5
				c0.2,0.6,0.4,1.2,0.6,1.8c0.3,0.8,0.3,1.7,0.1,2.5c-0.3,1.8-1.6,2.4-3.1,2.6C315.1,429.3,314.7,429.2,314.4,429.2z"/>
			<path class="st5" d="M124.5,341.7c1.4,0,2.5,0.4,3.4,1.1c1.2,1,1.4,2.3,1,3.7c-0.3,1.1-1,2-1.9,2.7c-3.4,2.6-6.8,5.3-10.1,7.9
				c-1.9,1.5-3.7,3-5.5,4.4c-1.6,1.2-3.3,2.2-5.2,2.7c-0.4,0.1-0.8,0.1-1.1,0.2c-0.9,0.1-1.6-0.3-2.1-1.1c-1.4-2.3-1.2-4.5,1-6.3
				c2-1.6,4-3.3,5.9-4.9c1.4-1.1,2.7-2.2,4.1-3.3c1.7-1.4,3.4-2.8,5.1-4.1c1.1-0.8,2.2-1.6,3.3-2.4
				C123.1,341.8,123.9,341.6,124.5,341.7z"/>
			<path class="st5" d="M401.4,329.9c0,0.4-0.1,1-0.4,1.6c-0.7,1.3-2.1,1.9-3.6,1.6c-1.2-0.3-2.2-0.9-3.2-1.5
				c-0.3-0.1-0.5-0.3-0.8-0.5c-3.1-1.6-6.1-3.2-9.2-4.9c-2.2-1.2-4.4-2.4-6.5-3.6c-1.3-0.8-2.5-1.7-3.6-2.7
				c-0.4-0.4-0.6-0.9-0.5-1.5c0.2-0.7,0.3-1.4,0.4-2.1c0.2-1,0.8-1.6,1.7-1.9c1.4-0.5,2.7-0.4,4,0.2c1.3,0.6,2.6,1.4,3.9,2.1
				c1.5,0.8,3.1,1.7,4.6,2.5c1.5,0.8,3.1,1.7,4.6,2.5c1.6,0.9,3.3,1.7,4.9,2.5c0.6,0.3,1.2,0.8,1.8,1.2
				C400.9,326.5,401.4,328,401.4,329.9z"/>
			<path class="st5" d="M155.6,378.2c0.1,0.8-0.2,1.5-0.8,2c-1.2,1.1-2.4,2.2-3.6,3.3c-1.1,0.9-2.1,1.8-3.2,2.8
				c-1,0.9-2.1,1.8-3.1,2.7c-0.9,0.8-1.7,1.6-2.6,2.3c-1.5,1.3-3.1,2.5-4.6,3.7c-0.5,0.4-0.9,0.7-1.4,1.1c-0.6,0.5-1.2,0.5-1.9,0.2
				c-0.9-0.3-1.6-1-2.2-1.8c-0.6-0.8-0.9-1.7-1-2.6c-0.1-1.1,0.2-2,1-2.7c0.8-0.8,1.7-1.5,2.5-2.2c1-0.8,2-1.6,2.9-2.5
				c1.8-1.6,3.5-3.2,5.3-4.7c2.1-1.8,4.3-3.5,6.5-5.2c1-0.7,2-0.9,3.2-0.7c0.3,0,0.6,0.2,0.8,0.3
				C154.7,375.2,155.7,376.4,155.6,378.2z"/>
			<path class="st5" d="M382,229.1c0.1-0.6,0.1-1.1,0.2-1.6c0.5-1.5,1.6-2.2,3.1-2.3c1.6-0.1,3.2-0.2,4.7-0.3
				c1.7-0.1,3.5-0.3,5.2-0.4c0.2,0,0.4,0,0.6,0c1.7,0,3.4-0.3,5.1-0.5c1.6-0.2,3.2-0.3,4.7-0.3c1.8-0.1,3.3,0.8,4.7,1.8
				c0.7,0.5,1.1,1.2,1,2.1c0,0.3,0,0.5,0,0.8c-0.1,1.7-1.4,3-3,3.1c-0.1,0-0.2,0-0.3,0c-2,0.1-4,0.2-6,0.3c-1.4,0.1-2.8,0.3-4.2,0.4
				c0,0-0.1,0-0.1,0c-1.5,0.1-3.1,0.2-4.6,0.3c-1.7,0.1-3.3,0.2-5,0.5c-0.1,0-0.3,0-0.4,0c-1.4,0-2.8-0.2-4.2-0.4
				c-0.8-0.1-1.2-0.6-1.4-1.3C382.2,230.4,382.1,229.7,382,229.1z"/>
			<path class="st5" d="M200.7,403.1c0,0.4,0,0.8-0.1,1.1c-0.7,3.3-1.4,6.6-2.1,9.9c-0.5,2.2-0.9,4.3-1.4,6.5
				c-0.3,1.3-0.8,2.6-1.4,3.9c-0.7,1.6-2,2.3-3.7,2.4c-1,0.1-1.8-0.4-2.5-1.2c-0.8-1-1.2-2.2-0.9-3.5c0.5-2.4,1-4.9,1.5-7.3
				c0.6-2.9,1.2-5.8,1.8-8.7c0.3-1.3,0.5-2.7,0.8-4c0.2-1,0.6-1.9,1.4-2.7c0.9-0.8,2-0.9,3.1-0.6c0.7,0.2,1.4,0.6,1.9,1
				C200.3,400.7,200.8,401.8,200.7,403.1z"/>
			<path class="st5" d="M383.9,362.9c-0.1,0.3-0.1,0.8-0.4,1.2c-0.5,1-1.3,1.8-2.2,2.5c-0.6,0.4-1.3,0.4-2,0.1
				c-1-0.5-1.9-0.9-2.9-1.4c-2.3-1.1-4.6-2.2-6.9-3.4c-1.6-0.8-3.1-1.6-4.7-2.4c-0.6-0.3-1.3-0.6-1.9-0.9c-1.4-0.7-2.7-1.4-4.1-2.1
				c-1.3-0.6-2.5-2.8-2-4.8c0.2-1,0.9-1.6,1.9-2c0.6-0.2,1.3-0.3,2-0.5c0.2,0,0.3,0,0.5,0.1c0.7,0.2,1.4,0.4,2,0.8
				c1.4,0.7,2.8,1.5,4.2,2.2c1.4,0.7,2.8,1.4,4.1,2.1c1.9,1,3.8,1.9,5.7,2.9c1.3,0.7,2.6,1.3,3.9,2c0.6,0.3,1.1,0.7,1.6,1.2
				C383.6,361.1,383.9,361.9,383.9,362.9z"/>
			<path class="st5" d="M297.4,422.9c0,1.8-1.4,3.2-2.9,2.9c-0.6-0.1-1.2-0.4-1.7-0.9c-0.9-0.8-1.7-1.7-2.3-2.7
				c-1.3-2-2.2-4.2-2.9-6.5c-1.1-3.9-2.3-7.7-3.4-11.6c-0.2-0.6-0.4-1.2-0.5-1.9c-0.3-1.1,0-2,0.8-2.9c1.1-1.2,3.5-1.9,5.1-1.4
				c0.8,0.2,1.4,0.7,1.7,1.4c0.2,0.5,0.4,0.9,0.5,1.4c0.8,3.2,1.7,6.4,2.5,9.5c1,3.9,2,7.8,3,11.7
				C297.3,422.5,297.4,422.8,297.4,422.9z"/>
			<path class="st5" d="M391.7,270.2c-1.7,0-3-0.9-3.9-2.6c-0.3-0.6-0.4-1.3-0.1-2c0.3-0.7,0.7-1.4,1.3-1.9c0.6-0.6,1.4-1,2.3-1
				c2.1-0.2,4.2-0.5,6.4-0.7c1.7-0.2,3.5-0.4,5.2-0.6c1.8-0.2,3.7-0.3,5.5-0.5c1-0.1,1.9-0.3,2.9-0.4c1.9-0.3,3.9,0.8,4.6,2.6
				c0.2,0.5,0.3,1,0.1,1.5c-0.1,0.3-0.2,0.6-0.3,0.9c-0.4,1.1-1.1,1.8-2.2,2c-1.5,0.3-2.9,0.5-4.4,0.8c-1.9,0.3-3.8,0.5-5.7,0.7
				c-1.1,0.1-2.2,0.2-3.3,0.3c-0.6,0.1-1.1,0.2-1.6,0.2c-1.9,0.2-3.8,0.5-5.7,0.7C392.4,270.2,392.2,270.2,391.7,270.2z"/>
			<path class="st5" d="M322.6,390.1c0.1-0.5,0.1-1.1,0.3-1.6c0.5-1.3,1.7-1.9,3-2.2c0.5-0.1,1.1,0,1.7,0.1c1.5,0.3,2.3,1.4,2.6,2.8
				c0.9,3.8,2.2,7.5,3.4,11.2c0.8,2.7,1.7,5.4,2.6,8.1c0.4,1.1,0.5,2.3-0.2,3.3c-0.1,0.1-0.2,0.3-0.2,0.5c0,0.9-0.6,1.1-1.4,1.2
				c-0.5,0-1,0.1-1.5,0.2c-0.8,0.1-1.3-0.3-1.7-0.9c-0.5-0.9-1-1.8-1.4-2.7c-0.8-1.9-1.7-3.9-2.4-5.8c-1.2-3.2-2.4-6.5-3.6-9.8
				c-0.3-0.8-0.5-1.6-0.7-2.3C322.7,391.4,322.7,390.7,322.6,390.1z"/>
			<path class="st5" d="M236.4,411.1c0,0.1,0,0.4-0.1,0.7c-0.4,2.4-0.9,4.9-1.3,7.3c-0.5,2.6-0.9,5.1-1.4,7.7
				c-0.1,0.7-0.1,1.4-0.3,2.2c-0.2,1.4-1,2.5-2.1,3.4c-0.5,0.4-1.1,0.8-1.8,1c-0.7,0.3-1.4,0.2-2.1-0.2c-0.7-0.5-1.2-1-1.4-1.9
				c-0.1-0.8-0.2-1.5-0.1-2.3c0.2-1.5,0.5-3,0.7-4.4c0.4-2.2,0.7-4.4,1.1-6.6c0.3-1.8,0.6-3.6,1-5.4c0.2-1,0.4-1.9,0.7-2.9
				c0.1-0.4,0.3-0.9,0.6-1.3c0.8-1,1.9-1.2,3.1-1c0.4,0.1,0.7,0.2,1.1,0.3C235.8,408.4,236.5,409.4,236.4,411.1z"/>
			<path class="st1" d="M98.5,234.7c-0.9-0.2-1.7,0.3-2.6,0.6c-1.6,0.7-3.1,1.4-4.6,2.1c-1.7,0.7-3.3,1.5-5,2.2
				c-0.4,0.2-0.6,0.4-0.7,0.8c-1.1,0.5-2.3,1-3.4,1.6c-2.8,1.4-5.3,3.1-7.7,5.1c-1.7,1.4-3.3,2.9-4.7,4.6c-2.7,3.1-4.9,6.5-6.3,10.4
				c-1.1,3-2.1,6-3.2,9c-0.2,0.6-0.4,1.1-0.6,1.7c-0.4,1.1-1.1,1.8-2,2.4c-0.6,0.4-1.3,0.6-2.1,0.4c-0.9-0.2-1.8-0.6-2.5-1.2
				c-1-0.8-1.5-1.9-1.7-3.1c-0.1-1-0.2-2-0.2-3.1c0-1.7-0.1-3.4,0-5.1c0.1-2.3,0.3-4.6,1-6.8c0.9-2.9,2.1-5.6,3.6-8.2
				c0.9-1.7,2-3.3,3.1-4.9c0.8-1.1,1.7-2.2,2.6-3.2c1.3-1.5,2.7-2.9,4.1-4.3c2.6-2.6,5.5-5,8.8-6.9c0.5-0.3,1-0.5,1.3-1
				c0.2,0,0.4,0,0.5-0.1c0.7-0.3,1.3-0.5,2-0.9c3-1.5,6-3,9.1-4.3c0.9-0.4,1.8-0.8,2.5-1.5c2-0.6,3.9-1.5,5.8-2.3
				c0.8-0.3,1.6-0.7,2.3-1.1c3.2-1.4,6.3-2.8,9.5-4.2c3.2-1.5,6.5-3,9.7-4.4c2-0.9,4-1.8,6-2.7c2.2-1.1,4.5-2.1,6.7-3.3
				c3-1.5,4.9-4,6-7.1c0.6-1.7,0.9-3.5,1-5.3c0.1-2.6,0.1-5.1,0-7.7c-0.1-1.6-0.3-3.1-0.6-4.7c-0.2-1.7-0.5-3.4-0.7-5.1
				c-0.2-1.7-0.5-3.4-0.7-5.1c0-0.1,0-0.3,0-0.4c-0.1-1.9-0.2-3.9-0.3-5.8c-0.1-2.2-0.3-4.4-0.4-6.7c0-0.4,0-0.9-0.1-1.3
				c1,0.2,1.9,0.4,2.9,0.6c3,0.8,6,1.6,9,2.4c1.2,0.3,2.4,0.7,3.7,1.1c0,1.8-0.1,3.6,0.2,5.4c0.3,2.3,0.6,4.6,0.9,6.9
				c0.4,2.9,0.9,5.8,1.2,8.6c0.3,2.4,0.4,4.8,0.5,7.2c0.1,2.7,0.2,5.4-0.1,8.1c-0.2,1.4-0.4,2.9-0.7,4.3c-1.6,6.2-4.9,11.3-9.7,15.4
				c-2.6,2.2-5.5,3.8-8.5,5.2c-2.5,1.2-5,2.3-7.5,3.4c-1.6,0.7-3.2,1.4-4.8,2.2c-2.3,1.1-4.7,2.1-7,3.2c-1.7,0.8-3.3,1.6-5,2.3
				c-2.4,1.1-4.8,2.1-7.2,3.2C100.6,233.9,99.5,234.3,98.5,234.7z"/>
			<path class="st3" d="M149.5,158c-1.2-0.4-2.4-0.7-3.7-1.1c-3-0.8-6-1.6-9-2.4c-0.9-0.2-1.9-0.4-2.9-0.6c-2-0.3-4-0.7-5.9-1
				c-1.9-0.3-3.7-0.6-5.6-0.9c-0.8-0.1-1.7-0.3-2.5-0.3c-1.4-0.1-2.7-0.2-4.1-0.3c-2-0.1-4-0.3-6-0.4c-2.8-0.2-5.5,0-8.2,0.6
				c-3.3,0.6-6.5,1.9-9.5,3.3c-2.9,1.4-5.6,3.1-8.3,4.9c-0.9,0.6-1.8,1.1-2.9,1.3c-2.6,0.5-5.1-1.2-5.8-3.6
				c-0.4-1.3-0.3-2.6,0.3-3.9c0.6-1.3,1.4-2.4,2.3-3.4c2.3-2.6,5-4.8,8.1-6.5c2.5-1.4,5.1-2.5,7.7-3.5c3.4-1.2,6.8-2,10.3-2.7
				c0.7-0.1,1.4-0.2,2.2-0.3c3.1-0.2,6.2-0.5,9.2-0.2c0.5,0,0.9,0,1.4,0c1.5-0.1,2.9-0.2,4.4,0c1,0.1,2,0.2,3.1,0.3
				c2,0.2,4.1,0.5,6.1,0.7c1.1,0.1,2.2,0.2,3.3,0.3c0.2,0.1,0.4,0.2,0.6,0.2c0.6,0,1.2,0,1.8,0c0.2,0,0.4,0,0.6,0.1
				c1.7,0.4,3.4,0.9,5.1,1.3c1.4,0.4,2.9,0.7,4.4,1c2.2,0.5,4.3,1.1,6.4,1.6c2.4,0.6,4.8,1.3,7.2,1.9c3.1,0.8,6.3,1.7,9.4,2.4
				c2.5,0.6,5.1,1.1,7.7,1.4c2.7,0.3,5.3,0.2,8,0.2c1.2,0,2.1-0.7,2.9-1.4c0.8-0.7,1.5-1.6,2-2.5c0.8-1.7,1.7-3.5,2.5-5.2
				c2-4.6,4.1-9.3,6.1-13.9c1.1-2.6,2.2-5.3,3.4-7.9c1.3-2.9,2.6-5.9,4.3-8.6c1-1.6,2.1-3.1,3.1-4.7c0.7-0.1,1,0.4,1.4,0.8
				c2.6,2.6,5.2,5.3,7.9,7.9c0.5,0.4,1,0.8,1.5,1.2c0.3,0.2,0.6,0.5,0.6,0.9c-0.5,0.8-1,1.6-1.4,2.4c-1.7,2.8-3.1,5.6-4.3,8.6
				c-1.8,4.4-3.4,8.8-5.2,13.1c-1.2,3-2.6,5.9-4.4,8.5c-2.8,4-6.2,7.4-10.4,10c-1.2,0.7-2.5,1.4-3.7,2c-2.1,1.1-4.5,1.7-6.8,2.3
				c-1.9,0.4-3.8,0.6-5.7,0.6c-2.8,0-5.6-0.2-8.3-0.5c-3-0.3-6-0.8-9-1.5c-3-0.7-6-1.5-9-2.3C151.2,158.4,150.3,158.2,149.5,158z"/>
			<path class="st1" d="M220.3,115.2c-0.1-0.4-0.3-0.7-0.6-0.9c-0.5-0.4-1-0.8-1.5-1.2c-2.6-2.6-5.3-5.3-7.9-7.9
				c-0.4-0.4-0.7-0.9-1.4-0.8c-0.1-0.6-0.5-0.9-0.9-1.2c-1.9-1.6-3.8-3-5.9-4.4c-2.9-1.9-5.9-3.5-9.1-4.8c-0.9-0.4-1.9-0.7-2.8-0.9
				c-2.6-0.7-5.2-1.2-7.9-1.6c-2-0.3-4-0.7-5.9-1.3c-1.4-0.4-2.4-1.3-3.1-2.6c-0.8-1.7-0.6-3.2,0.5-4.7c0.8-1,1.9-1.7,3.1-2.2
				c1.8-0.8,3.7-1.2,5.6-1.5c2.7-0.4,5.3-0.2,7.9,0.2c2.1,0.3,4.2,0.7,6.3,1.4c2.2,0.7,4.3,1.4,6.4,2.4c1.3,0.7,2.7,1.3,4,2
				c1.8,1,3.5,2,5.2,3c1.3,0.8,2.5,1.7,3.7,2.5c0.8,0.5,1.6,1.2,2.6,1.4c0.2,0.2,0.3,0.4,0.5,0.5c1.2,0.6,2.1,1.4,3.1,2.3
				c1.3,1,2.5,2.1,3.7,3.2c0.7,0.6,1.3,1.2,1.8,2c0.7,0.9,1.5,1.9,2.6,2.4c0.2,0.2,0.3,0.5,0.5,0.7c2.1,1.9,3.7,4.1,5.5,6.3
				c0.7,0.8,1.4,1.6,2.1,2.5c1.6,1.9,3.2,3.9,4.9,5.8c2.3,2.8,4.6,5.5,6.9,8.3c2,2.4,3.9,4.8,5.9,7.1c2.7,3,5.5,5.9,8.8,8.2
				c2.7,1.8,5.6,2.1,8.5,0.7c1.7-0.8,3.4-1.8,5.1-2.6c1.6-0.9,3.3-1.7,4.9-2.6c2.8-1.6,5.6-3.2,8.4-4.7c1.5-0.8,3-1.7,4.5-2.5
				c2.1-1.1,4.2-2.2,6.4-3c0.4-0.1,0.8-0.3,1.2-0.5c0.1,0.5,0.2,0.9,0.3,1.4c0.2,1.1,0.4,2.3,0.6,3.4c0.5,2.5,0.9,4.9,1.2,7.4
				c0.1,0.8,0.3,1.7,0.4,2.5c0.1,0.4,0,0.8,0,1.1c-1,0.6-2,1.1-3,1.7c-4,2.3-8.1,4.7-12.1,7c-2.5,1.4-5.1,2.6-7.8,3.5
				c-3.5,1.1-7,1.7-10.6,1.7c-0.8,0-1.6,0-2.4,0c-1.2-0.1-2.4-0.3-3.6-0.4c-1.7-0.2-3.3-0.7-4.9-1.2c-2.5-0.7-4.8-1.9-7-3.2
				c-3.4-2-6.3-4.7-9.2-7.4c-2.1-2-4.1-4-5.9-6.3c-1.9-2.3-3.8-4.6-5.8-6.9c-2.5-3-4.9-5.9-7.4-8.9c-0.7-0.8-1.4-1.6-2.1-2.4
				c-0.8-0.9-1.5-1.7-2.4-2.5C221.9,115.7,221.2,115.2,220.3,115.2z"/>
			<path class="st1" d="M152.3,142.7c-2.1-0.5-4.3-1.1-6.4-1.6c-1.4-0.4-2.9-0.7-4.4-1c-1.7-0.4-3.4-0.9-5.1-1.3
				c-0.2-0.1-0.4-0.1-0.6-0.1c0-0.1,0-0.1,0-0.2c-0.1-1.5-0.3-3-0.4-4.5c-0.1-1.1-0.2-2.1-0.3-3.2c-0.2-2.2-0.3-4.4-0.3-6.5
				c0-2.7,0.2-5.3,0.5-7.9c0.4-3,0.9-5.9,1.6-8.8c1.1-4.5,2.8-8.7,5.1-12.7c0.8-1.4,1.7-2.8,2.7-4.1c1.4-1.9,3.1-3.5,4.9-4.9
				c0.8-0.6,1.6-1.1,2.4-1.7c0.5-0.3,1.1-0.6,1.6-0.9c1-0.6,2-0.4,2.9,0.2c1.2,0.7,2,1.8,2.7,2.9c0.6,1,1,2.1,1.3,3.2
				c0.4,1.3,0.1,2.4-0.8,3.3c-2.1,2.3-3.8,4.9-5.2,7.8c-1.4,3-2.4,6.2-3,9.5c-0.4,2.5-0.6,4.9-0.8,7.4c-0.3,3.2-0.3,6.3-0.2,9.5
				c0.1,3.8,0.5,7.6,1.2,11.4C151.9,139.8,152.3,141.3,152.3,142.7z"/>
			<path class="st2" d="M89.7,221c-0.7,0.7-1.6,1.1-2.5,1.5c-3.1,1.3-6.1,2.9-9.1,4.3c-0.6,0.3-1.3,0.6-2,0.9
				c-0.2,0.1-0.3,0-0.5,0.1c-2.8-4.1-5.7-8.1-8.2-12.3c-1.9-3.3-3.5-6.7-4.8-10.2c-1.4-3.8-2.4-7.7-3.2-11.6
				c-0.6-3.3-0.8-6.6-0.6-9.9c0.3-3.5,1-6.9,2.3-10.1c1-2.3,2.2-4.4,3.7-6.3c0.6-0.7,1.3-1.2,2.1-1.6c0.6-0.3,1.3-0.3,1.9-0.2
				c1.4,0.3,2.5,1,3.2,2.4c0.8,1.5,1,3,0.8,4.6c-0.2,1.2-0.5,2.4-0.9,3.6c-1,2.8-1.3,5.7-0.9,8.7c0.3,2,0.8,3.9,1.5,5.8
				c1.8,4.8,3.9,9.4,6.4,13.9c1.6,3,3.3,5.9,5.2,8.7c1.5,2.2,3.1,4.4,4.7,6.6C89.2,220.2,89.4,220.6,89.7,221z"/>
			<path class="st5" d="M126.3,199.3c-1.7,0-3.2-0.5-4.6-1.4c-1.5-0.9-3-1.7-4.4-2.6c-2-1.2-4.1-2.4-6.1-3.5
				c-1.2-0.7-2.4-1.4-3.7-2.1c-1.6-0.9-3.3-1.8-4.9-2.8c-1.7-1-3.5-2-5.2-3c-2.5-1.4-5-2.8-7.5-4.2c-2.9-1.6-5.8-3.4-8.5-5.3
				c-1.1-0.8-2-2.9-1.5-4.5c0.2-0.6,0.5-1,1-1.3c1.4-0.9,3-1.2,4.7-0.7c1.2,0.3,2.2,1,3.2,1.5c1.9,1.1,3.9,2.2,5.8,3.4
				c1.5,0.9,3,1.7,4.4,2.6c1.8,1.1,3.6,2.1,5.4,3.2c2.4,1.4,4.7,2.9,7.1,4.3c1.7,1,3.4,2.1,5.2,3.1c3.5,2,7,3.9,10.5,5.9
				c0.5,0.3,1,0.6,1.4,0.9c1.4,1,1.8,2.6,1.3,4.2c-0.4,1.4-1.5,2.1-2.8,2.2C126.8,199.4,126.6,199.3,126.3,199.3z"/>
			<path class="st5" d="M164.3,96.9c0-1.3,0.8-2.3,1.5-3.2c0.1-0.1,0.3-0.2,0.4-0.3c1.7-0.3,3.3-0.3,4.6,1.1
				c0.7,0.7,1.2,1.5,1.5,2.4c2.2,6,4.4,12.1,6.4,18.2c1.3,4,2.7,7.9,4.1,11.9c0.9,2.5,1.9,5,2.9,7.6c0.6,1.6,1.3,3.2,1.6,4.9
				c0.3,1.7-0.5,3.4-2.1,4.1c-0.8,0.3-1.6,0.3-2.4-0.1c-1.6-0.9-2.8-2.1-3.4-3.9c-1.1-3-2.2-6-3.3-8.9c-1.5-4.1-3-8.1-4.5-12.2
				c-1.3-3.6-2.7-7.2-4-10.8c-1.1-2.9-2-5.9-3-8.9C164.5,98,164.4,97.4,164.3,96.9z"/>
			<path class="st5" d="M69.6,283.1c-1,0-2.1,0-3.1,0c-1,0-1.9-0.3-2.6-0.9c-0.8-0.6-1.6-1.3-2-2.3c-0.3-0.7-0.3-1.4,0-2.1
				c0.3-0.7,0.7-1.3,1.5-1.4c0.9-0.2,1.8-0.4,2.8-0.5c0.7-0.1,1.4,0,2.1,0c0.8,0,1.5,0,2.3-0.2c0.4-0.1,0.9,0,1.3,0
				c6.9,0,13.8,0,20.7-0.1c2.8,0,5.6-0.1,8.3-0.3c1.7-0.1,3.4-0.2,5.1-0.2c0.4,0,0.8,0,1.1,0.1c1,0.3,1.8,0.9,2.2,2
				c0.4,0.9,0.6,1.9,0.2,2.9c-0.3,0.8-0.8,1.3-1.6,1.6c-0.4,0.1-0.7,0.3-1.1,0.3c-0.9,0.1-1.9,0.2-2.8,0.3
				c-3.7,0.1-7.4,0.2-11.2,0.3c-0.7,0-1.5,0-2.2,0c-5.3,0.3-10.6,0.2-15.9,0.3C73,282.9,71.3,283,69.6,283.1
				C69.6,283.1,69.6,283.1,69.6,283.1z"/>
			<path class="st5" d="M101.2,161c0-2.1,0.9-3.3,2.7-3.8c1.2-0.4,2.3-0.3,3.3,0.3c1.4,0.7,2.7,1.5,4,2.3c2.3,1.3,4.5,2.6,6.8,3.9
				c2.1,1.2,4.1,2.4,6.2,3.6c1,0.6,1.8,1.2,2.7,2c1,0.9,1.3,2.1,1.1,3.4c-0.1,0.6-0.1,1.3-0.4,1.9c-0.5,1-1.3,1.5-2.4,1.7
				c-1.4,0.2-2.7-0.2-3.9-0.9c-1.8-1.2-3.7-2.3-5.6-3.4c-1.2-0.8-2.5-1.5-3.7-2.3c-1.8-1.1-3.6-2.2-5.4-3.3
				c-1.5-0.9-2.9-1.8-4.4-2.7c-0.7-0.4-1-1-1.1-1.8C101.3,161.5,101.3,161.2,101.2,161z"/>
			<path class="st5" d="M181.7,98.9c0.1-1.8,1.5-3.5,3.3-3.6c1.3-0.1,2.6,0.3,3.5,1.4c0.5,0.6,0.8,1.3,1.1,2
				c1.9,5.1,3.7,10.2,5.6,15.3c0.5,1.3,0.8,2.6,1,4c0.3,1.7-0.4,3.1-1.9,4.1c-0.5,0.3-1.1,0.7-1.7,0.8c-0.6,0.1-1.1,0.1-1.6-0.2
				c-0.8-0.4-1.5-1-1.9-1.9c-0.3-0.7-0.6-1.3-0.8-2c-1.9-5.6-3.8-11.2-5.7-16.8c-0.2-0.4-0.3-0.9-0.5-1.3
				C182,100,181.9,99.4,181.7,98.9z"/>
			<path class="st5" d="M106.9,201.7c-0.1,1.1-0.8,2.3-2.1,3.1c-0.3,0.2-0.5,0.3-0.8,0.4c-0.7,0.3-1.4,0.4-2.1,0
				c-1.5-0.9-3.1-1.6-4.7-2.4c-1.2-0.6-2.4-1.3-3.6-2c-1.9-1-3.8-2.1-5.7-3.1c-0.4-0.2-0.8-0.4-1.3-0.6c-1.2-0.5-2-1.3-2.8-2.2
				c-0.7-0.9-1-1.9-1.2-3c-0.1-0.7-0.2-1.4,0-2.2c0.4-1,1-1.7,2-1.9c0.3-0.1,0.7-0.1,1,0c0.4,0.1,0.7,0.2,1.1,0.4
				c1.3,0.6,2.5,1.3,3.8,2c1.5,0.8,3,1.6,4.5,2.4c2.1,1.2,4.3,2.4,6.4,3.6c0.3,0.2,0.7,0.4,1,0.5c1.1,0.6,2.2,1.3,3.2,2.1
				C106.6,199.4,107,200.3,106.9,201.7z"/>
			<path class="st5" d="M84.6,265.3c-3,0-6.1,0-9.1,0c-0.7,0-1.4-0.1-2-0.3c-0.7-0.3-1.2-0.8-1.5-1.5c-0.3-0.9-0.4-1.8-0.2-2.7
				c0.4-1.7,1.5-3.1,3.8-3.2c0.3,0,0.6,0,0.9,0c2.8,0,5.6,0,8.4-0.1c2.6,0,5.2-0.1,7.8-0.2c0.2,0,0.4,0,0.5,0
				c0.8-0.3,1.5-0.1,2.3,0.2c1.4,0.5,2.2,1.6,2.3,3c0,1.1-0.2,2-0.6,3c-0.6,1.2-1.5,1.9-2.8,1.8c-1.5,0-2.9,0-4.4,0
				C88.1,265.3,86.3,265.3,84.6,265.3C84.6,265.3,84.6,265.3,84.6,265.3z"/>
			<path class="st5" d="M155.6,116.4c-0.1-1.7,0.7-3.1,1.6-4.4c0.3-0.5,0.9-0.8,1.5-1c0.5-0.2,0.9-0.2,1.4,0c0.9,0.4,1.6,1,2,1.9
				c1.8,4.5,3.6,9.1,5.4,13.6c0.6,1.6,1.1,3.2,1.5,4.9c0.1,0.6,0.1,1.2,0.1,1.8c-0.1,0.9-0.7,1.5-1.4,2c-0.8,0.5-1.7,0.8-2.6,0.8
				c-1.1,0-2.1-0.4-2.7-1.5c-0.2-0.3-0.3-0.7-0.5-1.1c-1.6-4-3.1-8.1-4.7-12.1c-0.3-0.8-0.6-1.5-1-2.2
				C155.7,118.2,155.5,117.3,155.6,116.4z"/>
			<path class="st5" d="M78.5,300.6c-0.3,0-0.8-0.1-1.3-0.2c-1.4-0.3-2.2-1.2-2.5-2.6c-0.3-1.6,0.1-2.9,1.2-3.9
				c0.5-0.4,1-0.7,1.6-0.7c1.3-0.1,2.6-0.2,4-0.3c1.7-0.1,3.5-0.3,5.2-0.4c1-0.1,2,0,3-0.1c2-0.1,3.9-0.2,5.9-0.2
				c1.4,0,2.6,0.4,3.7,1.2c1.1,0.7,1.5,2.5,1,3.6c-0.2,0.5-0.5,0.9-0.8,1.3c-0.4,0.7-1,1.1-1.8,1.2c-1,0.1-2.1,0.1-3.1,0.2
				c-1.8,0.2-3.7,0.1-5.5,0.3c-1.5,0.1-2.9,0.1-4.4,0.2c-1.7,0.1-3.3,0.3-5,0.4C79.4,300.5,79.1,300.5,78.5,300.6z"/>
			<path class="st5" d="M135.8,138.4c0,0.1,0,0.1,0,0.2c-0.6,0-1.2,0-1.8,0c-0.2,0-0.4-0.1-0.6-0.2
				C134.2,138.4,135,138.4,135.8,138.4z"/>
			<path class="st3" d="M306.6,141.8c0-0.4,0-0.8,0-1.1c-0.1-0.8-0.3-1.7-0.4-2.5c-0.3-2.5-0.7-5-1.2-7.4c-0.2-1.1-0.4-2.3-0.6-3.4
				c-0.1-0.5-0.2-0.9-0.3-1.4c-0.2-2.7-0.8-5.2-1.5-7.8c-1.3-4.9-2.7-9.7-4.4-14.4c-1.5-4-3.6-7.6-6.3-10.8c-2.3-2.7-5-5-8.1-6.9
				c-2-1.2-3.1-3-3.4-5.3c-0.2-1.9,0.7-3.1,2.2-4c1.5-0.9,3.1-0.9,4.7-0.6c1.1,0.2,2.2,0.6,3.3,1.2c3.1,1.6,5.9,3.7,8.6,6.1
				c2.8,2.5,5.2,5.3,7.3,8.4c1.5,2.2,2.8,4.6,3.9,7.1c1.8,3.8,3.2,7.7,4.5,11.6c1,3.2,2,6.4,3,9.6c0,0.2,0,0.3,0,0.5
				c0.6,2.3,1.1,4.5,1.7,6.8c0.4,1.9,0.7,3.8,1.1,5.6c0.2,0.9,0.4,1.8,0.7,2.7c0.2,1.8,0.3,3.7,0.5,5.5c0.2,1.7,0.4,3.4,0.6,5.1
				c0.2,1.7,0.4,3.4,0.6,5.1c0.2,1.8,0.4,3.7,0.7,5.5c0.3,2,0.6,4.1,0.9,6.1c0.6,3.4,1.2,6.7,1.7,10.1c0.5,2.9,1.6,5.5,3.7,7.6
				c1.4,1.4,3,2.4,4.8,3.1c4.5,1.9,9.1,3.2,13.9,3.9c2,0.3,4,0.7,5.9,1.1c1.9,0.3,3.9,0.6,5.8,0.9c1.9,0.3,3.7,0.6,5.6,0.9
				c2.1,0.3,4.1,0.6,6.2,0.9c1.4,0.2,2.9,0.4,4.3,0.7c1.1,0.2,2.3,0.4,3.4,0.6c0.1,0.4-0.2,0.7-0.3,1.1c-0.6,1.3-1.2,2.6-1.8,3.8
				c-0.9,2-1.8,4-2.7,5.9c-0.4,0.9-0.9,1.8-1.4,2.8c-0.2,0.3-0.4,0.6-0.5,0.9c-0.7-0.4-1.5-0.4-2.2-0.5c-2-0.3-4.1-0.6-6.1-0.9
				c-1.7-0.3-3.4-0.6-5.1-0.9c-1.9-0.3-3.9-0.6-5.8-0.9c-2.1-0.4-4.2-0.8-6.3-1.1c-3-0.5-5.9-1-8.8-1.8c-2.7-0.7-5.2-1.8-7.6-3.2
				c-3.1-1.8-5.8-3.9-8.3-6.5c-2.8-3-5.3-6.2-7.2-9.8c-1.8-3.3-3.1-6.7-3.8-10.3c-0.9-4.3-1.7-8.6-2.5-12.9
				c-0.8-4.4-1.6-8.8-2.4-13.3C307.2,144.1,306.9,142.9,306.6,141.8z"/>
			<path class="st1" d="M321.5,135.8c-0.2-0.9-0.5-1.8-0.7-2.7c-0.4-1.9-0.7-3.8-1.1-5.6c-0.5-2.3-1.1-4.5-1.7-6.8
				c0-0.2,0-0.3,0-0.5c1.4,0,2.7-0.3,4-0.6c2.8-0.6,5.6-1.3,8.4-2c2.8-0.7,5.7-1.3,8.6-1.7c1.2-0.2,2.4-0.2,3.6-0.3
				c1.7-0.1,3.4-0.3,5.1-0.4c1.2-0.1,2.5-0.1,3.7-0.1c0.9,0,1.8-0.2,2.7-0.1c1.3,0,2.7,0.1,4,0.2c1.9,0.2,3.8,0.5,5.7,1.1
				c1.8,0.5,3.5,1.4,5.2,2.2c0.9,0.5,1.8,0.9,2.8,1.3c1.2,0.5,2.4,1.1,3.7,1.6c1.8,0.8,3.4,1.9,4.9,3.2c0.4,0.4,0.8,0.8,1.2,1.1
				c1,0.9,1.5,2,1.8,3.2c0.4,1.9-0.5,3.9-2.7,4.4c-1.8,0.5-3.6,0.4-5.4-0.5c-2.1-1.1-4.4-1.7-6.7-2.1c-2.4-0.4-4.8-0.7-7.3-0.9
				c-3.2-0.3-6.4-0.2-9.6-0.1c-2.3,0.1-4.7,0.2-7,0.6c-2.4,0.4-4.8,0.7-7.2,1.1c-3.3,0.6-6.5,1.4-9.7,2.4c-1.5,0.5-3,0.9-4.6,1.4
				C322.6,135.4,322.1,135.6,321.5,135.8z"/>
			<path class="st5" d="M340.3,178.8c-0.6,0.1-1.2-0.1-1.7-0.5c-1.2-0.7-2-1.6-2.4-2.9c-0.3-1-0.1-2,0.7-2.7
				c0.8-0.8,1.7-1.6,2.6-2.3c0.9-0.8,1.8-1.6,2.7-2.4c1.4-1.2,2.8-2.3,4.1-3.4c1.7-1.5,3.5-2.9,5.2-4.4c2-1.7,4-3.3,6.1-5
				c1.2-1,2.4-2,3.7-3c1.9-1.5,3.7-3,5.6-4.5c2-1.6,4-3.2,6-4.8c0.9-0.7,1.8-1.4,2.8-2c1.4-0.9,3.1-0.6,4.2,0.5
				c0.6,0.6,1.1,1.3,1.3,2.2c0.2,1,0.2,1.9-0.4,2.7c-0.8,1.1-1.7,2-2.7,2.8c-2.1,1.7-4.3,3.4-6.4,5.1c-2,1.6-3.9,3.2-5.9,4.7
				c-2.8,2.2-5.6,4.5-8.4,6.7c-2.4,1.9-4.7,4-7.1,5.9c-2.1,1.8-4.3,3.5-6.5,5.3c-0.4,0.3-0.7,0.7-1,1
				C342.1,178.5,341.3,178.8,340.3,178.8z"/>
			<path class="st5" d="M265.1,136.3c-1,0.1-1.8-0.4-2.5-1.3c-0.6-0.8-0.9-1.7-1.1-2.7c-0.2-1.2-0.1-2.3,0.1-3.4
				c0.4-2.6,1-5.2,1.4-7.8c0.5-3,1.1-6.1,1.6-9.1c0.5-3,0.9-6.1,1.4-9.1c0.3-1.9,0.7-3.8,0.9-5.7c0.3-2.5,0.8-5.1,1.4-7.6
				c0.2-1,0.5-2.1,0.8-3.1c0.4-1.3,1.1-2.2,2.5-2.5c1.1-0.3,2.1,0,3,0.7c1.1,1,1.8,2.3,1.9,3.8c0,0.7-0.1,1.4-0.3,2.2
				c-0.3,1.9-0.6,3.7-0.9,5.6c-0.4,2.2-0.7,4.3-1.1,6.4c-0.4,2.3-0.8,4.5-1.2,6.8c-0.4,2.1-0.9,4.1-1.3,6.2c-0.4,2-0.7,4-1,5.9
				c-0.3,1.9-0.6,3.8-0.9,5.7c-0.2,1.4-0.4,2.8-0.6,4.2c-0.1,0.6-0.2,1.3-0.3,1.9c-0.2,1.1-0.9,2-1.9,2.7
				C266.4,136.3,265.8,136.4,265.1,136.3z"/>
			<path class="st5" d="M331.6,152.6c-0.1-1.5,0.5-2.7,1.7-3.5c1.5-1.1,3-2.2,4.5-3.4c2.2-1.7,4.4-3.3,6.5-5c1.2-0.9,2.2-2,3.3-3
				c0.7-0.7,1.5-1.3,2.2-1.9c1.8-1.5,4.8-1.3,6.6,0.7c0.4,0.4,0.5,0.9,0.6,1.4c0.2,1.9-0.5,3.5-1.9,4.7c-0.6,0.5-1.1,0.9-1.7,1.4
				c-2.4,1.7-4.7,3.6-7,5.5c-1.7,1.4-3.4,2.6-5,4c-1.7,1.4-3.7,2.3-5.8,2.9c-0.4,0.1-0.8,0.1-1.1,0.2c-1.2,0.1-2.3-0.7-2.6-1.8
				c-0.1-0.3-0.2-0.6-0.2-0.9C331.7,153.3,331.7,153,331.6,152.6z"/>
			<path class="st5" d="M363.6,186.2c-0.1,0-0.2,0-0.2,0c-1.8-0.3-3.7-1.6-4.3-3.6c-0.3-1-0.1-1.8,0.6-2.5c0.7-0.8,1.5-1.5,2.3-2.2
				c1.2-1.1,2.4-2.1,3.6-3.1c1.7-1.4,3.3-2.8,5-4.3c0.7-0.6,1.5-1.3,2.2-1.9c0.9-0.8,1.9-1.6,2.8-2.5c0.3-0.2,0.5-0.5,0.8-0.6
				c1.6-0.9,2.8-0.9,4.5,0.5c0.6,0.5,1,1.1,1.4,1.8c0.7,1.4,0.4,2.7-0.6,3.8c-0.7,0.7-1.4,1.4-2.1,2c-2.1,1.8-4.2,3.5-6.4,5.2
				c-2,1.6-3.9,3.2-5.8,4.8c-0.6,0.5-1.2,1.1-1.7,1.7C365,185.8,364.3,186,363.6,186.2z"/>
			<path class="st5" d="M281.9,123c0.2-1.3,0.4-2.5,0.7-3.8c0.6-3.3,1.3-6.6,2-9.9c0.4-2,0.8-4,1.1-6c0.1-0.7,0.3-1.4,0.4-2.1
				c0.1-0.7,0.5-1.1,1.1-1.4c0.8-0.4,1.5-0.7,2.4-0.7c1.3,0,2.2,0.6,2.9,1.6c0.8,1.2,0.9,2.5,0.7,3.8c-0.4,2.5-0.8,5.1-1.2,7.6
				c-0.4,2.3-0.8,4.6-1.2,6.9c-0.3,1.8-0.7,3.5-1.2,5.2c-0.5,1.5-1.4,2.4-3,2.6c-0.3,0-0.6,0.2-0.9,0.2c-1.5,0.2-2.8-0.6-3.4-2.1
				C282,124.3,282,123.6,281.9,123z"/>
			<path class="st5" d="M255.8,96.4c-0.1,0.7-0.2,1.4-0.3,2c-0.4,2.8-0.7,5.5-1.1,8.3c-0.3,2.2-0.6,4.4-1,6.6
				c-0.2,0.9-0.4,1.7-0.7,2.6c-0.8,2.4-2.4,2.7-4.3,2.3c-0.6-0.1-1.2-0.4-1.7-0.8c-0.8-0.5-1.1-1.3-1.2-2.2c0-0.4,0-0.8,0-1.2
				c0.5-3.2,1-6.3,1.4-9.5c0.2-1.5,0.4-3.1,0.6-4.6c0.3-1.6,0.6-3.2,0.9-4.8c0.2-1,0.4-1.9,0.6-2.9c0.1-0.5,0.2-0.6,0.7-0.5
				c1.4,0.1,2.8,0.4,4.1,1c1.2,0.6,2,1.6,1.9,3.1C255.7,96.1,255.8,96.2,255.8,96.4C255.8,96.4,255.8,96.4,255.8,96.4z"/>
		</g>
	</g>
</g>
</svg>
