<?xml version="1.0" encoding="UTF-8" standalone="no"?>
<svg
   xmlns:dc="http://purl.org/dc/elements/1.1/"
   xmlns:cc="http://creativecommons.org/ns#"
   xmlns:rdf="http://www.w3.org/1999/02/22-rdf-syntax-ns#"
   xmlns:svg="http://www.w3.org/2000/svg"
   xmlns="http://www.w3.org/2000/svg"
   xmlns:sodipodi="http://sodipodi.sourceforge.net/DTD/sodipodi-0.dtd"
   xmlns:inkscape="http://www.inkscape.org/namespaces/inkscape"
   inkscape:version="1.0 (4035a4fb49, 2020-05-01)"
   sodipodi:docname="plasmid_logo.svg"
   id="svg66"
   version="1.1"
   viewBox="0 0 719.96344 740.5868"
   height="740.58679"
   width="719.96344">
  <metadata
     id="metadata72">
    <rdf:RDF>
      <cc:Work
         rdf:about="">
        <dc:format>image/svg+xml</dc:format>
        <dc:type
           rdf:resource="http://purl.org/dc/dcmitype/StillImage" />
        <dc:title></dc:title>
      </cc:Work>
    </rdf:RDF>
  </metadata>
  <defs
     id="defs70" />
  <sodipodi:namedview
     inkscape:current-layer="Component_4_1"
     inkscape:window-maximized="1"
     inkscape:window-y="-6"
     inkscape:window-x="-6"
     inkscape:cy="383.36471"
     inkscape:cx="362.52586"
     inkscape:zoom="0.93402533"
     lock-margins="true"
     fit-margin-bottom="20"
     fit-margin-right="20"
     fit-margin-left="20"
     fit-margin-top="20"
     showgrid="false"
     id="namedview68"
     inkscape:window-height="1010"
     inkscape:window-width="1620"
     inkscape:pageshadow="2"
     inkscape:pageopacity="0"
     guidetolerance="10"
     gridtolerance="10"
     objecttolerance="10"
     borderopacity="1"
     bordercolor="#666666"
     pagecolor="#ffffff" />
  <g
     transform="translate(-32.012737,-27.989733)"
     data-name="Component 4 – 1"
     id="Component_4_1">
    <path
       transform="rotate(65,357.22386,91.433032)"
       stroke-width="1"
       stroke="#62d19a"
       fill="#62d19a"
       d="m 474.529,406.165 c 0.318,2.923 -1.7,6.25 -1.387,9.5 0.313,3.25 0,6.5 0,9.744 -7.62,1.3 -15.24,2.6 -22.861,3.573 a 118.691,118.691 0 0 1 -45.4,-1.949 c -15.875,-3.9 -29.846,-11.043 -39.054,-25.984 -1.27,-2.274 -1.905,-4.222 0,-5.521 1.27,-0.974 4.128,-0.65 5.715,0 a 22.257,22.257 0 0 1 6.35,4.872 c 9.208,8.77 20.638,11.043 32.7,11.693 20.639,0.971 43.934,-0.731 63.937,-5.928 z"
       data-name="Path 156"
       id="Path_156" />
    <path
       transform="rotate(65,419.96268,152.23108)"
       stroke-width="1"
       stroke="#97ed78"
       fill="#97ed78"
       d="m 367.442,366.553 c 4.445,-5.2 7.662,-10.5 11.79,-15.695 3.493,1.624 14.072,7.039 17.882,8.338 10.478,3.573 21.591,6.171 32.069,10.393 10.8,4.222 21.591,8.12 30.164,16.889 9.843,10.393 14.288,22.736 14.288,37.351 0,23.385 0.317,46.77 0.317,70.48 v 18.838 c -1.9,18.838 3.493,36.052 13.653,50.993 5.08,7.47 12.383,12.992 18.733,19.488 0.635,0.65 1.587,0.974 2.223,1.949 0.636,0.975 1.588,2.6 1.27,3.248 a 6.663,6.663 0 0 1 -3.493,2.273 c -0.953,0.325 -11.106,-3.708 -18.091,-7.93 -7.577,-3.28 -18.423,-17.4 -22.233,-24.874 -6.35,-12.667 -11.43,-25.659 -11.43,-40.275 0,-3.248 0.317,-6.5 0,-9.744 -0.318,-2.923 -0.318,-13.316 -0.318,-15.265 0,-24.035 0.318,-48.07 0,-72.429 0,-11.693 -5.4,-20.462 -15.558,-26.633 -12.383,-7.47 -26.353,-11.043 -40.006,-15.265 -8.574,-2.922 -22.687,-9.207 -31.26,-12.13 z"
       data-name="Path 143"
       id="Path_143" />
    <path
       transform="rotate(65,494.72775,128.76336)"
       fill="#96ed78"
       d="m 432.975,401.065 c -4.445,5.521 -8.89,10.718 -13.653,16.24 -1.9,-1.3 -3.81,-3.248 -6.033,-4.222 -11.431,-5.2 -22.861,-10.718 -33.021,-18.189 -10.8,-8.445 -20.638,-17.214 -27.941,-29.556 -5.08,-8.445 -8.89,-16.889 -8.573,-27.283 0,-1.3 -0.318,-2.6 0.318,-3.573 0.953,-1.624 2.223,-3.9 4.128,-4.547 1.27,-0.325 3.175,0.974 4.763,1.949 a 5.956,5.956 0 0 1 2.223,3.248 c 5.715,20.462 20,33.454 36.514,44.821 a 174.3,174.3 0 0 0 34.291,18.188 c 2.221,1.95 4.761,2.274 6.984,2.924 z"
       data-name="Path 150"
       id="Path_150" />
    <path
       transform="rotate(65,308.90198,390.7333)"
       fill="#62d19a"
       d="m 619.134,418.009 c -2.223,0.325 -4.445,0.325 -6.668,1.3 -12.065,3.9 -24.766,5.2 -37.466,6.821 -11.748,1.624 -22.543,5.2 -32.069,12.342 a 36.657,36.657 0 0 0 -8.89,9.744 c -6.35,10.393 -13.018,20.787 -12.066,33.779 0.953,15.59 1.905,30.855 3.175,46.445 0,0.974 -0.482,3.238 -0.482,4.212 -4.763,-1.3 -8.726,-4.537 -13.488,-5.187 a 28.8,28.8 0 0 0 -6.35,0.325 c 0,0 0.952,-5.522 0.635,-6.821 -0.953,-8.12 -2.223,-16.565 -2.858,-24.684 -0.635,-11.368 -1.27,-22.411 3.175,-33.129 1.905,-4.547 4.445,-9.094 6.35,-13.641 6.35,-14.291 16.828,-24.684 30.164,-31.83 10.8,-5.522 22.543,-7.8 34.291,-9.744 l 29.529,-4.872 c 6.668,-2.273 13.335,-4.547 20.321,-6.821 a 137.31,137.31 0 0 0 50.8,-29.881 c 6.668,-6.171 13.018,-12.992 14.923,-22.736 1.27,-5.2 3.175,-6.821 6.033,-5.846 2.54,0.65 3.175,3.573 2.858,8.445 -1.9,16.889 -9.525,30.531 -21.908,41.249 -8.573,7.47 -18.733,12.992 -28.893,17.864 -5.08,2.274 -10.16,4.872 -15.558,7.145 -4.763,1.624 -10.16,3.573 -15.558,5.521 z"
       data-name="Path 139"
       id="Path_139" />
    <path
       transform="rotate(65,320.22929,164.53291)"
       fill="#62d19a"
       d="m 569.053,473.71 c 13.018,20.462 30.481,34.753 53.659,41.249 1.905,0.65 3.81,1.949 5.715,2.6 a 162.845,162.845 0 0 0 17.146,3.9 c 1.905,0.325 3.81,0 5.715,0.325 2.54,0.325 5.4,0.974 5.4,4.222 0,3.248 -2.54,3.9 -5.08,4.547 a 11.654,11.654 0 0 1 -3.493,0.325 c -6.985,0.325 -13.971,0.974 -20.956,1.3 -9.843,0.325 -18.733,-3.248 -27.306,-7.47 -9.525,-4.872 -18.733,-10.069 -26.353,-18.189 -4.763,-5.2 -9.843,-10.718 -14.605,-16.24 -3.81,-4.872 -7.3,-10.069 -11.113,-14.94 -10.478,-14.94 -20.638,-29.881 -31.433,-44.821 a 89.512,89.512 0 0 0 -13.018,-13.966 c -5.08,-4.547 -11.43,-6.5 -18.416,-6.821 -13.97,-0.975 -27.306,2.923 -40.641,7.145 -13.018,4.222 -26.353,8.445 -39.371,12.667 V 410.7 c 3.81,-0.974 7.62,-1.949 11.43,-3.248 15.24,-4.547 30.163,-9.419 45.087,-13.966 a 56.1,56.1 0 0 1 32.7,0 62.429,62.429 0 0 1 19.368,9.094 c 5.08,3.573 8.89,9.419 13.336,14.291 11.113,12.667 20.321,26.633 29.528,40.6 4.448,5.521 8.573,10.717 12.701,16.239 z"
       data-name="Path 140"
       id="Path_140" />
    <path
       transform="rotate(65,273.6271,249.5617)"
       fill="#96ed78"
       d="m 608.28,410.088 c -4.445,-2.274 -8.891,-4.222 -13.336,-6.5 -12.065,-6.171 -23.813,-12.667 -37.466,-14.616 -16.193,-2.274 -31.751,-0.974 -46.039,8.12 -3.175,1.949 -6.668,2.923 -9.843,4.547 -12.065,6.5 -20,17.539 -27.306,28.906 -6.668,10.393 -12.7,21.112 -19.051,31.505 -0.635,0.65 -1.046,2.1 -2,2.753 3.81,5.522 7.4,9.913 11.523,15.435 0.953,-1.949 1.588,-4.222 2.858,-5.846 8.89,-13.317 17.781,-26.633 26.353,-39.95 a 68.417,68.417 0 0 1 35.879,-27.283 c 19.051,-6.821 36.514,-0.974 53.024,9.419 a 33.019,33.019 0 0 0 7.3,4.222 c 9.208,3.9 18.1,7.795 27.306,11.693 5.08,1.949 10.8,3.9 13.971,3.9 3.171,0 6.311,2.063 9.487,2.063 3.176,0 4.8,1.185 7.659,1.51 14.288,2.274 28.258,4.222 42.547,1.949 15.241,-2.273 27.306,-10.393 37.784,-21.112 1.588,-1.624 2.54,-3.9 0.635,-5.522 -0.952,-0.65 -3.492,0 -5.08,0.65 -5.08,2.274 -9.525,6.171 -14.605,7.47 -24.766,6.821 -49.214,5.2 -73.345,-3.248 a 21.949,21.949 0 0 1 -4.806,-2.241 c -4.763,-1.3 -8.212,-3.605 -12.975,-4.255 a 23.176,23.176 0 0 1 -8.246,-2.809 z"
       data-name="Path 141"
       id="Path_141" />
    <path
       transform="rotate(65,521.35068,178.79537)"
       fill="#62d19a"
       d="m 404.589,473.894 a 249.764,249.764 0 0 0 -27.306,42.873 c -6.033,12.017 -6.668,25.334 -5.4,38.651 0.318,3.573 0.953,6.821 1.588,10.393 0.318,2.923 0,5.2 -2.858,6.171 -3.175,1.3 -5.08,-0.325 -6.668,-2.923 a 45.519,45.519 0 0 1 -6.35,-22.086 88.157,88.157 0 0 1 11.43,-49.044 c 1.27,-2.6 1.905,-5.522 3.493,-7.8 4.445,-7.47 9.208,-15.265 13.971,-22.736 4.445,-5.521 8.89,-10.718 13.653,-16.24 9.525,-11.693 19.368,-22.736 28.576,-34.753 A 95.449,95.449 0 0 0 439.2,397.892 c 2.858,-6.821 -0.635,-12.992 -4.445,-17.864 -7.62,-9.419 -15.875,-18.188 -24.131,-26.958 -6.35,-7.145 -13.018,-13.966 -19.051,-21.761 -4.128,-5.2 -7.3,-11.368 -11.113,-16.889 0.635,-0.974 1.27,-2.6 2.223,-3.248 4.763,-1.949 9.843,-3.248 14.605,-4.872 1.905,2.6 3.81,5.522 5.4,8.12 6.985,11.368 16.193,20.462 25.4,29.881 8.89,8.769 17.463,17.539 21.908,29.881 5.08,13.317 5.4,26.958 -0.318,39.625 -7.62,16.565 -19.368,30.855 -31.751,44.172 -4.447,5.521 -8.892,10.721 -13.338,15.915 z"
       data-name="Path 142"
       id="Path_142" />
    <path
       transform="rotate(65,399.00495,491.22145)"
       stroke-width="1"
       stroke="#97ed78"
       fill="#97ed78"
       d="m 567.7,542.425 c -4.128,-5.521 -8.255,-11.368 -12.7,-16.889 -10.478,-12.342 -21.273,-24.684 -28.259,-39.95 -4.445,-9.419 -7.62,-18.513 -6.35,-29.556 1.588,-11.693 6.35,-21.436 13.335,-30.206 7.3,-9.094 15.24,-17.864 22.543,-26.958 3.81,-4.547 6.985,-9.419 10.478,-14.291 3.81,-4.222 7.938,-8.445 11.748,-12.992 0.317,-0.65 10.16,-14.291 14.288,-21.112 9.208,-16.565 13.653,-34.428 15.558,-52.941 0.317,-4.222 -1.27,-8.769 -1.905,-12.992 -0.318,-1.949 -1.27,-3.9 -1.27,-5.522 0,-1.3 0.953,-3.248 1.905,-3.573 0.952,-0.325 2.858,0.65 3.81,1.3 0.635,0.325 0.953,1.3 1.27,1.949 3.175,11.043 7.621,21.436 7.938,33.129 0.317,17.539 -5.715,33.454 -13.97,48.394 -2.858,5.521 -5.4,11.043 -7.938,16.565 -3.81,4.872 -7.3,9.744 -11.113,14.616 -0.952,0.974 -2.222,1.624 -2.858,2.6 -8.573,10.718 -17.463,21.436 -26.036,32.155 -3.81,4.872 -8.255,9.094 -12.065,13.966 -6.986,9.419 -11.113,19.488 -6.668,31.83 A 102.321,102.321 0 0 0 555,498.9 c 9.208,11.368 19.938,25.989 29.146,37.357 1.272,1.302 -9.458,3.894 -16.446,6.168 z"
       data-name="Path 144"
       id="Path_144" />
    <path
       transform="rotate(65,208.14835,298.61262)"
       fill="#62d19a"
       d="m 535.541,400.882 c 7.62,2.274 13.656,4.815 16.832,4.815 v 3.248 c 1.588,13.641 2.223,29.881 -2.223,42.548 -5.715,16.24 -13.653,31.505 -27.623,42.548 -8.255,6.5 -17.781,9.419 -27.623,11.368 -1.27,0.325 -3.81,-0.65 -4.128,-1.624 a 6.047,6.047 0 0 1 0.952,-5.2 c 0.635,-1.3 2.223,-1.949 3.81,-2.6 11.113,-3.9 18.415,-11.693 24.131,-21.761 4.445,-8.12 9.208,-16.24 12.7,-24.685 5.715,-13.316 5.08,-27.607 3.493,-41.9 -0.635,-1.939 -0.321,-4.808 -0.321,-6.757 z"
       data-name="Path 148"
       id="Path_148" />
    <path
       transform="rotate(65,605.94274,333.83221)"
       stroke-width="1"
       stroke="#96ed78"
       fill="#96ed78"
       d="m 419.286,335.419 c -6.668,-1.3 -13.018,-2.923 -19.686,-4.222 1.27,-5.846 3.175,-11.368 4.128,-17.214 a 166.848,166.848 0 0 1 13.97,-46.445 c 3.493,-7.795 7.938,-14.616 14.606,-19.488 4.763,-3.248 8.573,-7.795 13.336,-11.043 a 34.256,34.256 0 0 1 9.843,-4.547 c 1.27,-0.325 3.493,0.325 3.81,0.974 0.635,1.3 0,3.248 -0.635,4.872 a 3.871,3.871 0 0 1 -1.587,1.624 c -10.478,8.769 -16.511,20.462 -22.226,32.8 -9.526,19.17 -13.337,40.928 -15.559,62.689 z"
       data-name="Path 152"
       id="Path_152" />
    <path
       transform="rotate(65,320.98903,492.1317)"
       fill="#62d19a"
       d="m 542.024,320.652 c 3.81,-4.872 6.478,-9.18 10.289,-14.052 6.35,2.6 13.018,5.2 19.368,8.12 14.606,7.146 28.576,15.59 39.054,28.582 2.223,2.923 4.445,6.171 5.4,9.744 2.858,10.069 4.763,20.137 6.986,30.531 0.317,2.274 1.9,5.521 -1.27,6.5 -3.17,0.979 -5.4,-1.3 -6.985,-3.9 a 81.071,81.071 0 0 1 -6.033,-11.692 c -6.985,-19.163 -20,-32.155 -37.784,-40.6 -8.255,-3.9 -16.828,-8.12 -25.4,-12.017 -1.592,-0.003 -2.355,-0.891 -3.625,-1.216 z"
       data-name="Path 155"
       id="Path_155" />
    <path
       transform="rotate(65,228.28723,427.7941)"
       stroke-width="1"
       stroke="#97ed78"
       fill="#96ed78"
       d="m 539,366.346 c 5.4,-1.949 10.478,-3.9 15.875,-5.846 5.4,10.718 11.43,21.436 16.511,32.479 4.763,10.069 7.938,20.462 7.62,31.83 a 30.258,30.258 0 0 1 -1.588,10.718 c -4.128,10.393 -8.255,20.787 -15.241,29.881 -0.635,0.974 -2.223,2.274 -2.858,1.949 -0.953,-0.325 -1.905,-1.949 -2.223,-2.923 a 10.944,10.944 0 0 1 0,-4.547 c 1.587,-8.445 3.81,-16.889 5.08,-25.659 2.223,-13.641 -0.952,-26.308 -6.668,-38.326 C 550.748,385.834 544.715,376.09 539,366.346 Z"
       data-name="Path 157"
       id="Path_157" />
    <path
       transform="rotate(65,257.05624,162.66375)"
       fill="#96ed78"
       d="m 513,417 c 3.81,4.872 7.3,10.069 11.113,14.941 -2.857,2.923 -5.715,6.171 -8.573,9.094 -8.573,9.419 -18.733,15.915 -29.846,21.761 -20,10.393 -40.324,8.769 -60.962,4.222 -1.588,-0.325 -3.493,-2.6 -3.81,-4.222 -0.317,-2.6 1.905,-3.9 4.445,-4.222 h 2.223 c 13.653,1.624 26.989,-0.974 39.689,-5.2 7.62,-2.6 14.923,-6.821 21.908,-11.368 7.3,-4.547 13.971,-10.069 19.051,-17.214 1.903,-2.27 3.173,-5.192 4.762,-7.792 z"
       data-name="Path 159"
       id="Path_159" />
    <path
       transform="rotate(65,577.18794,213.00625)"
       stroke-width="1"
       stroke="#62d19a"
       fill="#62d19a"
       d="m 395.345,365.94 c -0.953,0.65 -6.033,-2.923 -6.985,-2.6 -4.445,1.949 -9.208,3.9 -13.653,5.846 -2.223,-3.9 -4.763,-7.47 -6.35,-11.693 -4.445,-13.641 -10.8,-26.958 -11.43,-41.9 -0.318,-12.342 1.27,-24.36 7.62,-35.4 a 4.476,4.476 0 0 1 0.952,-1.3 c 1.588,-1.949 3.754,-6.289 7.246,-4.99 3.492,1.299 0.425,4.576 -1.471,10.922 -1.896,6.346 -1.922,13.833 -2.239,16.757 -1.27,10.718 4.361,25.066 4.505,25.93 2.246,13.599 14.434,27.437 21.805,38.428 z"
       data-name="Path 160"
       id="Path_160" />
    <path
       transform="rotate(65,228.35892,282.48983)"
       fill="#9bf799"
       d="m 508.484,491.682 c -0.318,0.65 -0.635,2.274 -1.27,2.274 a 5.573,5.573 0 0 1 -3.175,-1.3 7.8,7.8 0 0 1 -1.905,-3.573 c -3.493,-12.342 -6.668,-25.009 -10.16,-37.351 -2.223,-9.094 -4.128,-18.513 -6.668,-27.607 -1.9,-6.821 -4.128,-13.641 -6.033,-20.462 -0.635,-2.274 -1.905,-4.872 0.952,-5.846 0.635,-0.325 3.493,2.6 4.128,4.547 2.54,8.12 4.445,16.565 6.668,24.684 4.445,15.915 9.208,31.5 13.335,47.42 1.905,5.197 2.858,11.043 4.128,17.214 z"
       data-name="Path 168"
       id="Path_168" />
    <path
       transform="rotate(65,293.58109,445.39134)"
       fill="#9af797"
       d="m 622.983,348.963 c -6.668,-0.974 -13.971,-2.274 -21.273,-3.248 -19.051,-3.248 -38.1,-6.171 -57.152,-9.419 -4.445,-0.65 -8.573,-1.3 -13.018,-2.274 -0.953,-0.325 -1.588,-1.624 -2.54,-2.6 a 12.781,12.781 0 0 1 2.858,-1.624 c 0.952,-0.325 2.223,0 3.492,0 12.065,1.949 24.449,3.9 36.514,6.171 17.463,2.923 35.244,5.846 52.707,8.77 a 5.291,5.291 0 0 1 2.222,0.325 14.836,14.836 0 0 1 2.223,2.274 c -0.952,0.65 -1.587,1.624 -2.54,1.949 -0.953,0.001 -1.905,-0.324 -3.493,-0.324 z"
       data-name="Path 169"
       id="Path_169" />
    <path
       transform="rotate(65,571.9082,371.18918)"
       stroke-width="1"
       stroke="#9cf79a"
       fill="#99f797"
       d="m 424.2,239.1 a 19.358,19.358 0 0 1 1.27,-2.6 c 0.953,0.65 2.54,0.975 2.858,1.949 a 27.239,27.239 0 0 1 2.54,7.145 c 2.54,9.419 4.763,19.163 7.3,28.582 4.128,15.915 8.573,31.505 13.018,47.42 a 6.127,6.127 0 0 1 0.635,2.274 16.062,16.062 0 0 1 -1.27,3.573 c -0.953,-0.65 -2.54,-0.974 -3.175,-1.949 a 38.8,38.8 0 0 1 -2.223,-6.5 c -4.128,-14.616 -7.938,-29.231 -12.065,-43.847 -2.858,-10.718 -5.715,-21.111 -8.255,-31.83 -0.316,-1.296 -0.316,-2.595 -0.633,-4.217 z"
       data-name="Path 170"
       id="Path_170" />
    <path
       transform="rotate(65,229.89576,372.32096)"
       fill="#a1f79f"
       d="m 517.495,374.1 c 1.27,0.65 2.223,1.3 3.493,1.949 16.828,12.017 33.339,24.035 50.167,36.052 5.4,3.9 11.113,7.795 16.51,12.017 0.953,0.65 1.27,2.274 1.905,3.573 -1.27,0 -2.54,0.65 -3.492,0 -3.493,-2.274 -6.985,-4.547 -10.478,-7.145 -19.051,-13.641 -38.419,-27.608 -57.469,-41.574 -0.635,-0.65 -1.587,-0.974 -2.223,-1.949 a 3.739,3.739 0 0 1 -0.318,-2.6 6.663,6.663 0 0 0 1.905,-0.323 z"
       data-name="Path 172"
       id="Path_172" />
    <path
       transform="rotate(65,285.78556,181.70939)"
       fill="#a5f7a3"
       d="m 422.788,479.369 c -0.953,-1.949 -1.588,-2.923 -1.588,-3.573 a 38.81,38.81 0 0 1 2.223,-6.5 c 7.62,-17.539 15.558,-34.753 23.178,-52.292 1.9,-4.222 3.492,-8.77 5.08,-12.992 a 11.669,11.669 0 0 1 2.222,-3.248 3.431,3.431 0 0 1 2.54,0 c 0.317,0 0.635,1.624 0.317,1.949 -2.858,7.145 -5.715,14.291 -8.89,21.436 -2.54,6.171 -5.4,12.017 -7.938,17.864 -4.445,10.069 -8.89,20.462 -13.335,30.855 -0.634,1.954 -2.222,3.577 -3.809,6.501 z"
       data-name="Path 178"
       id="Path_178" />
    <path
       transform="rotate(65,218.65403,254.1401)"
       fill="#9cf79a"
       d="m 485.393,454.176 c -0.635,0.65 -0.953,2.274 -1.588,2.274 a 4.713,4.713 0 0 1 -3.493,-1.3 c -0.635,-0.974 -0.635,-2.6 -1.27,-3.9 -2.858,-10.718 -6.033,-21.761 -8.89,-32.48 a 25.248,25.248 0 0 1 -0.952,-6.821 c 0,-0.974 1.588,-2.273 2.858,-2.923 0.635,-0.325 2.223,1.3 2.54,2.274 3.175,12.667 6.35,25.334 9.525,38.326 a 24.357,24.357 0 0 1 1.27,4.55 z"
       data-name="Path 181"
       id="Path_181" />
    <path
       transform="rotate(65,264.14824,443.92053)"
       fill="#9af797"
       d="m 581.286,354.567 c -4.762,-0.974 -8.573,-1.949 -12.383,-2.6 -9.526,-1.624 -19.051,-2.923 -28.576,-4.547 a 2.336,2.336 0 0 1 -1.588,-0.325 c -0.952,-1.3 -1.588,-2.6 -2.54,-3.9 1.27,-0.325 2.54,-1.3 3.81,-1.3 4.763,0.65 9.208,1.624 13.971,2.6 7.62,1.3 15.241,2.6 22.861,4.222 1.588,0.325 3.175,0.649 4.445,0.974 a 24.271,24.271 0 0 1 3.493,2.6 16.635,16.635 0 0 0 -3.493,2.276 z"
       data-name="Path 182"
       id="Path_182" />
    <path
       transform="rotate(65,562.23285,343.94058)"
       stroke-width="1"
       stroke="#9cf79a"
       fill="#9af798"
       d="m 430.927,289.623 c -0.318,0.65 -0.953,2.274 -1.588,2.274 a 3.781,3.781 0 0 1 -3.175,-0.974 c -0.952,-0.974 -1.27,-2.923 -1.588,-4.222 -1.588,-7.47 -3.175,-15.265 -5.08,-22.736 -0.952,-3.248 -2.54,-6.5 -3.493,-9.744 -0.317,-1.3 -0.952,-2.923 -0.317,-3.9 a 4.344,4.344 0 0 1 2.858,-2.923 5.464,5.464 0 0 1 2.856,2.602 c 1.27,4.872 2.222,9.744 3.493,14.616 1.588,6.5 3.493,12.667 5.08,19.163 a 24.525,24.525 0 0 0 0.954,5.844 z"
       data-name="Path 183"
       id="Path_183" />
    <path
       transform="rotate(65,204.09483,300.30347)"
       fill="#9df79b"
       d="m 508.493,446.522 a 17.98,17.98 0 0 0 -1.905,2.6 9.922,9.922 0 0 1 -2.858,-2.274 13.969,13.969 0 0 1 -1.27,-3.9 c -2.858,-9.744 -6.033,-19.163 -8.89,-28.906 a 28.24,28.24 0 0 1 -1.27,-7.47 c 0,-1.3 1.27,-2.6 1.9,-3.573 0.952,0.974 2.223,1.624 2.54,2.6 1.588,4.222 2.54,8.445 3.81,12.667 2.223,7.47 4.445,14.616 6.668,22.086 a 53.834,53.834 0 0 0 1.275,6.17 z"
       data-name="Path 184"
       id="Path_184" />
    <path
       transform="rotate(65,548.57382,387.18358)"
       stroke-width="1"
       stroke="#9cf79a"
       fill="#9cf79a"
       d="m 453.383,281.75 c -0.635,0.974 -1.27,2.274 -1.9,3.248 -0.953,-0.974 -2.54,-1.3 -3.175,-2.6 -0.952,-2.6 -1.588,-5.2 -2.54,-7.8 -2.858,-9.094 -5.4,-18.513 -8.255,-27.607 a 2.909,2.909 0 0 1 -0.317,-2.274 11.667,11.667 0 0 1 1.27,-2.923 c 0.953,0.65 2.54,0.974 3.175,1.624 a 7.289,7.289 0 0 1 1.582,3.582 c 2.54,8.445 4.763,17.214 6.985,25.659 a 62.79,62.79 0 0 0 3.175,9.091 z"
       data-name="Path 186"
       id="Path_186" />
    <path
       transform="rotate(65,368.74674,492.69837)"
       fill="#9ff79d"
       d="m 566.039,288.824 a 14.85,14.85 0 0 1 -2.223,2.273 c -10.16,8.12 -20.321,15.915 -30.481,23.71 -0.635,0.325 -1.27,0.974 -1.9,0.974 -0.953,0 -2.223,0 -2.54,-0.65 a 3.929,3.929 0 0 1 0.318,-2.6 3.87,3.87 0 0 1 1.588,-1.624 c 9.843,-7.47 20,-15.265 29.846,-22.736 a 7.11,7.11 0 0 1 3.492,-0.974 c 0.312,0.003 0.947,0.977 1.9,1.627 z"
       data-name="Path 187"
       id="Path_187" />
    <path
       transform="rotate(65,298.30893,474.50532)"
       fill="#9bf799"
       d="m 582.816,331.082 c -13.335,-1.949 -25.718,-3.573 -38.1,-5.522 -1.9,-0.325 -5.4,-0.325 -4.763,-3.573 0.635,-2.923 3.493,-1.3 5.4,-0.974 11.748,1.624 23.178,3.248 34.926,4.872 a 5.294,5.294 0 0 1 2.223,0.325 20.135,20.135 0 0 1 4.445,2.6 27.712,27.712 0 0 1 -4.131,2.272 z"
       data-name="Path 188"
       id="Path_188" />
    <path
       transform="rotate(65,207.56732,359.0915)"
       fill="#a3f7a1"
       d="m 516.91,386.5 a 20.1,20.1 0 0 1 3.175,1.949 c 8.573,6.5 17.146,12.667 25.718,19.163 a 22.831,22.831 0 0 1 4.763,4.872 3.661,3.661 0 0 1 0,2.6 c -0.317,0.65 -1.588,0.65 -2.54,0.325 a 5.7,5.7 0 0 1 -2.223,-1.624 c -9.208,-6.5 -18.1,-13.317 -27.306,-19.812 -0.953,-0.65 -2.54,-1.624 -2.54,-2.923 -0.317,-0.977 0.318,-2.601 0.953,-4.55 z"
       data-name="Path 189"
       id="Path_189" />
    <path
       transform="rotate(65,220.96616,397.6907)"
       fill="#a2f79f"
       d="m 564.914,393.647 c -1.9,1.3 -2.54,2.274 -3.493,2.274 a 5.986,5.986 0 0 1 -2.54,-0.974 c -6.35,-4.222 -12.7,-8.445 -18.733,-12.667 a 117.964,117.964 0 0 1 -10.16,-7.47 c -0.953,-0.65 -1.27,-2.6 -1.588,-3.573 1.27,0 3.175,-0.325 4.127,0.65 7.62,5.2 15.241,10.393 22.861,15.915 1.27,0.974 2.54,1.3 3.81,2.274 1.588,0.647 3.175,1.947 5.716,3.571 z"
       data-name="Path 192"
       id="Path_192" />
    <path
       transform="rotate(65,287.7141,165.93274)"
       fill="#a4f7a2"
       d="m 414.7,442.45 c -0.317,-2.6 -0.953,-4.222 -0.317,-5.521 1.587,-3.9 3.493,-7.8 5.08,-11.693 2.54,-5.522 4.763,-11.368 7.3,-16.889 0.635,-1.3 0.952,-2.923 1.905,-3.573 0.953,-0.65 2.54,-0.649 4.128,-0.974 0,1.3 0.317,2.923 0,3.9 -2.858,6.821 -5.715,13.316 -8.89,20.137 -1.905,3.9 -3.81,7.8 -6.033,11.693 -0.629,0.97 -1.582,1.296 -3.173,2.92 z"
       data-name="Path 193"
       id="Path_193" />
    <path
       transform="rotate(65,254.28423,190.37454)"
       fill="#a6f8a4"
       d="m 449.77,412.949 c -1.588,4.222 -3.175,8.12 -4.763,12.017 -2.223,5.846 -4.445,11.368 -6.668,17.214 a 7.717,7.717 0 0 1 -1.588,3.248 c -0.635,0.974 -1.9,1.3 -2.857,1.949 -0.318,-1.3 -0.953,-2.6 -0.635,-3.573 1.905,-5.521 3.81,-11.368 6.033,-16.889 1.9,-4.872 4.128,-9.419 6.35,-13.966 0.318,-0.974 1.588,-1.3 2.54,-1.949 0.635,0 1.27,1.3 1.588,1.949 z"
       data-name="Path 194"
       id="Path_194" />
    <path
       transform="rotate(65,600.35484,202.33974)"
       fill="#96ed78"
       d="m 515.864,268.4 c 6.668,1.949 13.335,3.573 20,5.522 -0.635,1.3 -1.905,2.923 -1.588,4.222 q 0.953,13.641 2.858,27.283 c 1.587,11.693 0.952,22.736 -3.175,33.779 a 52.917,52.917 0 0 1 -25.083,28.257 c -13.653,7.146 -28.576,11.043 -43.816,14.616 -9.843,2.274 -20,4.547 -29.846,7.47 -3.81,0.974 -6.985,3.573 -10.478,5.2 -4.763,1.624 -9.843,3.248 -14.606,4.872 -0.952,0.325 -6.668,2.6 -8.573,3.248 -14.605,6.821 -27.941,14.941 -37.784,28.257 -1.905,2.6 -3.493,5.522 -5.4,8.12 a 32.463,32.463 0 0 1 -5.08,6.171 c -0.952,0.974 -3.493,1.949 -4.445,1.3 a 6,6 0 0 1 -2.54,-4.547 c -0.317,-9.094 3.175,-16.565 8.255,-23.71 9.843,-13.966 23.813,-22.736 37.784,-30.855 a 28.746,28.746 0 0 0 5.08,-3.573 c 4.445,-1.949 9.208,-3.9 13.653,-5.846 0.317,-0.325 1.587,0 3.81,-0.65 0,0 7.3,-3.248 11.748,-4.222 L 485.7,358.693 a 103.74,103.74 0 0 0 21.908,-7.795 c 7.3,-3.573 12.065,-10.069 11.748,-18.513 -0.318,-10.393 -0.953,-20.787 -2.223,-31.18 -0.951,-11.044 -2.221,-21.762 -1.269,-32.805 z"
       data-name="Path 195"
       id="Path_195" />
    <path
       transform="rotate(65,500.85201,488.39279)"
       fill="#62d19a"
       d="m 549.057,344.68 v 46.445 c 0,6.5 0,12.992 -0.317,19.812 -0.635,9.419 4.127,15.915 10.478,21.436 a 68.469,68.469 0 0 0 27.623,14.291 c 14.923,3.9 30.164,7.795 45.087,11.693 a 78.092,78.092 0 0 1 8.255,2.274 7.806,7.806 0 0 1 -1.328,2.847 c -3.81,4.222 -7.468,7.795 -11.278,12.017 -12.383,-3.248 -24.226,-5.445 -36.291,-9.017 -16.511,-4.547 -33.339,-8.769 -46.357,-22.086 -9.843,-10.069 -16.828,-20.787 -15.558,-36.052 1.587,-20.137 0.952,-40.6 1.27,-61.061 0,-6.5 0,-13.317 -0.318,-19.812 -0.952,-11.043 -1.127,-21.59 -3.94,-32.786 -0.154,-0.315 0.193,-1.938 -3.6,-12.022 -3.793,-10.084 -6.766,-17.517 -15.339,-28.56 -1.27,-1.624 -9.677,-11.106 -11.264,-12.73 -2.223,-1.624 -4.527,-2.709 -2.938,-5.486 1.27,-2.6 3.112,-1.307 5.652,-0.332 9.525,3.9 17.463,9.419 23.813,18.188 4.128,5.846 8.573,11.693 12.065,18.188 a 86.934,86.934 0 0 1 9.843,27.608 c 1.27,7.47 2.857,14.616 4.445,22.086 0.315,5.195 -0.003,21.11 -0.003,23.059 z"
       data-name="Path 138"
       id="Path_138" />
    <path
       transform="rotate(65,611.41029,264.02274)"
       fill="#62d19a"
       d="m 466.344,314.033 a 138.283,138.283 0 0 0 -15.558,-4.222 c -7.938,-1.624 -16.193,-2.923 -24.131,-3.9 -16.828,-2.6 -32.386,-0.325 -47.309,8.445 -1.587,0.974 -2.858,2.274 -4.445,2.274 -1.587,0.325 -4.128,0 -5.08,-0.974 -0.952,-0.974 -0.953,-3.9 -0.318,-5.2 a 18.716,18.716 0 0 1 5.4,-5.846 76.111,76.111 0 0 1 42.229,-13.641 c 16.51,-0.649 32.386,2.274 48.579,4.872 6.668,1.3 13.018,2.923 19.686,4.222 13.335,4.547 26.988,9.094 40.324,13.641 10.8,3.248 21.273,6.5 32.386,9.094 10.478,2.274 19.686,-1.3 27.306,-8.769 10.8,-10.393 19.051,-22.736 27.306,-34.753 6.985,-10.393 14.647,-22.068 21.632,-32.461 3.492,2.923 6.308,7.127 9.484,10.375 1.27,1.3 2.492,1.758 3.127,3.706 -5.715,8.445 -12.334,18.7 -18.367,26.824 -6.033,8.769 -12.065,17.864 -18.733,26.308 -9.843,12.342 -23.5,18.838 -38.419,21.436 -13.653,2.6 -26.671,0.325 -40.006,-3.573 -15.24,-4.547 -30.481,-8.12 -45.4,-12.342 -6.358,-1.943 -13.025,-3.567 -19.693,-5.516 z"
       data-name="Path 145"
       id="Path_145" />
    <path
       transform="rotate(65,577.85785,387.21882)"
       stroke-width="1"
       stroke="#96ed79"
       fill="#96ed79"
       d="m 512.805,297.592 c -3.175,-3.248 -11.113,-12.667 -12.383,-13.641 -10.8,-10.069 -21.591,-19.812 -33.656,-28.582 -10.8,-7.795 -21.908,-14.616 -34.291,-19.163 -1.27,-0.325 -2.223,-1.949 -3.175,-2.923 1.27,-0.974 2.222,-2.6 3.81,-2.923 2.223,-0.325 5.08,-0.65 7.3,0 13.653,3.9 27.941,6.5 39.689,14.941 7.62,5.521 14.923,11.693 22.543,17.539 3.81,2.923 19.368,16.889 23.178,21.436 4.445,6.5 8.573,12.992 13.018,19.488 0.952,1.624 2.54,2.923 3.493,4.547 6.985,10.068 13.335,20.462 20.638,30.531 5.08,6.821 10.161,13.966 18.733,17.214 6.985,2.923 14.288,3.248 21.908,1.949 18.733,-3.248 36.2,-10.069 53.977,-16.565 a 52.32,52.32 0 0 0 8.573,-4.222 c 0,6.5 0,13.317 0.317,19.813 a 89.2,89.2 0 0 0 -8.89,2.273 c -10.8,3.573 -21.591,7.47 -32.386,10.718 -14.923,4.872 -29.528,3.9 -44.134,-1.624 -14.606,-5.524 -25.718,-15.915 -34.926,-28.582 -8.89,-11.693 -17.781,-23.06 -26.988,-34.428 -0.632,-10e-4 -5.078,-6.497 -6.348,-7.796 z"
       data-name="Path 146"
       id="Path_146" />
    <path
       transform="rotate(65,442.6084,494.25262)"
       stroke-width="1"
       stroke="#97ed78"
       fill="#96ed78"
       d="m 510.17,289.463 c -0.635,-5.522 0.265,-11.724 -0.37,-17.246 11.113,-3.248 22.543,-6.821 33.656,-10.069 15.241,-4.872 30.8,-6.5 46.674,-3.9 10.478,1.624 19.051,7.47 25.718,15.915 3.492,4.222 7.3,8.445 8.573,14.291 0.635,2.923 0.635,5.522 -1.9,6.5 -1.905,0.65 -3.067,-6.217 -7.857,-11.048 -4.79,-4.831 -1.132,-2.464 -9.537,-8.987 -8.405,-6.523 -20.072,-4.974 -33.408,-3.675 -6.35,0.65 -12.383,2.923 -18.733,4.547 -13.658,4.221 -28.845,9.125 -42.816,13.672 z"
       data-name="Path 151"
       id="Path_151" />
    <path
       transform="rotate(65,551.75093,435.38641)"
       fill="#62d19a"
       d="m 467.73,289.076 c -3.81,-4.547 -8.622,-7.879 -12.432,-12.426 6.35,-9.744 14.337,-20.378 23.228,-27.848 a 116.294,116.294 0 0 1 18.1,-12.992 c 13.336,-7.8 27.306,-10.069 42.229,-4.872 a 94.093,94.093 0 0 1 13.018,5.846 c 1.27,0.65 2.222,3.248 2.222,4.547 -0.318,2.6 -2.857,2.6 -5.08,2.6 a 8.3,8.3 0 0 1 -3.81,-0.974 c -13.971,-4.872 -27.306,-2.274 -39.689,4.547 -6.668,3.573 -12.383,9.094 -17.78,14.291 -7.936,7.793 -13.973,17.537 -20.006,27.281 z"
       data-name="Path 161"
       id="Path_161" />
    <path
       transform="rotate(65,406.05003,485.53718)"
       fill="#9ff79d"
       d="m 516.594,333.437 c -0.317,-1.624 -0.953,-2.923 -0.635,-3.573 a 29.775,29.775 0 0 1 4.445,-4.547 c 9.525,-7.146 19.368,-14.291 28.893,-21.436 13.018,-9.744 26.353,-19.488 39.689,-29.231 0.953,-0.65 2.858,-0.325 4.445,-0.65 -0.635,1.3 -0.635,3.248 -1.588,3.9 -6.35,5.2 -13.018,10.069 -19.368,14.94 -8.255,6.171 -16.193,12.342 -24.449,18.513 -9.208,6.5 -18.1,12.992 -27.306,19.488 a 23.35,23.35 0 0 1 -4.126,2.596 z"
       data-name="Path 171"
       id="Path_171" />
    <path
       transform="rotate(65,511.09046,462.76189)"
       fill="#a0f79e"
       d="m 478.5,318.7 c 1.27,-4.222 2.54,-8.12 3.81,-12.017 2.857,-8.445 6.033,-17.214 8.89,-25.659 4.763,-13.641 9.843,-27.283 14.923,-40.6 a 10.925,10.925 0 0 1 0.952,-1.949 c 0.635,-0.649 1.588,-0.649 2.54,-0.974 0.318,0.974 0.952,1.949 0.635,2.6 -0.953,3.248 -1.905,6.821 -3.175,10.069 -5.715,16.565 -11.748,33.129 -17.463,49.693 -1.587,4.547 -2.857,9.094 -4.445,13.641 a 65.54,65.54 0 0 1 -3.175,6.821 17.682,17.682 0 0 1 -2.54,1.624 c 0,-1.627 -0.635,-2.276 -0.952,-3.249 z"
       data-name="Path 174"
       id="Path_174" />
    <path
       transform="rotate(65,413.40546,486.44869)"
       fill="#9df79b"
       d="m 516.522,298.732 c -0.953,-0.65 -2.223,-1.3 -2.223,-1.624 0.317,-1.3 0.635,-2.6 1.588,-3.248 3.492,-2.923 7.62,-5.2 11.113,-7.8 6.033,-4.547 12.383,-9.094 18.416,-13.641 0.635,-0.65 1.588,-1.624 2.223,-1.624 1.9,0 4.763,0 5.4,0.974 1.27,2.274 -1.587,2.923 -2.858,3.9 -6.35,4.547 -12.7,9.094 -18.733,13.641 -3.81,2.6 -7.3,5.2 -11.113,7.8 -1.272,0.648 -2.542,0.973 -3.813,1.622 z"
       data-name="Path 185"
       id="Path_185" />
    <path
       transform="rotate(65,512.62235,443.64864)"
       fill="#a0f79e"
       d="m 473.211,282.743 c -3.493,-0.65 -3.493,-1.949 -2.54,-4.222 2.223,-5.846 4.445,-12.017 6.668,-17.864 1.588,-4.222 3.175,-8.769 4.763,-12.992 0.317,-0.65 0.317,-1.624 0.635,-2.274 1.587,-1.3 3.81,-3.9 4.762,-3.573 2.858,1.3 0.635,3.248 -0.317,5.2 -3.81,10.393 -7.62,20.787 -11.431,31.505 a 18.491,18.491 0 0 1 -2.54,4.22 z"
       data-name="Path 190"
       id="Path_190" />
    <path
       transform="rotate(65,478.53819,472.02374)"
       fill="#a0f79e"
       d="m 506.558,249.722 c -1.588,4.872 -2.857,9.744 -4.128,14.291 -1.905,6.5 -4.128,12.667 -6.35,19.163 a 13.753,13.753 0 0 1 -1.27,3.248 4.773,4.773 0 0 1 -2.54,1.3 c -0.317,0 -0.952,-1.624 -1.27,-2.274 a 6.128,6.128 0 0 1 0.635,-2.274 L 502.113,252 c 0.317,-0.974 0.317,-1.949 0.952,-2.6 0.635,-0.651 1.588,-1.3 2.223,-0.974 0.317,-0.653 0.952,0.646 1.27,1.296 z"
       data-name="Path 191"
       id="Path_191" />
    <path
       transform="rotate(65,320.22929,164.53291)"
       fill="#62d19a"
       d="m 569.053,473.71 c 13.018,20.462 30.481,34.753 53.659,41.249 1.905,0.65 3.81,1.949 5.715,2.6 a 162.845,162.845 0 0 0 17.146,3.9 c 1.905,0.325 3.81,0 5.715,0.325 2.54,0.325 5.4,0.974 5.4,4.222 0,3.248 -2.54,3.9 -5.08,4.547 a 11.654,11.654 0 0 1 -3.493,0.325 c -6.985,0.325 -13.971,0.974 -20.956,1.3 -9.843,0.325 -18.733,-3.248 -27.306,-7.47 -9.525,-4.872 -18.733,-10.069 -26.353,-18.189 -4.763,-5.2 -9.843,-10.718 -14.605,-16.24 -3.81,-4.872 -7.3,-10.069 -11.113,-14.94 -10.478,-14.94 -20.638,-29.881 -31.433,-44.821 a 89.512,89.512 0 0 0 -13.018,-13.966 c -5.08,-4.547 -11.43,-6.5 -18.416,-6.821 -13.97,-0.975 -27.306,2.923 -40.641,7.145 -13.018,4.222 -26.353,8.445 -39.371,12.667 V 410.7 c 3.81,-0.974 7.62,-1.949 11.43,-3.248 15.24,-4.547 30.163,-9.419 45.087,-13.966 a 56.1,56.1 0 0 1 32.7,0 62.429,62.429 0 0 1 19.368,9.094 c 5.08,3.573 8.89,9.419 13.336,14.291 11.113,12.667 20.321,26.633 29.528,40.6 4.448,5.521 8.573,10.717 12.701,16.239 z"
       data-name="Path 239"
       id="Path_239" />
    <path
       transform="rotate(65,273.6271,249.5617)"
       fill="#96ed78"
       d="m 608.28,410.088 c -4.445,-2.274 -8.891,-4.222 -13.336,-6.5 -12.065,-6.171 -23.813,-12.667 -37.466,-14.616 -16.193,-2.274 -31.751,-0.974 -46.039,8.12 -3.175,1.949 -6.668,2.923 -9.843,4.547 -12.065,6.5 -20,17.539 -27.306,28.906 -6.668,10.393 -12.7,21.112 -19.051,31.505 -0.635,0.65 -1.046,2.1 -2,2.753 3.81,5.522 7.4,9.913 11.523,15.435 0.953,-1.949 1.588,-4.222 2.858,-5.846 8.89,-13.317 17.781,-26.633 26.353,-39.95 a 68.417,68.417 0 0 1 35.879,-27.283 c 19.051,-6.821 36.514,-0.974 53.024,9.419 a 33.019,33.019 0 0 0 7.3,4.222 c 9.208,3.9 18.1,7.795 27.306,11.693 5.08,1.949 10.8,3.9 13.971,3.9 3.171,0 6.311,2.063 9.487,2.063 3.176,0 4.8,1.185 7.659,1.51 14.288,2.274 28.258,4.222 42.547,1.949 15.241,-2.273 27.306,-10.393 37.784,-21.112 1.588,-1.624 2.54,-3.9 0.635,-5.522 -0.952,-0.65 -3.492,0 -5.08,0.65 -5.08,2.274 -9.525,6.171 -14.605,7.47 -24.766,6.821 -49.214,5.2 -73.345,-3.248 a 21.949,21.949 0 0 1 -4.806,-2.241 c -4.763,-1.3 -8.212,-3.605 -12.975,-4.255 a 23.176,23.176 0 0 1 -8.246,-2.809 z"
       data-name="Path 240"
       id="Path_240" />
    <path
       transform="rotate(65,208.14835,298.61262)"
       fill="#62d19a"
       d="m 552.372,405.7 v 3.248 c 1.588,13.641 2.223,29.881 -2.223,42.548 -5.715,16.24 -13.653,31.505 -27.623,42.548 -8.255,6.5 -17.781,9.419 -27.623,11.368 -1.27,0.325 -3.81,-0.65 -4.128,-1.624 a 6.047,6.047 0 0 1 0.952,-5.2 c 0.635,-1.3 2.223,-1.949 3.81,-2.6 11.113,-3.9 18.415,-11.693 24.131,-21.761 4.445,-8.12 9.208,-16.24 12.7,-24.685 5.715,-13.316 5.08,-27.607 3.493,-41.9 -0.634,-1.942 13.384,-1.942 16.511,-1.942 z"
       data-name="Path 241"
       id="Path_241" />
    <path
       transform="rotate(65,228.35892,282.48983)"
       fill="#9bf799"
       d="m 508.484,491.682 c -0.318,0.65 -0.635,2.274 -1.27,2.274 a 5.573,5.573 0 0 1 -3.175,-1.3 7.8,7.8 0 0 1 -1.905,-3.573 c -3.493,-12.342 -6.668,-25.009 -10.16,-37.351 -2.223,-9.094 -4.128,-18.513 -6.668,-27.607 -1.9,-6.821 -4.128,-13.641 -6.033,-20.462 -0.635,-2.274 -1.905,-4.872 0.952,-5.846 0.635,-0.325 3.493,2.6 4.128,4.547 2.54,8.12 4.445,16.565 6.668,24.684 4.445,15.915 9.208,31.5 13.335,47.42 1.905,5.197 2.858,11.043 4.128,17.214 z"
       data-name="Path 242"
       id="Path_242" />
    <path
       transform="rotate(65,218.65403,254.1401)"
       fill="#9cf79a"
       d="m 485.393,454.176 c -0.635,0.65 -0.953,2.274 -1.588,2.274 a 4.713,4.713 0 0 1 -3.493,-1.3 c -0.635,-0.974 -0.635,-2.6 -1.27,-3.9 -2.858,-10.718 -6.033,-21.761 -8.89,-32.48 a 25.248,25.248 0 0 1 -0.952,-6.821 c 0,-0.974 1.588,-2.273 2.858,-2.923 0.635,-0.325 2.223,1.3 2.54,2.274 3.175,12.667 6.35,25.334 9.525,38.326 a 24.357,24.357 0 0 1 1.27,4.55 z"
       data-name="Path 243"
       id="Path_243" />
    <path
       transform="rotate(65,204.09483,300.30347)"
       fill="#9df79b"
       d="m 508.493,446.522 a 17.98,17.98 0 0 0 -1.905,2.6 9.922,9.922 0 0 1 -2.858,-2.274 13.969,13.969 0 0 1 -1.27,-3.9 c -2.858,-9.744 -6.033,-19.163 -8.89,-28.906 a 28.24,28.24 0 0 1 -1.27,-7.47 c 0,-1.3 1.27,-2.6 1.9,-3.573 0.952,0.974 2.223,1.624 2.54,2.6 1.588,4.222 2.54,8.445 3.81,12.667 2.223,7.47 4.445,14.616 6.668,22.086 a 53.834,53.834 0 0 0 1.275,6.17 z"
       data-name="Path 244"
       id="Path_244" />
    <g
       transform="matrix(0.309,0.951,-0.951,0.309,281.685,-767.841)"
       data-name="Group 1"
       id="Group_1">
      <path
         transform="rotate(65,160.4464,963.8317)"
         fill="#9bf799"
         d="m 29.364,86.583 c -0.29,0.593 -0.569,2.08 -1.165,2.072 a 5.439,5.439 0 0 1 -3,-1.232 7.347,7.347 0 0 1 -1.833,-3.3 c -3.431,-11.376 -6.567,-23.046 -10,-34.422 -2.2,-8.378 -4.1,-17.05 -6.6,-25.432 C 4.9,17.978 2.73,11.688 0.857,5.4 0.233,3.306 -0.991,0.9 1.679,0.045 2.271,-0.245 4.99,2.474 5.61,4.271 c 2.49,7.487 4.378,15.265 6.564,22.748 4.369,14.668 9.032,29.042 13.1,43.707 1.855,4.795 2.826,10.174 4.09,15.857 z"
         data-name="Path 245"
         id="Path_245" />
      <path
         transform="rotate(65,148.06946,926.05891)"
         fill="#9cf79a"
         d="m 15.758,41.693 c -0.588,0.589 -0.866,2.076 -1.463,2.068 A 4.593,4.593 0 0 1 11,42.525 C 10.392,41.625 10.372,40.131 9.76,38.931 6.946,29.054 3.829,18.875 1.014,9 A 22.968,22.968 0 0 1 0.036,2.723 C 0.024,1.828 1.5,0.655 2.683,0.074 c 0.592,-0.291 2.1,1.22 2.413,2.119 3.137,11.67 6.273,23.34 9.414,35.307 a 22.455,22.455 0 0 1 1.248,4.193 z"
         data-name="Path 246"
         id="Path_246" />
      <path
         transform="rotate(65,127.06541,988.39353)"
         fill="#9df79b"
         d="M 15.738,40.163 A 15.915,15.915 0 0 0 13.981,42.525 9.643,9.643 0 0 1 11.27,40.4 12.937,12.937 0 0 1 10.03,36.805 C 7.23,27.823 4.13,19.135 1.33,10.153 A 25.767,25.767 0 0 1 0.044,3.281 C 0.028,2.088 1.2,0.91 1.789,0.023 2.695,0.93 3.9,1.542 4.205,2.44 c 1.543,3.9 2.489,7.785 3.733,11.678 2.179,6.887 4.353,13.476 6.531,20.362 a 49.275,49.275 0 0 0 1.269,5.683 z"
         data-name="Path 247"
         id="Path_247" />
    </g>
    <g
       transform="matrix(-0.174,0.985,-0.985,-0.174,868.898,-705.799)"
       data-name="Group 2"
       id="Group_2">
      <path
         transform="matrix(0.259,0.966,-0.966,0.259,970.713,416.368)"
         fill="#9bf799"
         d="M 25.172,82.586 C 24.891,83.162 24.6,84.598 24.05,84.604 A 4.673,4.673 0 0 1 21.313,83.488 6.74,6.74 0 0 1 19.7,80.355 C 16.794,69.5 14.166,58.355 11.259,47.499 9.421,39.499 7.859,31.205 5.75,23.206 4.166,17.206 2.306,11.206 0.722,5.211 0.19,3.212 -0.885,0.932 1.6,0.045 c 0.553,-0.293 3,2.259 3.531,3.972 2.122,7.139 3.691,14.571 5.538,21.714 3.7,14 7.672,27.707 11.094,41.708 1.599,4.566 2.368,9.715 3.409,15.147 z"
         data-name="Path 245"
         id="Path_245-2" />
      <path
         transform="matrix(0.259,0.966,-0.966,0.259,930.849,407.661)"
         fill="#9cf79a"
         d="m 13.66,39.776 c -0.556,0.579 -0.847,2.015 -1.4,2.021 A 3.957,3.957 0 0 1 9.247,40.684 C 8.706,39.83 8.722,38.398 8.185,37.258 5.816,27.83 3.172,18.117 0.8,8.689 A 22.47,22.47 0 0 1 0.041,2.68 C 0.05,1.82 1.441,0.659 2.541,0.074 3.1,-0.219 4.457,1.2 4.722,2.055 6.084,7.828 7.445,13.6 8.874,19.7 c 1.2,5.12 2.465,10.563 3.73,16.073 a 21.445,21.445 0 0 1 1.056,4.003 z"
         data-name="Path 246"
         id="Path_246-2" />
      <path
         transform="matrix(0.259,0.966,-0.966,0.259,965.29,454.979)"
         fill="#9df79b"
         d="M 13.686,38.283 A 16.35,16.35 0 0 0 12.011,40.594 8.351,8.351 0 0 1 9.558,38.616 12.251,12.251 0 0 1 8.5,35.188 C 6.114,26.619 3.455,18.34 1.074,9.771 A 25.072,25.072 0 0 1 0.046,3.192 C 0.058,2.046 1.171,0.888 1.73,0.022 2.546,0.873 3.64,1.433 3.905,2.29 5.24,6 6.024,9.716 7.083,13.429 8.937,20 10.793,26.281 12.646,32.85 a 47.672,47.672 0 0 0 1.04,5.433 z"
         data-name="Path 247"
         id="Path_247-2" />
    </g>
    <g
       transform="matrix(0.309,0.951,-0.951,0.309,281.685,-767.841)"
       data-name="Group 3"
       id="Group_3">
      <path
         transform="rotate(65,160.4464,963.8317)"
         fill="#9bf799"
         d="m 29.364,86.583 c -0.29,0.593 -0.569,2.08 -1.165,2.072 a 5.439,5.439 0 0 1 -3,-1.232 7.347,7.347 0 0 1 -1.833,-3.3 c -3.431,-11.376 -6.567,-23.046 -10,-34.422 -2.2,-8.378 -4.1,-17.05 -6.6,-25.432 C 4.9,17.978 2.73,11.688 0.857,5.4 0.233,3.306 -0.991,0.9 1.679,0.045 2.271,-0.245 4.99,2.474 5.61,4.271 c 2.49,7.487 4.378,15.265 6.564,22.748 4.369,14.668 9.032,29.042 13.1,43.707 1.855,4.795 2.826,10.174 4.09,15.857 z"
         data-name="Path 245"
         id="Path_245-3" />
      <path
         transform="rotate(65,148.06946,926.05891)"
         fill="#9cf79a"
         d="m 15.758,41.693 c -0.588,0.589 -0.866,2.076 -1.463,2.068 A 4.593,4.593 0 0 1 11,42.525 C 10.392,41.625 10.372,40.131 9.76,38.931 6.946,29.054 3.829,18.875 1.014,9 A 22.968,22.968 0 0 1 0.036,2.723 C 0.024,1.828 1.5,0.655 2.683,0.074 c 0.592,-0.291 2.1,1.22 2.413,2.119 3.137,11.67 6.273,23.34 9.414,35.307 a 22.455,22.455 0 0 1 1.248,4.193 z"
         data-name="Path 246"
         id="Path_246-3" />
      <path
         transform="rotate(65,127.06541,988.39353)"
         fill="#9df79b"
         d="M 15.738,40.163 A 15.915,15.915 0 0 0 13.981,42.525 9.643,9.643 0 0 1 11.27,40.4 12.937,12.937 0 0 1 10.03,36.805 C 7.23,27.823 4.13,19.135 1.33,10.153 A 25.767,25.767 0 0 1 0.044,3.281 C 0.028,2.088 1.2,0.91 1.789,0.023 2.695,0.93 3.9,1.542 4.205,2.44 c 1.543,3.9 2.489,7.785 3.733,11.678 2.179,6.887 4.353,13.476 6.531,20.362 a 49.275,49.275 0 0 0 1.269,5.683 z"
         data-name="Path 247"
         id="Path_247-3" />
    </g>
    <g
       transform="rotate(150,727.57988,216.64493)"
       data-name="Group 4"
       id="Group_4">
      <path
         transform="rotate(65,158.26791,959.57909)"
         fill="#9bf799"
         d="m 28.3,81.486 c -0.272,0.555 -0.528,1.951 -1.093,1.941 A 5.248,5.248 0 0 1 24.357,82.253 6.984,6.984 0 0 1 22.6,79.138 C 19.284,68.431 16.245,57.449 12.929,46.738 10.8,38.859 8.943,30.7 6.529,22.812 4.719,16.9 2.626,10.974 0.816,5.057 0.212,3.085 -0.962,0.822 1.567,0.029 c 0.56,-0.27 3.154,2.3 3.752,3.992 2.4,7.048 4.235,14.366 6.35,21.409 4.224,13.805 8.725,27.335 12.667,41.135 1.782,4.515 2.728,9.575 3.964,14.921 z"
         data-name="Path 245"
         id="Path_245-4" />
      <path
         transform="rotate(65,146.774,924.11031)"
         fill="#9cf79a"
         d="m 15.14,39.223 c -0.555,0.55 -0.811,1.946 -1.376,1.935 A 4.428,4.428 0 0 1 10.631,39.979 C 10.049,39.128 10.022,37.727 9.431,36.595 6.712,27.3 3.7,17.719 0.976,8.424 A 21.5,21.5 0 0 1 0.014,2.524 C 0,1.683 1.391,0.588 2.511,0.049 c 0.56,-0.27 2,1.158 2.3,2 3.039,10.982 6.077,21.963 9.122,33.226 a 21.145,21.145 0 0 1 1.207,3.948 z"
         data-name="Path 246"
         id="Path_246-4" />
      <path
         transform="rotate(65,126.48883,982.91957)"
         fill="#9df79b"
         d="M 15.105,37.8 A 14.719,14.719 0 0 0 13.451,40.01 9.288,9.288 0 0 1 10.869,38 12.207,12.207 0 0 1 9.669,34.616 C 6.965,26.161 3.98,17.981 1.273,9.527 A 24.155,24.155 0 0 1 0.018,3.06 C 0,1.94 1.106,0.84 1.655,0.009 2.52,0.866 3.662,1.448 3.961,2.293 c 1.484,3.669 2.4,7.328 3.6,10.992 2.1,6.482 4.2,12.684 6.306,19.167 a 46.258,46.258 0 0 0 1.238,5.348 z"
         data-name="Path 247"
         id="Path_247-4" />
    </g>
  </g>
</svg>
