<?xml version="1.0" encoding="UTF-8" standalone="no"?>
<svg
   xmlns:dc="http://purl.org/dc/elements/1.1/"
   xmlns:cc="http://creativecommons.org/ns#"
   xmlns:rdf="http://www.w3.org/1999/02/22-rdf-syntax-ns#"
   xmlns:svg="http://www.w3.org/2000/svg"
   xmlns="http://www.w3.org/2000/svg"
   xmlns:sodipodi="http://sodipodi.sourceforge.net/DTD/sodipodi-0.dtd"
   xmlns:inkscape="http://www.inkscape.org/namespaces/inkscape"
   inkscape:version="1.0 (4035a4fb49, 2020-05-01)"
   sodipodi:docname="small_logo.svg"
   version="1.1"
   viewBox="0 0 403.3503 104.18654"
   height="104.18654"
   width="403.35031"
   data-name="Component 2 – 1"
   id="Component_2_1">
  <metadata
     id="metadata20">
    <rdf:RDF>
      <cc:Work
         rdf:about="">
        <dc:format>image/svg+xml</dc:format>
        <dc:type
           rdf:resource="http://purl.org/dc/dcmitype/StillImage" />
        <dc:title></dc:title>
      </cc:Work>
    </rdf:RDF>
  </metadata>
  <defs
     id="defs18" />
  <sodipodi:namedview
     inkscape:current-layer="Component_2_1"
     inkscape:window-maximized="1"
     inkscape:window-y="-6"
     inkscape:window-x="-6"
     inkscape:cy="97.236465"
     inkscape:cx="201.40103"
     inkscape:zoom="1.9308793"
     lock-margins="true"
     fit-margin-bottom="5"
     fit-margin-right="5"
     fit-margin-left="5"
     fit-margin-top="5"
     showgrid="false"
     id="namedview16"
     inkscape:window-height="1010"
     inkscape:window-width="1620"
     inkscape:pageshadow="2"
     inkscape:pageopacity="0"
     guidetolerance="10"
     gridtolerance="10"
     objecttolerance="10"
     borderopacity="1"
     bordercolor="#666666"
     pagecolor="#ffffff" />
  <path
     fill="#ffffff"
     d="m 168.758,53.835889 h -15.543 c -1.786,0 -2.233,0.46 -1.965,2.3 0.536,4.233 4.02,8.743 8.307,9.939 a 10.863,10.863 0 0 0 10.63,-2.209 5.991,5.991 0 0 0 1.34,-1.657 2.085,2.085 0 0 1 2.144,-1.288 c 3.394,0.092 6.7,0 10.094,0.092 1.429,0 1.786,0.552 1.161,1.933 a 22.386,22.386 0 0 1 -6.432,8.835 21.066,21.066 0 0 1 -10.541,4.325 41.387,41.387 0 0 1 -14.65,-1.012 16.245,16.245 0 0 1 -9.647,-6.626 28.381,28.381 0 0 1 -5.36,-13.068 34.592,34.592 0 0 1 1.965,-16.749 c 2.144,-5.43 5.628,-9.755 11.166,-11.872 a 26.269,26.269 0 0 1 13.042,-1.841 c 4.466,0.644 8.754,1.841 12.417,4.509 a 19.994,19.994 0 0 1 7.5,10.4 42.31,42.31 0 0 1 1.876,11.964 c 0,2.025 0,2.025 -1.965,2.025 q -7.906,0.138 -15.543,0 z m -6.521,-7.915 v 0 c 2.859,0.092 5.628,0.092 8.486,0.092 1.787,0 2.055,-0.276 1.965,-2.209 a 10.621,10.621 0 0 0 -7.771,-8.927 10.968,10.968 0 0 0 -13.131,9.111 c -0.268,1.565 -0.089,1.841 1.519,1.933 z"
     data-name="Path 231"
     id="Path_231" />
  <path
     fill="#ffffff"
     d="m 239.409,58.642889 v 15.183 c 0,1.472 0,1.564 -1.519,1.564 l -9.915,0.276 c -1.608,0 -1.7,0 -1.7,-1.749 v -29.079 a 11.936,11.936 0 0 0 -1.072,-5.062 5.976,5.976 0 0 0 -4.109,-3.589 c -4.466,-1.1 -8.575,-0.46 -12.059,2.853 -1.965,1.933 -2.233,4.417 -2.323,6.994 v 28.161 c 0,1.564 0,1.564 -1.519,1.564 -3.394,-0.092 -6.878,-0.276 -10.272,-0.276 -1.072,0 -1.34,-0.368 -1.34,-1.38 0,-6.534 -0.179,-13.16 -0.179,-19.694 0,-8.743 0.089,-17.393 0.089,-26.136 0,-1.564 0,-1.656 1.519,-1.656 3.216,-0.092 6.521,-0.092 9.737,-0.184 0.8,0 1.161,0.368 1.161,1.2 0,1.288 -0.089,2.669 -0.089,3.957 a 2.883,2.883 0 0 0 0.447,1.1 2.654,2.654 0 0 0 0.983,-0.644 c 3.037,-4.325 7.325,-6.258 12.327,-6.626 a 50.316,50.316 0 0 1 5.27,0 c 3.305,0.184 6.164,1.841 8.933,3.405 a 8.729,8.729 0 0 1 3.752,5.154 33.242,33.242 0 0 1 1.787,11.043 c 0.089,4.509 0.089,9.111 0.089,13.62 z"
     data-name="Path 232"
     id="Path_232" />
  <path
     fill="#ffffff"
     d="m 5,43.777889 a 96.428,96.428 0 0 1 1.487,-10.634 c 1.58,-6.775 4.648,-12.8 10.04,-17.5 a 29.074,29.074 0 0 1 12.829,-6.4000001 44.564,44.564 0 0 1 16.919,-0.565 c 7.716,1.223 14.688,4.2350001 19.615,10.8220001 a 38.439,38.439 0 0 1 6.042,12.61 50.717,50.717 0 0 1 0.93,22.4 31.258,31.258 0 0 1 -8.088,17.127 30.609,30.609 0 0 1 -17.942,9.5 c -6.135,0.941 -12.085,0.094 -18.035,-1.223 -8.367,-1.882 -14.6,-6.775 -19.15,-13.833 a 27.185,27.185 0 0 1 -4,-12.233 c -0.275,-2.825 -0.368,-5.837 -0.647,-10.071 z m 54.1,0.376 a 31.1,31.1 0 0 0 -2.51,-12.986 16.265,16.265 0 0 0 -5.206,-7.058 19.943,19.943 0 0 0 -17.012,-3.105 c -7.623,1.976 -11.992,7.152 -13.851,14.68 a 49.193,49.193 0 0 0 -0.744,14.3 c 0.279,4.046 1.115,8.093 3.533,11.481 a 16.426,16.426 0 0 0 4.09,4.329 c 5.485,3.576 11.434,4.8 17.849,2.541 a 18.245,18.245 0 0 0 11.434,-10.54 c 1.956,-4.419 2.328,-8.936 2.417,-13.641 z"
     data-name="Path 233"
     id="Path_233" />
  <path
     fill="#a0f485"
     d="m 329.351,75.718889 c -1.786,0 -3.573,0.092 -5.27,0 -2.055,-0.092 -2.233,-0.368 -2.233,-2.485 v -42.609 c 0,-1.749 0.179,-3.405 0.179,-5.154 0,-0.92 0.357,-1.288 1.251,-1.288 4.02,0 8.04,-0.092 12.059,-0.092 a 1.867,1.867 0 0 1 1.876,2.117 c 0,2.853 -0.089,5.706 -0.179,8.559 0,0.736 -0.089,1.564 -0.089,2.3 -0.089,10.4 -0.089,20.707 -0.179,31.106 0,1.84 -0.089,3.773 -0.179,5.614 0,1.564 -0.179,1.749 -1.786,1.841 a 54.266,54.266 0 0 1 -5.45,0.091 z"
     data-name="Path 234"
     id="Path_234" />
  <path
     fill="#a0f485"
     d="m 329.173,5.0408889 h 5.806 c 1.429,0 1.429,0 1.519,1.472 0.089,3.313 0.179,6.6260001 0.179,9.9390001 0,1.933 -0.268,2.209 -2.144,2.209 h -10.9 c -1.786,0 -1.965,-0.184 -1.965,-2.025 V 6.6968889 c 0,-1.472 0.089,-1.565 1.519,-1.656 2.055,-0.092 4.02,0 5.985,0 z"
     data-name="Path 235"
     id="Path_235" />
  <path
     fill="#ffffff"
     d="m 81.802,62.642889 v -34.051 c 0,-2.853 -0.268,-2.485 2.412,-2.485 2.948,0 5.9,0.092 8.843,0.092 0.983,0 1.429,0.368 1.34,1.472 a 9.594,9.594 0 0 0 0.179,2.761 c 0.179,0.92 0.625,1.012 1.251,0.276 4.02,-4.786 9.379,-5.982 15.186,-5.614 a 18.093,18.093 0 0 1 9.2,2.853 19.833,19.833 0 0 1 6.521,6.9 c 3.752,6.258 4.734,13.16 3.752,20.339 a 43.589,43.589 0 0 1 -2.144,9.111 c -2.5,6.258 -6.968,10.859 -13.488,12.24 -6.968,1.472 -13.488,0 -18.58,-5.706 a 9.374,9.374 0 0 0 -0.982,-0.736 9.653,9.653 0 0 0 -0.357,1.288 c -0.089,8.559 -0.089,17.117 -0.089,25.584001 v 1.2 a 0.907,0.907 0 0 1 -0.983,1.012 H 82.785 a 0.962,0.962 0 0 1 -1.072,-1.1 v -1.841 c 0,-11.135001 0,-22.363001 0.089,-33.591001 z m 35.91,-11.688 c -0.357,-2.3 -0.625,-4.693 -1.161,-6.9 a 11.754,11.754 0 0 0 -3.662,-6.258 c -6.253,-5.062 -14.918,-1.012 -16.883,4.233 a 33.738,33.738 0 0 0 -1.608,5.89 c -0.715,3.589 0.089,7.086 1.161,10.491 1.072,3.221 2.948,5.706 6.164,6.81 0.893,0.276 1.876,0.552 2.769,0.736 a 10.742,10.742 0 0 0 11.612,-6.442 39.094,39.094 0 0 0 1.609,-8.56 z"
     data-name="Path 236"
     id="Path_236" />
  <path
     fill="#a0f485"
     d="m 373.036,21.790889 a 24.568,24.568 0 0 1 14.382,4.97 32.742,32.742 0 0 1 4.377,3.589 24.3,24.3 0 0 1 2.948,4.325 32.857,32.857 0 0 1 3.126,8.283 c 0.715,2.945 0.447,5.89 0.357,8.835 0,1.2 -0.357,2.393 -0.447,3.589 -0.268,3.405 -1.876,6.258 -3.305,9.2 a 24.356,24.356 0 0 1 -4.734,6.166 28.074,28.074 0 0 1 -4.288,3.037 c -0.536,0.368 -1.251,0.552 -1.876,0.92 -4.377,2.209 -8.933,2.485 -13.756,2.117 a 34.033,34.033 0 0 1 -9.111,-1.749 22.152,22.152 0 0 1 -11.077,-8.007 27.636,27.636 0 0 1 -5.27,-16.565 31.2,31.2 0 0 1 0.715,-8.651 24.423,24.423 0 0 1 9.022,-13.436 31.026,31.026 0 0 1 10.9,-5.338 c 2.588,-0.641 5.263,-0.825 8.037,-1.285 z m 9.737,27.885 c -0.268,-1.933 -0.536,-3.773 -0.8,-5.706 a 8.693,8.693 0 0 0 -6.253,-7.362 18.03,18.03 0 0 0 -3.758,-0.737 c -4.645,-0.276 -8.218,1.288 -10.183,5.522 a 20.215,20.215 0 0 0 -1.161,13.528 c 1.161,4.878 4.2,8.191 9.29,8.743 3.93,0.46 7.414,-0.368 9.915,-3.957 a 19.575,19.575 0 0 0 2.95,-10.031 z"
     data-name="Path 237"
     id="Path_237" />
  <path
     fill="#a0f485"
     d="m 253.015,42.075889 v -31.346 c 0,-2.0650001 0.458,-2.6000001 2.563,-2.6000001 h 33.6 c 3.3,0 6.5,0.9 9.7,1.616 6.866,1.4370001 10.62,5.8370001 12.725,12.1240001 a 20.243,20.243 0 0 1 0.641,8.442 9.356,9.356 0 0 1 -2.472,5.029 c -1.007,1.078 -1.923,2.155 -2.93,3.233 -0.458,0.449 -0.549,0.808 0.091,1.257 4.577,2.784 6.408,7.184 7.324,12.034 a 19.359,19.359 0 0 1 -0.275,9.429 18.947,18.947 0 0 1 -7.69,10.507 25.331,25.331 0 0 1 -13.549,4.221 c -12.084,0.269 -24.169,0.269 -36.345,0.359 a 5.738,5.738 0 0 1 -1.19,-0.09 c -1.556,-0.18 -2.2,-0.808 -2.2,-2.425 q 0.007,-15.895 0.007,-31.79 z m 26.732,5.478 h -10.532 c -1.007,0 -1.648,0.18 -1.648,1.257 -0.092,4.4 -0.366,8.8 -0.458,13.2 -0.092,1.527 0.183,1.706 1.922,1.706 3.753,0 7.415,0.09 11.169,0 3.57,-0.09 7.141,-0.269 10.711,-0.269 a 9.334,9.334 0 0 0 8.88,-7.454 5.956,5.956 0 0 0 -2.38,-6.107 c -2.2,-1.8 -4.852,-2.155 -7.69,-2.245 -3.382,-0.178 -6.678,-0.088 -9.974,-0.088 z m -1.007,-27.75 c -2.746,0 -5.584,0.09 -8.331,0 -1.282,0 -1.739,0.449 -1.739,1.706 q 0.138,5.388 0,10.776 c 0,1.347 0.549,1.616 1.739,1.616 3.662,-0.09 7.416,-0.09 11.078,0 2.746,0 7.324,-0.359 10.07,-0.629 5.218,-0.449 5.676,-1.8 5.493,-6.466 v -1.616 a 4.1,4.1 0 0 0 -2.106,-3.592 7.765,7.765 0 0 0 -2.746,-0.988 52.209,52.209 0 0 0 -13.458,-0.806 z"
     data-name="Path 238"
     id="Path_238" />
</svg>
